<?xml version="1.0" encoding="UTF-8"?>
<svg version="1.1" xmlns="http://www.w3.org/2000/svg" width="1200" height="449">
<path d="M0 0 C4.79274896 4.10251534 7.63962251 8.71888863 8.3359375 15.05859375 C8.68053108 44.86593858 -11.70510296 72.72002042 -29.50830078 95.11132812 C-31.33925163 97.42953365 -33.12143943 99.7822714 -34.90307617 102.13842773 C-39.8952197 108.72247157 -45.15937002 115.03913889 -50.54394531 121.30126953 C-52.07617171 123.088867 -53.59741479 124.88540019 -55.1171875 126.68359375 C-64.35736652 137.58841132 -64.35736652 137.58841132 -69.31723404 142.30633163 C-71.06015575 144.06054549 -72.59933985 145.90860112 -74.17034912 147.81744385 C-77.21735197 151.3244344 -80.3833234 153.89739983 -84.2110672 156.50020599 C-98.15150717 166.07332849 -112.72870566 178.47515018 -115.97241211 195.83325195 C-119.06650328 215.15530814 -117.8573761 235.26320642 -117.03834677 254.72799063 C-116.69049888 263.17170684 -116.55778822 271.61520505 -116.43840742 280.06474733 C-116.18909224 297.38620731 -115.68439419 314.69036239 -115 332 C-121.53278786 332.02527002 -128.06556321 332.04283292 -134.59838867 332.05493164 C-136.82267732 332.05997317 -139.04696263 332.06680623 -141.27124023 332.07543945 C-144.46078309 332.08751298 -147.65028229 332.09322996 -150.83984375 332.09765625 C-151.84087631 332.10281754 -152.84190887 332.10797882 -153.87327576 332.11329651 C-154.79415482 332.11337204 -155.71503387 332.11344757 -156.66381836 332.11352539 C-157.47878281 332.115746 -158.29374725 332.11796661 -159.13340759 332.12025452 C-161 332 -161 332 -162 331 C-162.12536856 327.95670813 -162.18612443 324.93502627 -162.20532227 321.89038086 C-162.21522186 320.93438492 -162.22512146 319.97838898 -162.23532104 318.99342346 C-162.26703852 315.81725586 -162.29173381 312.64107327 -162.31640625 309.46484375 C-162.33696694 307.26908467 -162.35796316 305.07332964 -162.37937927 302.87757874 C-162.43469139 297.08583842 -162.48406022 291.29406186 -162.53222656 285.5022583 C-162.58237503 279.59717566 -162.63809575 273.69214596 -162.69335938 267.78710938 C-162.80105267 256.19145142 -162.90247267 244.5957476 -163 233 C-163.93666504 233.8053418 -164.87333008 234.61068359 -165.83837891 235.44042969 C-167.09274454 236.51761178 -168.3471407 237.59475831 -169.6015625 238.671875 C-170.21588135 239.20022949 -170.8302002 239.72858398 -171.46313477 240.27294922 C-176.90176017 244.94077405 -182.42557231 249.49495232 -188 254 C-186.72425228 257.33340534 -185.26463422 260.4286641 -183.5625 263.5625 C-177.95600857 274.65971461 -176.82998949 286.72207863 -176.90234375 298.96875 C-176.90335083 299.78633789 -176.90435791 300.60392578 -176.90539551 301.44628906 C-176.91057853 304.46420723 -176.92453929 307.48210521 -176.9375 310.5 C-176.958125 317.265 -176.97875 324.03 -177 331 C-200.1 331 -223.2 331 -247 331 C-246.87625 338.05375 -246.7525 345.1075 -246.625 352.375 C-246.59100098 354.58106934 -246.55700195 356.78713867 -246.52197266 359.06005859 C-246.4867152 360.83953249 -246.45078838 362.6189933 -246.4140625 364.3984375 C-246.40270264 365.29731689 -246.39134277 366.19619629 -246.37963867 367.12231445 C-246.24142738 373.26855382 -245.39501469 379.01419016 -244 385 C-239.34354883 385.93241736 -239.34354883 385.93241736 -234.6875 385.4375 C-231.84419734 383.01542736 -231.18019237 379.67979738 -230.78900146 376.03302002 C-230.67461369 373.79439887 -230.61908062 371.5615865 -230.5859375 369.3203125 C-230.55947144 368.23834595 -230.55947144 368.23834595 -230.5324707 367.13452148 C-230.46986414 364.46489906 -230.42336061 361.79491849 -230.375 359.125 C-230.25125 353.14375 -230.1275 347.1625 -230 341 C-212.51 341 -195.02 341 -177 341 C-176.9071875 348.5178125 -176.9071875 348.5178125 -176.8125 356.1875 C-176.78518799 357.73977295 -176.75787598 359.2920459 -176.72973633 360.89135742 C-176.62398986 378.77160695 -180.88070674 392.40635243 -193.4296875 405.5546875 C-207.10204164 418.56212472 -224.83223782 420.61613013 -242.953125 420.25 C-260.55442531 419.58176536 -277.35386301 414.21918629 -289.75 401.3125 C-301.02158693 388.15576961 -302.42652699 371.79777465 -302.6875 355.1875 C-302.72077518 353.70505001 -302.75527369 352.22262695 -302.79101562 350.74023438 C-302.87472726 347.16035487 -302.94207093 343.58040072 -303 340 C-303.72026367 340.47288452 -303.72026367 340.47288452 -304.45507812 340.95532227 C-425.8151057 420.51578249 -425.8151057 420.51578249 -486 430 C-487.08087891 430.19142578 -487.08087891 430.19142578 -488.18359375 430.38671875 C-498.18373568 431.93603651 -509.17495103 432.13656483 -518.25 427.25 C-521.82895792 424.3217617 -524.90715187 421.18569625 -527 417 C-528.05491469 403.41964259 -526.71025091 392.36483273 -521 380 C-520.54971436 379.0104834 -520.54971436 379.0104834 -520.09033203 378.00097656 C-508.84568885 353.90615586 -491.81914929 332.03367705 -474.53515625 311.96875 C-472.19512424 309.2284968 -469.93579533 306.4405448 -467.6875 303.625 C-462.81345019 297.62684501 -457.51596373 292.05111264 -452.21484375 286.43359375 C-449.88993717 283.9654119 -447.63063861 281.4619191 -445.4375 278.875 C-441.82047896 274.65974393 -437.85059358 270.79708241 -433.88061523 266.91748047 C-430.97673598 264.06014484 -428.22557652 261.14130977 -425.57421875 258.046875 C-422.06724238 253.9901459 -418.26585435 250.36615648 -414.3125 246.75 C-409.27578024 242.09173506 -404.31681785 237.38557372 -399.5 232.5 C-395.87494127 228.83210453 -392.18490454 225.31643546 -388.2578125 221.97265625 C-385.10585924 219.21878706 -382.05868929 216.35664743 -379 213.5 C-374.07394922 208.90896706 -369.11722709 204.37827733 -364 200 C-362.96605322 199.11208701 -361.93220867 198.22405495 -360.8984375 197.3359375 C-358.50504964 195.28098118 -356.10873322 193.22949804 -353.7109375 191.1796875 C-351.2917862 189.11029302 -348.88061267 187.03222693 -346.4765625 184.9453125 C-340.17007756 179.48211087 -333.77583977 174.189215 -327.18188477 169.07617188 C-323.17857077 165.96092684 -319.28801671 162.73918609 -315.4375 159.4375 C-309.70877631 154.53812653 -303.79779147 149.90786606 -297.78808594 145.35839844 C-295.87593895 143.90575154 -293.97247624 142.44225503 -292.0703125 140.9765625 C-281.49046407 132.83246133 -270.78071564 124.87579955 -260 117 C-259.26168945 116.45875488 -258.52337891 115.91750977 -257.76269531 115.35986328 C-245.37061657 106.28245861 -232.7340547 97.58953936 -220 89 C-219.31341309 88.5349707 -218.62682617 88.06994141 -217.91943359 87.59082031 C-178.65688035 61.00711916 -44.93743172 -27.20106486 0 0 Z M-150 72 C-151.38783691 72.66322266 -151.38783691 72.66322266 -152.80371094 73.33984375 C-167.66946021 80.45345043 -181.86884635 88.53291347 -196 97 C-197.5220179 97.90124016 -199.04414386 98.80229787 -200.56640625 99.703125 C-220.29561074 111.47762228 -239.40345668 124.51783762 -258 138 C-258.74620605 138.54043945 -259.49241211 139.08087891 -260.26123047 139.63769531 C-280.56478781 154.38329562 -300.32862449 169.83697053 -319.42138672 186.12231445 C-322.71663424 188.93049633 -326.0597793 191.66691489 -329.4375 194.375 C-334.45175024 198.45091102 -339.18042287 202.78852794 -343.87866211 207.22021484 C-347.52163336 210.65423762 -351.24303358 213.97652753 -355.01977539 217.26269531 C-365.25080919 226.23865839 -374.92986887 235.82930897 -384.5625 245.4375 C-385.4901416 246.36054932 -386.4177832 247.28359863 -387.37353516 248.23461914 C-391.90183324 252.77318082 -396.29860284 257.36209634 -400.47338867 262.22827148 C-402.70712494 264.82066299 -405.04259877 267.30849567 -407.375 269.8125 C-412.48940833 275.35661685 -417.30085022 281.09818647 -422 287 C-422.87227154 288.07952752 -423.74467262 289.15895039 -424.6171875 290.23828125 C-451.74097896 323.08210878 -451.74097896 323.08210878 -461 363 C-459.35492949 368.19495951 -457.59487393 371.04615248 -453 374 C-439.22161071 380.97767971 -419.97090271 374.52009705 -406.3125 370.13769531 C-373.66955272 359.32240063 -326.63185709 340.63185709 -302 316 C-301.88948536 313.67767088 -301.84398252 311.35221695 -301.82421875 309.02734375 C-301.80095552 307.5540232 -301.7768359 306.08071597 -301.75195312 304.60742188 C-301.71734947 302.29768828 -301.68780269 299.98842366 -301.67407227 297.6784668 C-301.55423328 280.79960696 -299.30533505 262.82729549 -287.2578125 249.9453125 C-272.20178163 236.97316133 -252.29110434 233.82911738 -233 235 C-224.33871859 235.88966725 -215.89854739 237.48865106 -207.98046875 241.23046875 C-205.73271456 242.24145339 -205.73271456 242.24145339 -202 242 C-199.47612801 240.37291095 -199.47612801 240.37291095 -196.9375 238.125 C-195.97070312 237.30515625 -195.00390625 236.4853125 -194.0078125 235.640625 C-190.13772116 232.26464124 -186.33546716 228.81537632 -182.5546875 225.33984375 C-180.37302185 223.34165152 -178.16988691 221.37851111 -175.9375 219.4375 C-172.79890701 216.70262644 -169.67298843 213.95433673 -166.5625 211.1875 C-165.71816406 210.43855469 -164.87382812 209.68960938 -164.00390625 208.91796875 C-161.87681594 206.88209869 -161.05716476 205.944477 -160.87974548 203.01315308 C-160.88196609 202.20040924 -160.88418671 201.38766541 -160.88647461 200.55029297 C-160.88658791 199.16908768 -160.88658791 199.16908768 -160.88670349 197.75997925 C-160.89186478 196.76410797 -160.89702606 195.76823669 -160.90234375 194.7421875 C-160.9037587 193.72399933 -160.90517365 192.70581116 -160.90663147 191.6567688 C-160.912241 188.39614965 -160.92479512 185.13559849 -160.9375 181.875 C-160.94251377 179.66796974 -160.94707689 177.46093841 -160.95117188 175.25390625 C-160.96221352 169.83591419 -160.97896095 164.41796195 -161 159 C-160.14674889 159.03664009 -160.14674889 159.03664009 -159.27626038 159.07402039 C-153.32289161 159.31853805 -147.37095952 159.48372912 -141.41381836 159.60424805 C-139.19512965 159.65936372 -136.97683687 159.73428406 -134.75952148 159.82983398 C-121.99180164 161.04991071 -121.99180164 161.04991071 -110.61962891 156.64746094 C-108.35124826 153.86309671 -106.68868542 151.15835949 -105 148 C-103.79154426 146.58834858 -102.54712625 145.20563462 -101.25 143.875 C-83.04662267 123.56844361 -58.33558646 93.29067425 -58.796875 64.65234375 C-59.07641507 61.00219552 -59.77114582 58.92537111 -62 56 C-65.91510208 52.88995138 -69.9342522 50.36183913 -75 50 C-75.63679688 49.94972656 -76.27359375 49.89945313 -76.9296875 49.84765625 C-102.40482561 48.7754703 -127.70963942 61.18074599 -150 72 Z M-245 269 C-247.68825371 275.49993295 -247.25113922 283.21645222 -247.125 290.125 C-247.11597656 291.08148438 -247.10695313 292.03796875 -247.09765625 293.0234375 C-247.07439993 295.34906987 -247.03854303 297.67457075 -247 300 C-242.38 300 -237.76 300 -233 300 C-232.9190883 295.60379776 -232.85953427 291.20908403 -232.8125 286.8125 C-232.78736328 285.56662109 -232.76222656 284.32074219 -232.73632812 283.03710938 C-232.72666016 281.83505859 -232.71699219 280.63300781 -232.70703125 279.39453125 C-232.6913208 278.28956299 -232.67561035 277.18459473 -232.65942383 276.04614258 C-233.04434136 272.60340704 -233.92048319 270.74752236 -236 268 C-239.68159369 266.58400243 -241.74779806 266.82772455 -245 269 Z " fill="#FFFFFF" transform="translate(527,4)"/>
<path d="M0 0 C14.85 0 29.7 0 45 0 C45.33 11.88 45.66 23.76 46 36 C49.63 34.02 53.26 32.04 57 30 C66.12859783 27.71785054 77.33257856 27.57510185 85.921875 31.73828125 C91.72055367 35.25890759 96.66875763 39.43079239 99 46 C102.09284469 59.13305775 101.25353919 72.919109 101.1953125 86.3046875 C101.19157621 88.8405852 101.18873215 91.37648436 101.18673706 93.91238403 C101.17992161 99.86891722 101.16421329 105.82538344 101.14403808 111.78188241 C101.12154445 118.57287739 101.11065209 125.36387629 101.10064721 132.15489936 C101.07984231 146.10331514 101.04322084 160.05163659 101 174 C86.15 174 71.3 174 56 174 C55.97494385 170.56231201 55.9498877 167.12462402 55.92407227 163.58276367 C55.8407134 152.24319779 55.7520623 140.90367745 55.66066074 129.5641737 C55.60535692 122.68692409 55.55187959 115.8096693 55.50268555 108.93237305 C55.45523361 102.29933697 55.40271362 95.66635368 55.34705925 89.03338051 C55.32662931 86.4987754 55.30791731 83.96415587 55.29092598 81.42952538 C55.26689623 77.88810366 55.23683951 74.34678179 55.20532227 70.80541992 C55.19668907 69.22262238 55.19668907 69.22262238 55.18788147 67.60784912 C55.17809265 66.64451157 55.16830383 65.68117401 55.15821838 64.68864441 C55.15176583 63.85073459 55.14531328 63.01282476 55.1386652 62.14952374 C55.07959624 59.81462296 55.07959624 59.81462296 54 57 C50.41672247 55.99782936 50.41672247 55.99782936 47 57 C46.04268799 59.87193602 45.86476364 61.70426499 45.84178162 64.68864441 C45.82709839 66.13365074 45.82709839 66.13365074 45.81211853 67.60784912 C45.80636307 68.66304749 45.8006076 69.71824585 45.79467773 70.80541992 C45.78477814 71.91776505 45.77487854 73.03011017 45.76467896 74.17616272 C45.73303614 77.86090958 45.70829543 81.54566935 45.68359375 85.23046875 C45.66302663 87.78209269 45.64203023 90.33371319 45.62062073 92.8853302 C45.57102484 98.92008922 45.52576599 104.95486577 45.48259836 110.98967296 C45.43321103 117.86025979 45.37829845 124.73079896 45.32291877 131.6013397 C45.20912558 145.73418373 45.10301015 159.86707347 45 174 C30.15 174 15.3 174 0 174 C0 116.58 0 59.16 0 0 Z " fill="#FFFFFF" transform="translate(822,162)"/>
<path d="M0 0 C6.90035079 5.04158471 11.09560037 10.02296025 12.44069386 18.61280537 C13.01900286 23.83937549 13.26562823 28.98441476 13.26245117 34.2409668 C13.26580978 35.05860001 13.2691684 35.87623322 13.27262878 36.71864319 C13.28204797 39.39447594 13.28407746 42.0702455 13.28515625 44.74609375 C13.2883756 46.6278333 13.29174017 48.5095726 13.29524231 50.39131165 C13.3012114 54.32753071 13.30308455 58.2637279 13.30249023 62.19995117 C13.30238886 67.20813363 13.31602599 72.21617355 13.33326244 77.22432232 C13.34446126 81.11001715 13.34640702 84.9956784 13.34588051 88.88138771 C13.34704936 90.72589419 13.3514085 92.57040186 13.35921288 94.4148922 C13.48247237 126.55920672 13.48247237 126.55920672 5.359375 135.4765625 C-2.5061062 142.91021336 -9.46463644 144.14627791 -20.19140625 143.890625 C-29.79879069 142.99596909 -34.43774659 139.06130767 -41.8828125 132.546875 C-42.2128125 142.116875 -42.5428125 151.686875 -42.8828125 161.546875 C-49.13082336 161.56978013 -55.37868965 161.58970839 -61.62670898 161.60180664 C-63.75399264 161.60684798 -65.88127281 161.61368091 -68.00854492 161.62231445 C-71.05909076 161.63438879 -74.10959095 161.64010514 -77.16015625 161.64453125 C-78.59608376 161.65227318 -78.59608376 161.65227318 -80.0610199 161.66017151 C-80.94185745 161.66024704 -81.82269501 161.66032257 -82.73022461 161.66040039 C-83.8993766 161.66373131 -83.8993766 161.66373131 -85.09214783 161.66712952 C-86.8828125 161.546875 -86.8828125 161.546875 -87.8828125 160.546875 C-87.98184152 158.47357103 -88.00913576 156.39683452 -88.00979614 154.32116699 C-88.01135613 153.6635662 -88.01291612 153.00596541 -88.01452339 152.32843733 C-88.01853516 150.10890987 -88.01534308 147.88944993 -88.01220703 145.66992188 C-88.01356099 144.08520975 -88.0153409 142.50049795 -88.01751709 140.91578674 C-88.02209202 136.59979296 -88.02030162 132.28382297 -88.017138 127.96782875 C-88.01461471 123.46125853 -88.01695186 118.95469041 -88.01852417 114.44812012 C-88.02034596 106.87865837 -88.01793932 99.30920636 -88.01318359 91.73974609 C-88.00774096 82.97549074 -88.00950361 74.21125864 -88.01501 65.44700384 C-88.01954088 57.93620018 -88.0201918 50.42540353 -88.01757133 42.91459894 C-88.01600841 38.42258987 -88.01581518 33.93059175 -88.01910782 29.43858337 C-88.02198616 25.21648502 -88.02001152 20.99441679 -88.01421356 16.7723217 C-88.01288577 15.21823616 -88.01328041 13.66414811 -88.01547623 12.11006355 C-88.01818698 9.99753523 -88.01480756 7.88510499 -88.00979614 5.77258301 C-88.00941912 4.58753426 -88.00904209 3.4024855 -88.00865364 2.18152618 C-87.8828125 -0.453125 -87.8828125 -0.453125 -86.8828125 -1.453125 C-85.47056204 -1.5459976 -84.05372316 -1.57059272 -82.63842773 -1.56665039 C-81.73756943 -1.56657486 -80.83671112 -1.56649933 -79.90855408 -1.56642151 C-78.92939529 -1.56126022 -77.95023651 -1.55609894 -76.94140625 -1.55078125 C-75.94399918 -1.5493663 -74.9465921 -1.54795135 -73.91896057 -1.54649353 C-70.71938126 -1.54087614 -67.51987081 -1.52832071 -64.3203125 -1.515625 C-62.15690205 -1.51061224 -59.99349051 -1.50604895 -57.83007812 -1.50195312 C-52.51429621 -1.49090106 -47.19856604 -1.47362479 -41.8828125 -1.453125 C-41.8828125 1.516875 -41.8828125 4.486875 -41.8828125 7.546875 C-41.25375 7.00417969 -40.6246875 6.46148437 -39.9765625 5.90234375 C-28.5814262 -3.62220542 -13.83497222 -8.29166685 0 0 Z M-41.8828125 24.546875 C-43.2167284 28.7363748 -43.03078132 33.09729306 -43.02807617 37.45483398 C-43.03143478 38.23596558 -43.0347934 39.01709717 -43.03825378 39.82189941 C-43.04772714 42.39560551 -43.04970496 44.96924632 -43.05078125 47.54296875 C-43.05399594 49.33748908 -43.05736018 51.13200915 -43.06086731 52.92652893 C-43.06684924 56.68483081 -43.06870813 60.44310972 -43.06811523 64.20141602 C-43.06801357 69.01096545 -43.081674 73.82036739 -43.09888744 78.62988186 C-43.11001875 82.33511529 -43.11203411 86.04031316 -43.11150551 89.7455616 C-43.1126836 91.51852998 -43.11709577 93.29149935 -43.12483788 95.06445122 C-43.13466219 97.54624584 -43.13175032 100.02772145 -43.12573242 102.50952148 C-43.13135193 103.23750443 -43.13697144 103.96548737 -43.14276123 104.7155304 C-43.11623218 109.03260051 -42.46585326 112.53201324 -40.8828125 116.546875 C-37.59585017 117.34640638 -36.17258058 117.64346436 -32.8828125 116.546875 C-31.26360112 113.30845225 -31.72652914 109.75615544 -31.72167969 106.19750977 C-31.71671478 105.33396881 -31.71174988 104.47042786 -31.70663452 103.58071899 C-31.6919976 100.71656506 -31.68520891 97.85246648 -31.6796875 94.98828125 C-31.673938 93.00292458 -31.66818024 91.01756793 -31.66241455 89.0322113 C-31.65190068 84.86676779 -31.64606031 80.7013436 -31.64257812 76.53588867 C-31.63708783 71.19118848 -31.61304999 65.84674233 -31.58460617 60.50212193 C-31.56601001 56.40068305 -31.56077584 52.29930578 -31.55924225 48.19782829 C-31.55620913 46.2269953 -31.54815855 44.25616356 -31.53505707 42.28537178 C-31.51805709 39.53192759 -31.51986173 36.77910971 -31.52636719 34.02563477 C-31.5171524 33.20734695 -31.50793762 32.38905914 -31.4984436 31.54597473 C-31.43842929 27.425398 -31.43842929 27.425398 -33.15578079 23.81399441 C-36.51749889 21.34750915 -38.68288539 22.41359026 -41.8828125 24.546875 Z " fill="#FFFFFF" transform="translate(1082.8828125,194.453125)"/>
<path d="M0 0 C6.40336929 4.29091756 11.0290183 8.48320443 13.01953125 16.14453125 C15.80287842 30.79283206 15.02704574 46.08874155 14.9921875 60.921875 C14.99031867 63.27698232 14.98889696 65.63209003 14.98789978 67.98719788 C14.98411123 74.1371674 14.9743129 80.2871127 14.9631958 86.43707275 C14.95290226 92.73213371 14.94838526 99.02719865 14.94335938 105.32226562 C14.93268677 117.6380331 14.91512033 129.95377636 14.89453125 142.26953125 C0.04453125 142.26953125 -14.80546875 142.26953125 -30.10546875 142.26953125 C-30.1305249 138.86737305 -30.15558105 135.46521484 -30.18139648 131.95996094 C-30.26479015 120.73216086 -30.35343732 109.50440639 -30.44480801 98.27666855 C-30.50008918 91.46782891 -30.55356276 84.65898403 -30.6027832 77.85009766 C-30.65026885 71.2818955 -30.70278886 64.71374614 -30.7584095 58.14560699 C-30.77882469 55.63694821 -30.79753916 53.12827499 -30.81454277 50.61959076 C-30.8386051 47.11190059 -30.86865746 43.60430993 -30.90014648 40.09667969 C-30.90877968 38.53330116 -30.90877968 38.53330116 -30.91758728 36.93833923 C-30.9273761 35.98204117 -30.93716492 35.0257431 -30.94725037 34.04046631 C-30.95370292 33.21085262 -30.96015547 32.38123894 -30.96680355 31.52648544 C-31.10230265 29.32106363 -31.4952715 27.38832281 -32.10546875 25.26953125 C-34.45080826 24.49996989 -34.45080826 24.49996989 -37.10546875 24.26953125 C-39.27136953 25.83497812 -40.01587646 26.76600551 -40.48743629 29.41626167 C-40.49074644 30.25287268 -40.49405659 31.08948368 -40.49746704 31.95144653 C-40.50856003 32.91333893 -40.51965302 33.87523132 -40.53108215 34.86627197 C-40.52807602 35.91989929 -40.52506989 36.97352661 -40.52197266 38.05908203 C-40.53055801 39.16982086 -40.53914337 40.28055969 -40.54798889 41.42495728 C-40.57313131 45.10498317 -40.57743478 48.7847397 -40.58203125 52.46484375 C-40.59633218 55.01407706 -40.61208753 57.5633026 -40.62924194 60.11251831 C-40.66688279 66.14256753 -40.69198882 72.17253439 -40.71036661 78.20266235 C-40.74574741 89.64944465 -40.80941033 101.09607845 -40.87522507 112.54272079 C-40.89439226 116.31250729 -40.9060675 120.08226204 -40.91665649 123.8520813 C-40.92686292 126.14764476 -40.93722036 128.44320755 -40.94775391 130.73876953 C-40.9493174 132.3252832 -40.9493174 132.3252832 -40.95091248 133.94384766 C-40.95636581 134.9001004 -40.96181915 135.85635315 -40.96743774 136.84158325 C-40.96999384 137.6774402 -40.97254993 138.51329716 -40.97518349 139.37448311 C-41.10546875 141.26953125 -41.10546875 141.26953125 -42.10546875 142.26953125 C-56.62546875 142.26953125 -71.14546875 142.26953125 -86.10546875 142.26953125 C-86.10546875 95.07953125 -86.10546875 47.88953125 -86.10546875 -0.73046875 C-71.25546875 -0.73046875 -56.40546875 -0.73046875 -41.10546875 -0.73046875 C-40.61046875 3.22953125 -40.61046875 3.22953125 -40.10546875 7.26953125 C-39.15671875 6.36203125 -38.20796875 5.45453125 -37.23046875 4.51953125 C-27.29966711 -3.8120757 -11.71707512 -6.34021464 0 0 Z " fill="#FFFFFF" transform="translate(513.10546875,193.73046875)"/>
<path d="M0 0 C9.44935686 7.46777596 14.38840037 17.21654668 16 29 C16.28080221 34.14441888 16.28234202 39.27981022 16.265625 44.4296875 C16.26697613 45.91122501 16.26892037 47.39276208 16.27142334 48.8742981 C16.27435541 51.96555847 16.27014046 55.05670249 16.26074219 58.14794922 C16.2493689 62.07681017 16.25590586 66.00539712 16.26788712 69.93424797 C16.27517508 72.99034625 16.27278594 76.04638148 16.26763153 79.10248184 C16.26631308 80.5495113 16.26787816 81.9965468 16.27259064 83.44356918 C16.3110052 98.55383889 15.03164593 111.91613876 5.6875 124.375 C-7.56166298 137.31604291 -23.21652384 138.39155893 -40.78125 138.21484375 C-52.48707403 137.93338651 -62.56116219 135.39065491 -71.6875 127.75 C-83.19050869 114.07074642 -84.1521813 99.82539628 -84.16796875 82.48828125 C-84.17129715 81.20245651 -84.17462555 79.91663177 -84.17805481 78.59184265 C-84.18400912 75.87966065 -84.18589863 73.16751033 -84.18530273 70.45532227 C-84.18520152 67.02100076 -84.19882829 63.58688786 -84.21607494 60.15261555 C-84.23003244 56.82700209 -84.229288 53.50142346 -84.23046875 50.17578125 C-84.23765427 48.96384598 -84.24483978 47.75191071 -84.25224304 46.50325012 C-84.21005223 30.44305019 -82.80965595 13.9496914 -71 2 C-51.99477705 -13.82591056 -20.04138941 -13.58738265 0 0 Z M-37.15515137 18.47644043 C-39.72570916 21.99269406 -39.56038978 25.18484513 -39.51757812 29.37695312 C-39.5245874 30.2196727 -39.53159668 31.06239227 -39.53881836 31.9306488 C-39.55641445 34.71451836 -39.54477009 37.49737022 -39.53125 40.28125 C-39.53394445 42.21651403 -39.53782649 44.15177674 -39.54284668 46.08703613 C-39.54874391 50.14230238 -39.5401715 54.19721614 -39.52148438 58.25244141 C-39.49869474 63.45142932 -39.51181661 68.64959129 -39.53577423 73.84854889 C-39.5502261 77.84456611 -39.54562902 81.84038741 -39.53526306 85.83641052 C-39.53259409 87.75337319 -39.53587152 89.67035362 -39.54518127 91.58729553 C-39.55533682 94.26635883 -39.53986027 96.94408334 -39.51757812 99.62304688 C-39.52567505 100.41589584 -39.53377197 101.20874481 -39.54211426 102.02561951 C-39.48719796 105.58833871 -39.27630288 107.62484824 -37.13562012 110.53137207 C-35.06204055 112.27414799 -35.06204055 112.27414799 -32.3125 111.875 C-29.83572904 111.23669149 -29.83572904 111.23669149 -29 109 C-28.87276481 106.58741602 -28.80390095 104.20149731 -28.77880859 101.78735352 C-28.7673027 101.04395218 -28.75579681 100.30055084 -28.74394226 99.53462219 C-28.70713955 97.06609263 -28.67754271 94.59753775 -28.6484375 92.12890625 C-28.62531187 90.40933383 -28.60192145 88.68976496 -28.57827759 86.97019958 C-28.5297518 83.35622407 -28.48485039 79.74222544 -28.44238281 76.12817383 C-28.38791525 71.52187537 -28.324 66.91576651 -28.25720787 62.3096323 C-28.20679133 58.75179295 -28.16180966 55.19389988 -28.11836624 51.63596916 C-28.09695855 49.93968385 -28.07383819 48.24341918 -28.0489006 46.54718208 C-26.63961399 31.64295259 -26.63961399 31.64295259 -30.35580444 18.21510315 C-33.01724282 16.24823118 -34.52275908 16.67305415 -37.15515137 18.47644043 Z " fill="#FFFFFF" transform="translate(686,200)"/>
<path d="M0 0 C1.06927734 -0.020625 2.13855469 -0.04125 3.24023438 -0.0625 C16.08090922 -0.12456973 26.88306 3.12444727 37.6875 10 C45.33309949 17.64559949 47.19479627 24.74604728 47.9375 35.25 C47.9375 39.87 47.9375 44.49 47.9375 49.25 C34.7375 49.25 21.5375 49.25 7.9375 49.25 C7.6075 43.64 7.2775 38.03 6.9375 32.25 C6.4425 30.27 6.4425 30.27 5.9375 28.25 C3.08671909 27.48283149 3.08671909 27.48283149 -0.0625 27.25 C-1.8857718 28.23673668 -1.8857718 28.23673668 -3.0625 30.25 C-3.54090243 33.50672458 -3.54090243 33.50672458 -3.4375 37.125 C-3.44523437 38.33929688 -3.45296875 39.55359375 -3.4609375 40.8046875 C-3.02334694 44.58855879 -2.45376992 46.30804344 -0.0625 49.25 C2.09612269 50.8138409 4.13342012 52.13413342 6.4375 53.4375 C7.08678467 53.81841797 7.73606934 54.19933594 8.4050293 54.59179688 C12.94923813 57.22178246 17.59374244 59.62083456 22.27685547 61.99194336 C33.25529731 67.57653475 43.55024527 73.54838158 48.9375 85.25 C50.61683245 90.57169929 50.20022284 96.24226917 50.23266602 101.76489258 C50.24411682 103.11753864 50.26445806 104.47014202 50.29418945 105.82250977 C50.53099775 116.61647016 49.61657471 125.84457723 42.8125 134.5625 C33.16218274 144.5611302 21.66371987 147.29634821 8.1887207 147.6015625 C-6.59941705 147.71025718 -18.31445301 146.33096538 -31.0625 138.25 C-32.01125 137.651875 -32.96 137.05375 -33.9375 136.4375 C-45.07113849 124.97640156 -44.0625 109.0958497 -44.0625 94.25 C-30.8625 94.25 -17.6625 94.25 -4.0625 94.25 C-3.6875 103.9375 -3.6875 103.9375 -3.58447266 106.96362305 C-3.35607715 113.35389223 -3.35607715 113.35389223 -1.0625 119.25 C1.2941226 120.33805146 1.2941226 120.33805146 3.9375 120.25 C5.29164909 119.62670033 6.62955572 118.96519506 7.9375 118.25 C8.07289281 115.35259378 8.17176829 112.46154379 8.25 109.5625 C8.3128418 108.33756836 8.3128418 108.33756836 8.37695312 107.08789062 C8.45975192 102.99763007 8.400269 100.89990467 5.9765625 97.49609375 C2.14103589 94.66135364 -1.8305366 92.30636155 -6 90 C-7.70576803 89.03230782 -9.41018553 88.06223138 -11.11328125 87.08984375 C-11.95197754 86.61144043 -12.79067383 86.13303711 -13.65478516 85.64013672 C-39.47725356 70.7310782 -39.47725356 70.7310782 -43.73828125 57.0859375 C-46.93107014 44.09758543 -46.28926024 27.86006716 -40.375 15.8125 C-29.14311954 3.36636219 -16.32912836 0.07679778 0 0 Z " fill="#FFFFFF" transform="translate(1150.0625,190.75)"/>
<path d="M0 0 C9.64157584 7.15289558 13.82289431 14.13439486 16.03515625 25.8203125 C16.16317627 26.48216553 16.29119629 27.14401855 16.4230957 27.82592773 C17.61917991 34.95438731 17.28515625 41.19131108 17.28515625 48.6953125 C3.42515625 48.6953125 -10.43484375 48.6953125 -24.71484375 48.6953125 C-25.15234375 37.0703125 -25.15234375 37.0703125 -25.28295898 33.43896484 C-25.34012085 31.999646 -25.34012085 31.999646 -25.3984375 30.53125 C-25.45342407 29.07017822 -25.45342407 29.07017822 -25.50952148 27.57958984 C-25.72377663 24.5698273 -26.17415732 21.66235334 -26.71484375 18.6953125 C-29.05796505 18.95092573 -31.39327778 19.28802022 -33.71484375 19.6953125 C-35.2744835 22.814592 -34.86212158 26.12987826 -34.86010742 29.55395508 C-34.86346603 30.36551559 -34.86682465 31.17707611 -34.87028503 32.01322937 C-34.87981063 34.70544959 -34.8817391 37.39760771 -34.8828125 40.08984375 C-34.88602449 41.95830817 -34.88938852 43.82677233 -34.89289856 45.69523621 C-34.89889423 49.61689843 -34.90073806 53.5385386 -34.90014648 57.46020508 C-34.90004496 62.48404843 -34.9136854 67.50775014 -34.93091869 72.53155994 C-34.94204218 76.39288481 -34.94406557 80.25417551 -34.94353676 84.11551476 C-34.9447168 85.96745987 -34.94913994 87.81940586 -34.95686913 89.67133522 C-34.96667387 92.2638194 -34.96378881 94.85599714 -34.95776367 97.44848633 C-34.96338318 98.2128299 -34.96900269 98.97717346 -34.97479248 99.76467896 C-34.95085798 103.82047119 -34.70487721 107.11293184 -32.71484375 110.6953125 C-30.3213288 111.85741469 -30.3213288 111.85741469 -27.71484375 111.6953125 C-24.90435177 109.78819294 -24.33743657 107.92907817 -23.71484375 104.6953125 C-23.56756415 102.5258717 -23.46758905 100.35302197 -23.3984375 98.1796875 C-23.36032959 97.05272461 -23.32222168 95.92576172 -23.28295898 94.76464844 C-23.23985596 93.33926758 -23.19675293 91.91388672 -23.15234375 90.4453125 C-23.00796875 85.9078125 -22.86359375 81.3703125 -22.71484375 76.6953125 C-9.51484375 76.6953125 3.68515625 76.6953125 17.28515625 76.6953125 C17.28515625 113.2893887 17.28515625 113.2893887 4.59765625 127.1953125 C-5.72256595 136.53361064 -18.02335044 139.08140115 -31.46484375 139.0078125 C-32.53234863 139.00217285 -33.59985352 138.9965332 -34.69970703 138.99072266 C-47.5384869 138.79253883 -58.27176241 136.53316058 -67.97265625 127.62109375 C-80.68466229 114.18201725 -80.85640174 96.6942401 -80.91796875 79.15625 C-80.92366882 77.87658356 -80.9293689 76.59691711 -80.9352417 75.2784729 C-80.94567486 72.58066418 -80.95156704 69.88288457 -80.95507812 67.18505859 C-80.95945541 64.45250034 -80.97333275 61.72025914 -80.99609375 58.98779297 C-81.34093674 16.75518587 -81.34093674 16.75518587 -70.58984375 5.0703125 C-52.0968931 -12.23719259 -20.89823249 -13.5243846 0 0 Z " fill="#FFFFFF" transform="translate(793.71484375,199.3046875)"/>
<path d="M0 0 C1.92875977 0.01353516 1.92875977 0.01353516 3.89648438 0.02734375 C7.0352383 0.05068021 10.17389493 0.08654194 13.3125 0.125 C13.3125 8.045 13.3125 15.965 13.3125 24.125 C4.8975 24.62 4.8975 24.62 -3.6875 25.125 C-4.0175 28.425 -4.3475 31.725 -4.6875 35.125 C1.2525 35.125 7.1925 35.125 13.3125 35.125 C13.3125 43.045 13.3125 50.965 13.3125 59.125 C10.0125 59.125 6.7125 59.125 3.3125 59.125 C3.3125 97.075 3.3125 135.025 3.3125 174.125 C-11.5375 174.125 -26.3875 174.125 -41.6875 174.125 C-41.6875 136.175 -41.6875 98.225 -41.6875 59.125 C-44.3275 59.125 -46.9675 59.125 -49.6875 59.125 C-50.6875 58.125 -50.6875 58.125 -50.80102539 55.90014648 C-50.79578857 54.94180908 -50.79055176 53.98347168 -50.78515625 52.99609375 C-50.78193359 51.96162109 -50.77871094 50.92714844 -50.77539062 49.86132812 C-50.76282227 48.2284082 -50.76282227 48.2284082 -50.75 46.5625 C-50.74548828 45.47001953 -50.74097656 44.37753906 -50.73632812 43.25195312 C-50.72449826 40.54291505 -50.70801543 37.83398401 -50.6875 35.125 C-47.7175 35.125 -44.7475 35.125 -41.6875 35.125 C-41.71070313 34.29097656 -41.73390625 33.45695312 -41.7578125 32.59765625 C-42.05400158 14.12815173 -42.05400158 14.12815173 -35.6875 7.125 C-24.82652551 -0.15610021 -12.65732758 -0.17060162 0 0 Z " fill="#FFFFFF" transform="translate(583.6875,161.875)"/>
<path d="M0 0 C15.18 0 30.36 0 46 0 C46 47.19 46 94.38 46 143 C30.82 143 15.64 143 0 143 C0 95.81 0 48.62 0 0 Z " fill="#FFFFFF" transform="translate(936,193)"/>
<path d="M0 0 C1.485 1.2065625 1.485 1.2065625 3 2.4375 C3.61875 1.81875 4.2375 1.2 4.875 0.5625 C9.56794323 -2.62870139 14.59151446 -4.06940298 20.28515625 -3.22265625 C24.13426646 -2.0067691 25.81206355 -0.78898752 28.4375 2.375 C30.96830151 7.33537097 31.13823775 11.53365105 31.09765625 17.046875 C31.0962413 17.77368469 31.09482635 18.50049438 31.09336853 19.24932861 C31.08778792 21.56209494 31.07523904 23.87476312 31.0625 26.1875 C31.05748249 27.75911318 31.05292002 29.33072789 31.04882812 30.90234375 C31.03782485 34.74743343 31.02057361 38.5924501 31 42.4375 C28.03 42.4375 25.06 42.4375 22 42.4375 C21.970271 41.27347656 21.970271 41.27347656 21.93994141 40.0859375 C21.84410122 36.53614413 21.73466196 32.98689219 21.625 29.4375 C21.5940625 28.21675781 21.563125 26.99601562 21.53125 25.73828125 C21.77699935 15.48223758 21.77699935 15.48223758 18 6.4375 C15.07172641 6.14947309 12.84763742 5.93334629 10 6.4375 C5.41945524 10.78314503 4.87653975 14.76388786 4.68359375 20.85546875 C4.62075195 22.73588867 4.62075195 22.73588867 4.55664062 24.65429688 C4.51732422 25.96462891 4.47800781 27.27496094 4.4375 28.625 C4.39429008 29.96029978 4.350675 31.29558652 4.30664062 32.63085938 C4.20043498 35.89963297 4.09839003 39.16848333 4 42.4375 C1.03 42.4375 -1.94 42.4375 -5 42.4375 C-5.01458252 41.52460205 -5.02916504 40.6117041 -5.04418945 39.67114258 C-5.10540795 36.26951389 -5.17958873 32.86867319 -5.26245117 29.4675293 C-5.29561259 27.99823578 -5.32367178 26.52881756 -5.34643555 25.05932617 C-5.38014519 22.94135632 -5.43246433 20.82452005 -5.48828125 18.70703125 C-5.51446533 17.43448486 -5.54064941 16.16193848 -5.56762695 14.85083008 C-6.02649686 11.22832291 -6.7116003 9.26704166 -9 6.4375 C-12.45728358 5.68738633 -12.45728358 5.68738633 -16 6.4375 C-18.36497439 8.30458505 -19.66030715 9.75811431 -21 12.4375 C-21.15495763 14.68724161 -21.25010928 16.94121536 -21.31640625 19.1953125 C-21.33718735 19.85836395 -21.35796844 20.52141541 -21.37937927 21.20455933 C-21.44479231 23.32376694 -21.50372105 25.443099 -21.5625 27.5625 C-21.60569309 28.99871081 -21.64930764 30.43490902 -21.69335938 31.87109375 C-21.80046499 35.39309594 -21.90175575 38.91523825 -22 42.4375 C-24.97 42.4375 -27.94 42.4375 -31 42.4375 C-31.02464455 36.18953746 -31.04283343 29.94160297 -31.05493164 23.69360352 C-31.05997298 21.56631986 -31.06680591 19.43903969 -31.07543945 17.31176758 C-31.08751379 14.26122174 -31.09323014 11.21072155 -31.09765625 8.16015625 C-31.10281754 7.20287125 -31.10797882 6.24558624 -31.11329651 5.2592926 C-31.11337204 4.37845505 -31.11344757 3.49761749 -31.11352539 2.59008789 C-31.115746 1.81065323 -31.11796661 1.03121857 -31.12025452 0.22816467 C-31 -1.5625 -31 -1.5625 -30 -2.5625 C-26.5625 -2.8125 -26.5625 -2.8125 -23 -2.5625 C-22.34 -1.5725 -21.68 -0.5825 -21 0.4375 C-20.2575 -0.036875 -19.515 -0.51125 -18.75 -1 C-12.34434387 -4.63957734 -5.99996579 -4.29612155 0 0 Z " fill="#FFFFFF" transform="translate(984,388.5625)"/>
<path d="M0 0 C3.3 0 6.6 0 10 0 C10.2673999 0.81267334 10.5347998 1.62534668 10.81030273 2.46264648 C11.80123307 5.46946639 12.79483725 8.47538521 13.7902832 11.48071289 C14.22105089 12.78309049 14.65074225 14.08582458 15.0793457 15.38891602 C15.69461363 17.25890373 16.31404059 19.12752142 16.93359375 20.99609375 C17.4913147 22.68496704 17.4913147 22.68496704 18.06030273 24.40795898 C18.75540376 26.8966603 18.75540376 26.8966603 20 28 C20.2673999 27.18732666 20.5347998 26.37465332 20.81030273 25.53735352 C21.80123307 22.53053361 22.79483725 19.52461479 23.7902832 16.51928711 C24.22105089 15.21690951 24.65074225 13.91417542 25.0793457 12.61108398 C25.69461363 10.74109627 26.31404059 8.87247858 26.93359375 7.00390625 C27.30540771 5.87799072 27.67722168 4.7520752 28.06030273 3.59204102 C29 1 29 1 30 0 C32.33297433 -0.04092937 34.66705225 -0.04241723 37 0 C39.36931069 6.09048033 41.34275032 12.23240601 43.1875 18.5 C43.46013672 19.4178125 43.73277344 20.335625 44.01367188 21.28125 C44.67832828 23.52009261 45.34038246 25.7596687 46 28 C49.85652645 18.84043358 52.91504362 9.43996652 56 0 C58.97 0 61.94 0 65 0 C64.39179974 5.65133102 62.93806529 10.64390305 61.05859375 15.99609375 C60.77146011 16.82963882 60.48432648 17.6631839 60.18849182 18.52198792 C59.27737828 21.16257052 58.35759112 23.80003387 57.4375 26.4375 C56.81517809 28.23612855 56.19342733 30.03495482 55.57226562 31.83398438 C54.05477528 36.22497135 52.52950301 40.61318366 51 45 C48.03 45 45.06 45 42 45 C40.65958897 40.89811052 39.32888808 36.79313564 38 32.6875 C37.6184375 31.52025391 37.236875 30.35300781 36.84375 29.15039062 C36.30234375 27.47299805 36.30234375 27.47299805 35.75 25.76171875 C35.41484375 24.73006592 35.0796875 23.69841309 34.734375 22.63549805 C34 20 34 20 34 17 C33.34 17 32.68 17 32 17 C31.73445312 18.27746094 31.46890625 19.55492187 31.1953125 20.87109375 C30.04748153 26.03633313 28.50616359 31.03242854 26.875 36.0625 C26.45927734 37.3609082 26.45927734 37.3609082 26.03515625 38.68554688 C25.36031889 40.79150483 24.68066893 42.89591964 24 45 C21.03 45 18.06 45 15 45 C0 3.28384279 0 3.28384279 0 0 Z " fill="#FFFFFF" transform="translate(759,386)"/>
<path d="M0 0 C3.63 0 7.26 0 11 0 C13.743565 7.76928585 16.48209131 15.54032113 19.21417999 23.31364918 C20.48291825 26.9229513 21.75339181 30.53162291 23.02783203 34.13891602 C24.25737455 37.61932941 25.48235729 41.10131645 26.70417786 44.58444786 C27.17142766 45.91389877 27.64032532 47.24277169 28.11088562 48.57105446 C28.76902168 50.42970806 29.42079287 52.29061172 30.07226562 54.15161133 C30.44532837 55.21084305 30.81839111 56.27007477 31.20275879 57.36140442 C32 60 32 60 32 63 C28.7 63 25.4 63 22 63 C21.57847656 61.85660156 21.15695312 60.71320313 20.72265625 59.53515625 C20.16941479 58.04421741 19.61602153 56.55333489 19.0625 55.0625 C18.64581055 53.93038086 18.64581055 53.93038086 18.22070312 52.77539062 C17.08246549 49.11220861 17.08246549 49.11220861 15 46 C13.5112814 45.91330568 12.018555 45.89296506 10.52734375 45.90234375 C9.17866211 45.90717773 9.17866211 45.90717773 7.80273438 45.91210938 C6.85720703 45.92048828 5.91167969 45.92886719 4.9375 45.9375 C3.98810547 45.94201172 3.03871094 45.94652344 2.06054688 45.95117188 C-0.29303065 45.9629989 -2.64648477 45.97947975 -5 46 C-5.27642334 46.69617432 -5.55284668 47.39234863 -5.83764648 48.10961914 C-7.82298812 53.105043 -9.85666432 58.07032793 -12 63 C-15.3 63 -18.6 63 -22 63 C-19.78711493 55.36786771 -17.25003265 47.90236871 -14.55078125 40.4296875 C-14.13330124 39.26744659 -13.71582123 38.10520569 -13.28569031 36.90774536 C-11.96374407 33.22927684 -10.63818207 29.5521236 -9.3125 25.875 C-8.41027197 23.36737968 -7.50887227 20.85946259 -6.60742188 18.3515625 C-4.40769513 12.2333829 -2.2047267 6.11637952 0 0 Z M4 15 C1.69 22.26 -0.62 29.52 -3 37 C2.28 37 7.56 37 13 37 C11.04910592 29.48905779 8.76288395 22.25081726 6 15 C5.34 15 4.68 15 4 15 Z " fill="#FFFFFF" transform="translate(502,368)"/>
<path d="M0 0 C3.63 0 7.26 0 11 0 C13.59568052 7.32639967 16.18712126 14.65426607 18.77121639 21.98475838 C19.97140375 25.38888463 21.17340542 28.79234684 22.37963867 32.19433594 C23.54460489 35.48015387 24.7046935 38.76765693 25.86148262 42.05636215 C26.51676944 43.91531474 27.17703824 45.77250874 27.83738708 47.62966919 C28.43789635 49.3407637 28.43789635 49.3407637 29.05053711 51.08642578 C29.40361435 52.08570099 29.75669159 53.0849762 30.12046814 54.11453247 C31.02029969 57.06659691 31.56125378 59.9481618 32 63 C28.7 63 25.4 63 22 63 C19.03 54.585 19.03 54.585 16 46 C9.07 46 2.14 46 -5 46 C-6.93257638 51.21946973 -6.93257638 51.21946973 -8.85913086 56.44116211 C-10.88888889 61.88888889 -10.88888889 61.88888889 -12 63 C-15.33327842 63.1424478 -18.66453893 63.04222103 -22 63 C-19.8134065 55.36371088 -17.24875255 47.89882485 -14.55078125 40.4296875 C-14.13330124 39.26744659 -13.71582123 38.10520569 -13.28569031 36.90774536 C-11.96374407 33.22927684 -10.63818207 29.5521236 -9.3125 25.875 C-8.41027197 23.36737968 -7.50887227 20.85946259 -6.60742188 18.3515625 C-4.40769513 12.2333829 -2.2047267 6.11637952 0 0 Z M5 14 C1.80423938 21.53043593 -0.66483586 29.16052038 -3 37 C2.28 37 7.56 37 13 37 C12.33007518 33.65037589 11.66670403 30.75897575 10.58984375 27.57421875 C10.18862305 26.38022461 10.18862305 26.38022461 9.77929688 25.16210938 C9.36260742 23.93717773 9.36260742 23.93717773 8.9375 22.6875 C8.65583984 21.85154297 8.37417969 21.01558594 8.08398438 20.15429688 C7.39204818 18.10194376 6.69639291 16.05084517 6 14 C5.67 14 5.34 14 5 14 Z " fill="#FFFFFF" transform="translate(619,368)"/>
<path d="M0 0 C3.65152599 2.67918478 6.47969327 5.2195399 9 9 C8.9375 11 8.9375 11 8 13 C5.625 14.8125 5.625 14.8125 3 16 C0 15 0 15 -1.8125 12.125 C-4.38840454 8.44513637 -5.74268948 7.39330162 -10 6 C-16.04171417 5.36028909 -21.01197367 5.13830219 -26 9 C-26.66 9 -27.32 9 -28 9 C-33.07506372 18.907407 -35.00603271 29.050745 -31.8125 40 C-29.83000473 45.12066315 -26.5084572 47.99436186 -22 51 C-16.5738758 52.42342114 -11.87090768 52.25468762 -6.72265625 50.0234375 C-4.11609913 48.47487069 -2.63589405 46.51676008 -1 44 C-0.34 43.01 0.32 42.02 1 41 C3.97 41.99 6.94 42.98 10 44 C8.52840756 50.70392114 4.56415579 54.58853745 -0.96875 58.33203125 C-8.37413724 62.24196518 -16.78496242 62.08317837 -24.83984375 60.41015625 C-32.25394389 57.93117361 -37.27759931 52.75474843 -41.125 46.03515625 C-45.34180074 36.77035846 -45.60524077 24.64599441 -42.375 15.0625 C-38.62205921 6.26204999 -33.89831407 0.76964941 -25 -3 C-16.51543264 -5.69570776 -7.49546353 -4.69543405 0 0 Z " fill="#FFFFFF" transform="translate(888,371)"/>
<path d="M0 0 C6.16384622 6.91553479 7.6476731 13.66413729 7.5625 22.875 C7.04795096 29.84878164 4.42314954 34.87346207 -0.4375 39.875 C-5.07424109 43.40775512 -9.80948661 43.26117161 -15.4375 43.37109375 C-18.4375 42.875 -18.4375 42.875 -24.4375 38.875 C-24.7675 45.475 -25.0975 52.075 -25.4375 58.875 C-28.4075 58.875 -31.3775 58.875 -34.4375 58.875 C-34.4375 38.415 -34.4375 17.955 -34.4375 -3.125 C-31.7975 -3.125 -29.1575 -3.125 -26.4375 -3.125 C-25.7775 -2.135 -25.1175 -1.145 -24.4375 -0.125 C-23.3546875 -0.8365625 -23.3546875 -0.8365625 -22.25 -1.5625 C-15.48316368 -5.32185351 -6.27713131 -4.73987466 0 0 Z M-22.4375 6.875 C-25.88301468 11.42990641 -27.05046246 16.04522576 -26.7578125 21.703125 C-26.06476923 26.40229642 -24.41039938 29.75902719 -21.3125 33.3125 C-17.29816499 35.49420381 -13.91156984 35.67887099 -9.4375 34.875 C-5.31492492 32.50671219 -3.88631406 30.31040446 -2.4375 25.875 C-1.77193835 19.45276226 -1.54291826 13.299596 -5.4375 7.875 C-10.34497943 2.79225345 -16.9264114 2.83353503 -22.4375 6.875 Z " fill="#FFFFFF" transform="translate(1059.4375,389.125)"/>
<path d="M0 0 C1.02722168 -0.02779541 1.02722168 -0.02779541 2.07519531 -0.05615234 C7.14200609 0.00623475 10.08987955 1.25267695 13.9375 4.5 C16.33816027 8.06469477 16.24783188 11.45349663 16.3515625 15.671875 C16.37092865 16.3542926 16.3902948 17.03671021 16.4102478 17.73980713 C16.46981098 19.90974608 16.51633446 22.07973877 16.5625 24.25 C16.60070131 25.72528297 16.6397543 27.20054415 16.6796875 28.67578125 C16.77549235 32.28365418 16.85960916 35.89169083 16.9375 39.5 C18.2575 39.5 19.5775 39.5 20.9375 39.5 C20.9375 41.81 20.9375 44.12 20.9375 46.5 C19.5004191 46.55422947 18.06274538 46.59289723 16.625 46.625 C15.82449219 46.64820313 15.02398438 46.67140625 14.19921875 46.6953125 C11.9375 46.5 11.9375 46.5 8.9375 44.5 C8.9375 43.84 8.9375 43.18 8.9375 42.5 C8.050625 43.16 7.16375 43.82 6.25 44.5 C0.85418855 47.58332083 -5.0465993 47.26650472 -11.0625 46.5 C-15.54342 44.41405449 -18.21651065 42.11497339 -20.0625 37.5 C-20.61437637 33.29194267 -20.48836352 29.69774115 -19.0625 25.6875 C-12.7080401 18.73730948 -2.87734547 18.01505157 5.9375 16.5 C5.9375 14.52 5.9375 12.54 5.9375 10.5 C2.53105158 8.08709904 -0.29088294 8.394314 -4.2265625 9.0234375 C-6.64051196 9.65003715 -7.73055542 10.38455861 -9.0625 12.5 C-9.3925 13.82 -9.7225 15.14 -10.0625 16.5 C-13.0325 16.5 -16.0025 16.5 -19.0625 16.5 C-19.41649338 12.78306946 -19.18689143 10.74878287 -17.5 7.375 C-12.21214718 1.13804539 -7.97921075 0.13594748 0 0 Z M-2.0625 25.75 C-3.6403125 26.09804688 -3.6403125 26.09804688 -5.25 26.453125 C-8.42141396 27.63359575 -9.50663784 28.52211329 -11.0625 31.5 C-10.48027706 34.73457187 -9.93131611 36.73143191 -7.4375 38.9375 C-2.80942902 40.03362207 1.3240903 39.42771058 5.4375 37.0625 C7.78240608 33.05661878 7.24882478 29.03150506 6.9375 24.5 C3.729447 24.5 1.06205354 25.03012737 -2.0625 25.75 Z " fill="#FFFFFF" transform="translate(1092.0625,385.5)"/>
<path d="M0 0 C15.18 0 30.36 0 46 0 C46 7.92 46 15.84 46 24 C30.82 24 15.64 24 0 24 C0 16.08 0 8.16 0 0 Z " fill="#FFFFFF" transform="translate(936,162)"/>
<path d="M0 0 C5.63117845 6.8166897 6.81536732 14.41234101 6 23 C4.75573371 29.9339567 1.69370204 34.80525217 -4 39 C-10.49164885 42.27310026 -18.51113092 42.03373899 -25.375 40 C-31.3315522 35.46167452 -35.82148693 30.59486199 -37 23 C-37.72547345 14.93918386 -36.55330079 8.10351913 -32.25 1.1875 C-22.96290479 -7.84162035 -9.93372525 -8.35694346 0 0 Z M-24.25 5.9375 C-28.073868 10.44420157 -27.32386957 15.97631522 -27.2890625 21.59765625 C-26.90937247 26.06671048 -26.08805056 27.82371943 -23 31 C-18.97297943 33.68468038 -15.7315637 33.68187737 -11 33 C-7.40179412 30.85638798 -5.51077418 28.86599855 -4 25 C-2.95451603 15.76164721 -2.95451603 15.76164721 -5.875 7.25 C-11.57250237 1.21735043 -17.72305899 0.31707857 -24.25 5.9375 Z " fill="#FFFFFF" transform="translate(939,391)"/>
<path d="M0 0 C4.6343685 4.16071561 6.69628019 9.3450579 7.15234375 15.484375 C7.27498699 23.37442352 6.44189003 28.68786902 2.26171875 35.5 C-2.79715959 40.4221519 -7.49188149 42.01803836 -14.55078125 42.3125 C-21.60136303 42.07584853 -25.52001373 40.04538302 -30.57421875 35.328125 C-35.68801299 29.8300572 -36.48925121 23.43839703 -36.29296875 16.23046875 C-35.63220011 9.46291892 -32.75167926 4.39288145 -28.1328125 -0.546875 C-19.42754095 -7.66788512 -8.57744991 -6.22725858 0 0 Z M-21.05078125 4.75 C-26.14932171 10.41504495 -26.33555595 14.06176534 -26.26953125 21.5390625 C-25.94351694 26.32448683 -24.50689551 29.06986817 -21.42578125 32.625 C-17.66493901 34.40645159 -14.12816174 34.37728931 -10.05078125 33.75 C-6.14411858 31.79666867 -4.72159416 29.50984369 -3.17578125 25.5625 C-1.46514441 19.66274681 -1.77398373 14.41966755 -4.42578125 8.875 C-4.96203125 8.17375 -5.49828125 7.4725 -6.05078125 6.75 C-6.46328125 6.1725 -6.87578125 5.595 -7.30078125 5 C-11.57781183 1.94497816 -16.66851571 2.1443286 -21.05078125 4.75 Z " fill="#FFFFFF" transform="translate(750.05078125,390.25)"/>
<path d="M0 0 C3.30486698 2.61635302 5.5099052 5.07179192 7 9 C7.1683504 11.71894955 7.23294575 14.33103955 7.1953125 17.046875 C7.1924826 17.81807678 7.18965271 18.58927856 7.18673706 19.3838501 C7.17557013 21.83939332 7.15047229 24.2945676 7.125 26.75 C7.11496568 28.41796347 7.10584061 30.08593268 7.09765625 31.75390625 C7.07564225 35.83607897 7.04113667 39.917977 7 44 C4.03 44 1.06 44 -2 44 C-2.01981934 43.08186523 -2.03963867 42.16373047 -2.06005859 41.21777344 C-2.13826955 37.80328175 -2.22496584 34.38922298 -2.31738281 30.97509766 C-2.35560666 29.49894464 -2.39047103 28.02270057 -2.421875 26.54638672 C-2.46766986 24.42121906 -2.52563837 22.29667458 -2.5859375 20.171875 C-2.63306885 18.2552002 -2.63306885 18.2552002 -2.68115234 16.29980469 C-2.97511752 13.25751274 -3.29775581 11.500053 -5 9 C-8.15796107 7.42101947 -11.60670636 7.18071829 -15 8 C-18.33055827 10.67128722 -19.83887346 12.1659718 -20.65942383 16.41333008 C-20.67513428 17.68587646 -20.69084473 18.95842285 -20.70703125 20.26953125 C-20.72215256 20.95053391 -20.73727386 21.63153656 -20.75285339 22.33317566 C-20.79560078 24.49329063 -20.80455435 26.65200493 -20.8125 28.8125 C-20.83565489 30.28324002 -20.86102231 31.75394698 -20.88867188 33.22460938 C-20.9513916 36.81637971 -20.98383125 40.40768404 -21 44 C-24.3 44 -27.6 44 -31 44 C-31.02464455 37.75203746 -31.04283343 31.50410297 -31.05493164 25.25610352 C-31.05997298 23.12881986 -31.06680591 21.00153969 -31.07543945 18.87426758 C-31.08751379 15.82372174 -31.09323014 12.77322155 -31.09765625 9.72265625 C-31.10281754 8.76537125 -31.10797882 7.80808624 -31.11329651 6.8217926 C-31.11337204 5.94095505 -31.11344757 5.06011749 -31.11352539 4.15258789 C-31.115746 3.37315323 -31.11796661 2.59371857 -31.12025452 1.79066467 C-31 0 -31 0 -30 -1 C-24.1589404 -1.37086093 -24.1589404 -1.37086093 -22 -1 C-21.34 -0.01 -20.68 0.98 -20 2 C-18.9171875 1.2884375 -18.9171875 1.2884375 -17.8125 0.5625 C-11.80586516 -2.77451936 -6.35507643 -2.13229538 0 0 Z " fill="#FFFFFF" transform="translate(1150,387)"/>
<path d="M0 0 C5.95703125 -0.48828125 5.95703125 -0.48828125 8 0 C10.41410818 3.47342388 11.78548611 6.93720968 13.04296875 10.95703125 C13.39423828 12.06884766 13.74550781 13.18066406 14.10742188 14.32617188 C14.64206055 16.0519043 14.64206055 16.0519043 15.1875 17.8125 C15.55552734 18.98232422 15.92355469 20.15214844 16.30273438 21.35742188 C17.20759612 24.23652743 18.10646223 27.11736394 19 30 C19.29245605 29.12674072 19.58491211 28.25348145 19.88623047 27.35375977 C20.97244322 24.12205063 22.0652305 20.89272509 23.16259766 17.66479492 C23.63662038 16.26595679 24.10798655 14.86621556 24.57666016 13.46557617 C25.2499039 11.4550967 25.93256372 9.4480345 26.6171875 7.44140625 C27.02565918 6.23170166 27.43413086 5.02199707 27.85498047 3.77563477 C29 1 29 1 31 0 C33.3329866 -0.04022391 35.66706666 -0.04320247 38 0 C37.45717163 6.90569871 35.52211057 12.84273299 33.140625 19.32421875 C32.75436951 20.388647 32.36811401 21.45307526 31.97015381 22.54975891 C31.15408305 24.78941361 30.33354159 27.02744381 29.50878906 29.26391602 C28.25230675 32.68122623 27.0200773 36.10664935 25.7890625 39.53320312 C24.99104483 41.71407701 24.1916133 43.89443416 23.390625 46.07421875 C23.02584045 47.09513107 22.66105591 48.1160434 22.28521729 49.16789246 C20.27030149 54.5604057 18.58924474 58.42527365 14 62 C10.85069107 63.04976964 8.61185544 63.10131595 5.3125 63.0625 C4.31863281 63.05347656 3.32476563 63.04445313 2.30078125 63.03515625 C1.16189453 63.01775391 1.16189453 63.01775391 0 63 C0 60.36 0 57.72 0 55 C5.445 54.505 5.445 54.505 11 54 C11.350625 53.01 11.70125 52.02 12.0625 51 C12.35833984 50.1646875 12.35833984 50.1646875 12.66015625 49.3125 C13.59913723 42.92311221 11.48747372 36.85530993 9.27734375 30.95703125 C9.01240616 30.22554367 8.74746857 29.49405609 8.47450256 28.74040222 C7.63672171 26.42813324 6.78845266 24.11995125 5.9375 21.8125 C4.81243895 18.7597603 3.69808729 15.70341026 2.58984375 12.64453125 C2.33049545 11.95172562 2.07114716 11.25891998 1.80393982 10.54512024 C0.48758803 6.91017044 -0.31012084 3.87440558 0 0 Z " fill="#FFFFFF" transform="translate(1162,386)"/>
<path d="M0 0 C3.77562826 5.07350047 4.28453638 9.40804347 4.1953125 15.61328125 C4.1924826 16.36087204 4.18965271 17.10846283 4.18673706 17.87870789 C4.17559469 20.2526388 4.15050162 22.62618425 4.125 25 C4.11496249 26.6152289 4.10583799 28.23046376 4.09765625 29.84570312 C4.07567489 33.79311594 4.04118657 37.74024274 4 41.6875 C1.03 41.6875 -1.94 41.6875 -5 41.6875 C-5.01981934 40.80489502 -5.03963867 39.92229004 -5.06005859 39.01293945 C-5.13837866 35.72328043 -5.22507855 32.43406036 -5.31738281 29.14477539 C-5.35555149 27.7239627 -5.39042513 26.30305737 -5.421875 24.88208008 C-5.46779065 22.83381145 -5.52573805 20.78617392 -5.5859375 18.73828125 C-5.6173584 17.50762939 -5.6487793 16.27697754 -5.68115234 15.0090332 C-5.98866942 11.80553412 -6.52517121 9.53462062 -8 6.6875 C-11.22402446 5.07548777 -14.51392867 5.09313152 -18 5.6875 C-20.960283 7.89196606 -22.64975823 9.37089977 -23.60913086 12.97729492 C-24.03833568 15.95331163 -24.21277792 18.85805982 -24.31640625 21.86328125 C-24.35830078 23.02021484 -24.40019531 24.17714844 -24.44335938 25.36914062 C-24.48267578 26.56732422 -24.52199219 27.76550781 -24.5625 29 C-24.60568359 30.21751953 -24.64886719 31.43503906 -24.69335938 32.68945312 C-24.79921496 35.6886947 -24.90129726 38.68801591 -25 41.6875 C-27.97 41.6875 -30.94 41.6875 -34 41.6875 C-34.02464455 35.43953746 -34.04283343 29.19160297 -34.05493164 22.94360352 C-34.05997298 20.81631986 -34.06680591 18.68903969 -34.07543945 16.56176758 C-34.08751379 13.51122174 -34.09323014 10.46072155 -34.09765625 7.41015625 C-34.10281754 6.45287125 -34.10797882 5.49558624 -34.11329651 4.5092926 C-34.11337204 3.62845505 -34.11344757 2.74761749 -34.11352539 1.84008789 C-34.115746 1.06065323 -34.11796661 0.28121857 -34.12025452 -0.52183533 C-34 -2.3125 -34 -2.3125 -33 -3.3125 C-30.32941149 -3.45365161 -27.67567762 -3.35497107 -25 -3.3125 C-24.67 -1.9925 -24.34 -0.6725 -24 0.6875 C-23.113125 0.048125 -22.22625 -0.59125 -21.3125 -1.25 C-14.37311303 -5.57075038 -6.48062211 -4.99547954 0 0 Z " fill="#FFFFFF" transform="translate(573,389.3125)"/>
<path d="M0 0 C0 2.64 0 5.28 0 8 C-0.90492188 8.14695312 -0.90492188 8.14695312 -1.828125 8.296875 C-6.66472214 9.20178672 -9.96182788 9.82251333 -13 14 C-14.1007076 17.3021228 -14.20627072 19.94083279 -14.31640625 23.41796875 C-14.35830078 24.67158203 -14.40019531 25.92519531 -14.44335938 27.21679688 C-14.48267578 28.52712891 -14.52199219 29.83746094 -14.5625 31.1875 C-14.60570992 32.52279978 -14.649325 33.85808652 -14.69335938 35.19335938 C-14.79956502 38.46213297 -14.90160997 41.73098333 -15 45 C-18.3 45 -21.6 45 -25 45 C-25.02464455 38.75203746 -25.04283343 32.50410297 -25.05493164 26.25610352 C-25.05997298 24.12881986 -25.06680591 22.00153969 -25.07543945 19.87426758 C-25.08751379 16.82372174 -25.09323014 13.77322155 -25.09765625 10.72265625 C-25.10281754 9.76537125 -25.10797882 8.80808624 -25.11329651 7.8217926 C-25.11337204 6.94095505 -25.11344757 6.06011749 -25.11352539 5.15258789 C-25.115746 4.37315323 -25.11796661 3.59371857 -25.12025452 2.79066467 C-25 1 -25 1 -24 0 C-18.1589404 -0.37086093 -18.1589404 -0.37086093 -16 0 C-15.34 0.99 -14.68 1.98 -14 3 C-13.2575 2.525625 -12.515 2.05125 -11.75 1.5625 C-7.35423592 -0.93509323 -4.91740896 -1.22935224 0 0 Z " fill="#FFFFFF" transform="translate(681,386)"/>
<path d="M0 0 C0 2.64 0 5.28 0 8 C-0.90492188 8.14695312 -0.90492188 8.14695312 -1.828125 8.296875 C-8.35388156 9.48465306 -8.35388156 9.48465306 -13 14 C-14.59373812 18.10741528 -15.27818723 21.66138723 -15.4140625 26.0546875 C-15.47207031 27.71757812 -15.47207031 27.71757812 -15.53125 29.4140625 C-15.5621875 30.55617188 -15.593125 31.69828125 -15.625 32.875 C-15.68300781 34.62296875 -15.68300781 34.62296875 -15.7421875 36.40625 C-15.83610319 39.27067864 -15.92177983 42.13510692 -16 45 C-18.97 45 -21.94 45 -25 45 C-25.02464455 38.75203746 -25.04283343 32.50410297 -25.05493164 26.25610352 C-25.05997298 24.12881986 -25.06680591 22.00153969 -25.07543945 19.87426758 C-25.08751379 16.82372174 -25.09323014 13.77322155 -25.09765625 10.72265625 C-25.10281754 9.76537125 -25.10797882 8.80808624 -25.11329651 7.8217926 C-25.11337204 6.94095505 -25.11344757 6.06011749 -25.11352539 5.15258789 C-25.115746 4.37315323 -25.11796661 3.59371857 -25.12025452 2.79066467 C-25 1 -25 1 -24 0 C-21.66702567 -0.04092937 -19.33294775 -0.04241723 -17 0 C-16.34 1.32 -15.68 2.64 -15 4 C-14.0925 3.360625 -13.185 2.72125 -12.25 2.0625 C-7.58166525 -0.90009705 -5.34739375 -1.33684844 0 0 Z " fill="#FFFFFF" transform="translate(712,386)"/>
</svg>
