<?xml version="1.0" encoding="UTF-8"?>
<svg version="1.1" xmlns="http://www.w3.org/2000/svg" width="250" height="250">
<path d="M0 0 C82.5 0 165 0 250 0 C250 82.5 250 165 250 250 C167.5 250 85 250 0 250 C0 167.5 0 85 0 0 Z " fill="#FEFEFE" transform="translate(0,0)"/>
<path d="M0 0 C0.99 0.66 1.98 1.32 3 2 C3.96246715 7.17455456 2.97702107 12.18101113 1 17 C0.34 17 -0.32 17 -1 17 C-1.24621094 17.87140625 -1.49242187 18.7428125 -1.74609375 19.640625 C-5.04541668 28.47993254 -12.55311589 35.83112055 -18.87109375 42.6875 C-21.3777375 45.41031303 -23.79244251 48.20460986 -26.19921875 51.015625 C-28 53 -28 53 -31.06445312 55.47436523 C-34.48719926 58.90926106 -34.72054698 61.7900422 -34.80659485 66.51509094 C-34.79436386 67.46530624 -34.78213287 68.41552155 -34.76953125 69.39453125 C-34.78653328 70.87647224 -34.78653328 70.87647224 -34.80387878 72.38835144 C-34.83452737 75.53027397 -34.82476882 78.67047903 -34.8125 81.8125 C-34.82665229 84.97181909 -34.84897455 88.13096231 -34.87467957 91.29020691 C-34.88776004 93.25331339 -34.89245079 95.2164964 -34.88813782 97.17964172 C-34.88871689 98.06113388 -34.88929596 98.94262604 -34.88989258 99.85083008 C-34.88733963 100.6299324 -34.88478668 101.40903473 -34.88215637 102.21174622 C-35 104 -35 104 -36 105 C-40.62 105 -45.24 105 -50 105 C-50.33 95.1 -50.66 85.2 -51 75 C-55 76.5 -55 76.5 -56 79 C-56.66 79 -57.32 79 -58 79 C-57.505 79.969375 -57.01 80.93875 -56.5 81.9375 C-53.81966018 88.87114902 -54.82969579 96.73368707 -55 104 C-65.395 104.495 -65.395 104.495 -76 105 C-76 110.28 -76 115.56 -76 121 C-74.02 121.495 -74.02 121.495 -72 122 C-71.67 117.38 -71.34 112.76 -71 108 C-65.72 108 -60.44 108 -55 108 C-54.2999018 121.58190515 -54.2999018 121.58190515 -58.3203125 126.53515625 C-63.7866494 131.30231052 -67.49930402 132.62873063 -74.5625 132.4375 C-75.6752832 132.44813477 -75.6752832 132.44813477 -76.81054688 132.45898438 C-81.36219772 132.40629385 -84.27282751 131.85059673 -88 129 C-92.82358338 124.03859995 -94.1037119 118.84275845 -94.125 112.0625 C-94.09334369 110.70806235 -94.05525226 109.35368041 -94 108 C-94.73605469 108.40992188 -95.47210938 108.81984375 -96.23046875 109.2421875 C-97.20628906 109.78101563 -98.18210937 110.31984375 -99.1875 110.875 C-100.63189453 111.67550781 -100.63189453 111.67550781 -102.10546875 112.4921875 C-104.69739518 113.8423678 -107.26761098 114.97098329 -110 116 C-110 116.66 -110 117.32 -110 118 C-110.96550781 118.39316406 -111.93101563 118.78632813 -112.92578125 119.19140625 C-116.6602588 120.79082454 -120.19642072 122.67363739 -123.76098633 124.61767578 C-135.8136208 131.1733194 -147.78204337 137.57475646 -162 135 C-164.71335013 132.72680318 -164.96755856 131.24433372 -165.43359375 127.734375 C-164.90106751 123.14793283 -163.39914102 120.16826446 -161.0625 116.25 C-160.65644531 115.55116699 -160.25039062 114.85233398 -159.83203125 114.13232422 C-156.12881841 107.91601284 -151.83164523 102.38340719 -147 97 C-146.36263916 96.27868896 -145.72527832 95.55737793 -145.06860352 94.81420898 C-139.55226149 88.61021918 -133.82041153 82.66840505 -127.9375 76.8125 C-127.09123047 75.96236328 -126.24496094 75.11222656 -125.37304688 74.23632812 C-117.02994818 65.90609465 -108.15350081 58.41902002 -99 51 C-98.05769531 50.22398438 -97.11539063 49.44796875 -96.14453125 48.6484375 C-95.25121094 47.91882813 -94.35789062 47.18921875 -93.4375 46.4375 C-92.63183594 45.77621094 -91.82617188 45.11492187 -90.99609375 44.43359375 C-89 43 -89 43 -87 43 C-87 42.34 -87 41.68 -87 41 C-85.67168139 40.05619467 -84.33128954 39.12721536 -82.953125 38.2578125 C-80.70289204 36.80866247 -78.54769341 35.25043751 -76.375 33.6875 C-71.66842775 30.36940217 -66.78520899 27.48598474 -61.76171875 24.67578125 C-58.96280048 22.97742773 -56.52989912 21.07253951 -54 19 C-52.66515579 18.05541751 -51.312238 17.13551712 -49.9375 16.25 C-49.28652344 15.82203125 -48.63554687 15.3940625 -47.96484375 14.953125 C-46 14 -46 14 -42 14 C-41.67 13.01 -41.34 12.02 -41 11 C-38.58760164 9.70678645 -36.26753514 8.60897656 -33.75 7.5625 C-33.02780273 7.25755615 -32.30560547 6.9526123 -31.56152344 6.63842773 C-21.30395236 2.38476522 -11.3099829 -1.54390243 0 0 Z " fill="#0E4F74" transform="translate(202,49)"/>
<path d="M0 0 C2 2 2 2 2.23046875 4.05859375 C2.21628906 4.84363281 2.20210938 5.62867187 2.1875 6.4375 C2.18105469 7.21996094 2.17460937 8.00242187 2.16796875 8.80859375 C2 11 2 11 1 14 C0.34 14 -0.32 14 -1 14 C-1.22558594 14.84949219 -1.45117188 15.69898437 -1.68359375 16.57421875 C-3.23782878 20.61891939 -5.36608208 23.46772134 -8.0625 26.8125 C-8.52205078 27.39708984 -8.98160156 27.98167969 -9.45507812 28.58398438 C-12.71450034 32.71450034 -12.71450034 32.71450034 -14 34 C-16.69654854 34.07319621 -19.36691458 34.09242537 -22.0625 34.0625 C-23.20041992 34.05573242 -23.20041992 34.05573242 -24.36132812 34.04882812 C-26.24091871 34.0370068 -28.12046899 34.01907078 -30 34 C-29.89558594 35.62808594 -29.89558594 35.62808594 -29.7890625 37.2890625 C-29.27936919 48.63436014 -29.27936919 48.63436014 -31.265625 52.3984375 C-33.3332498 54.45602529 -34.98227728 56 -38 56 C-38.33 56.99 -38.66 57.98 -39 59 C-42 61 -42 61 -43.9375 60.6875 C-44.618125 60.460625 -45.29875 60.23375 -46 60 C-53.41373909 57.88629566 -60.04880182 58.54885594 -67.08984375 61.5390625 C-69.86377927 63.66064099 -70.75245023 65.75483986 -72 69 C-72.21114743 71.45358654 -72.35376739 73.91376881 -72.4375 76.375 C-72.81224796 80.48571996 -73.41426147 83.35164804 -76.265625 86.5078125 C-79.41529366 88.65531386 -82.56193658 90.35275203 -86 92 C-87.24776884 92.62946948 -88.49515832 93.25969146 -89.7421875 93.890625 C-93.44540102 95.7203979 -97.20180265 97.37631174 -101 99 C-102.00546875 99.43699219 -103.0109375 99.87398438 -104.046875 100.32421875 C-109.95078791 102.70079386 -115.61679324 104.07427746 -122 103 C-124 101 -124 101 -124.34375 97.87109375 C-123.93499193 93.26792051 -122.61138425 90.11542606 -120.5 86.0625 C-120.1397876 85.35738281 -119.7795752 84.65226562 -119.40844727 83.92578125 C-116.39639368 78.26958848 -112.78248961 74.24347951 -108 70 C-106.95962724 68.82958065 -105.93925425 67.64113839 -104.9375 66.4375 C-101.23258421 62.14669055 -97.2871162 58.10170549 -93.3125 54.0625 C-92.65822021 53.38695068 -92.00394043 52.71140137 -91.32983398 52.01538086 C-90.70149658 51.38253174 -90.07315918 50.74968262 -89.42578125 50.09765625 C-88.58140503 49.23926147 -88.58140503 49.23926147 -87.7199707 48.36352539 C-85.81700995 46.85493266 -84.37253717 46.407045 -82 46 C-82 45.34 -82 44.68 -82 44 C-80.10107713 42.32721313 -78.19605512 40.7828447 -76.1875 39.25 C-75.57165039 38.77481934 -74.95580078 38.29963867 -74.32128906 37.81005859 C-72.22088358 36.19774635 -70.11101146 34.59839668 -68 33 C-67.21898926 32.40413086 -66.43797852 31.80826172 -65.63330078 31.19433594 C-63.18002036 29.32727229 -60.71678748 27.47417191 -58.25 25.625 C-57.48324951 25.04266602 -56.71649902 24.46033203 -55.92651367 23.86035156 C-51.21245542 20.36219106 -46.49923024 17.59186927 -41.15527344 15.15380859 C-38.99139394 13.99539282 -37.65740212 12.78522312 -36 11 C-31.53944581 8.24187481 -27.25810411 6.52581041 -22 6 C-22 5.34 -22 4.68 -22 4 C-14.80731845 1.2316827 -7.80025279 -1.33629829 0 0 Z " fill="#FAFDFC" transform="translate(182,65)"/>
<path d="M0 0 C0 0.66 0 1.32 0 2 C-0.99 2 -1.98 2 -3 2 C-3 3.65 -3 5.3 -3 7 C-1.35 7.33 0.3 7.66 2 8 C-0.42130331 10.42130331 -1.80111377 10.52840504 -5.125 11.125 C-6.03507812 11.29257813 -6.94515625 11.46015625 -7.8828125 11.6328125 C-8.58148438 11.75398438 -9.28015625 11.87515625 -10 12 C-10 12.66 -10 13.32 -10 14 C-11.9151579 14.81604999 -13.83218834 15.62770632 -15.75 16.4375 C-16.81734375 16.88996094 -17.8846875 17.34242187 -18.984375 17.80859375 C-22 19 -22 19 -24.328125 19.47265625 C-24.87984375 19.64667969 -25.4315625 19.82070312 -26 20 C-26.495 21.485 -26.495 21.485 -27 23 C-28.72265625 23.96484375 -28.72265625 23.96484375 -31.0625 24.9375 C-40.63292952 29.48379533 -48.77396416 36.6443054 -57.03515625 43.19140625 C-57.67163086 43.69526855 -58.30810547 44.19913086 -58.96386719 44.71826172 C-60.17033437 45.67712589 -61.37300598 46.64079093 -62.57128906 47.60986328 C-65.05106818 49.59294634 -66.95857849 50.98619283 -70 52 C-70 52.66 -70 53.32 -70 54 C-71.36066869 54.87424607 -72.72248923 55.74672665 -74.08837891 56.61279297 C-78.20727001 59.60175073 -81.63628603 63.43640236 -85.1875 67.0625 C-85.99380859 67.87783203 -86.80011719 68.69316406 -87.63085938 69.53320312 C-89.12365304 71.04336928 -90.61437578 72.55558754 -92.10229492 74.07055664 C-93.04165894 75.0256311 -93.04165894 75.0256311 -94 76 C-94.52247314 76.58579834 -95.04494629 77.17159668 -95.58325195 77.77514648 C-96.28454224 78.38144897 -96.28454224 78.38144897 -97 79 C-99.6875 78.6875 -99.6875 78.6875 -102 78 C-102 78.66 -102 79.32 -102 80 C-104.475 80.495 -104.475 80.495 -107 81 C-102.75201358 75.92855775 -98.31909889 71.15949573 -93.625 66.5 C-92.96016602 65.8385498 -92.29533203 65.17709961 -91.61035156 64.49560547 C-87.21718575 60.14871749 -82.77832289 55.92436559 -78 52 C-76.72769531 50.94619141 -76.72769531 50.94619141 -75.4296875 49.87109375 C-72.63061295 47.56712013 -69.81640976 45.28273322 -67 43 C-66.05769531 42.22398438 -65.11539063 41.44796875 -64.14453125 40.6484375 C-63.25121094 39.91882813 -62.35789063 39.18921875 -61.4375 38.4375 C-60.63183594 37.77621094 -59.82617188 37.11492187 -58.99609375 36.43359375 C-57 35 -57 35 -55 35 C-55 34.34 -55 33.68 -55 33 C-53.67168139 32.05619467 -52.33128954 31.12721536 -50.953125 30.2578125 C-48.70289204 28.80866247 -46.54769341 27.25043751 -44.375 25.6875 C-39.66842775 22.36940217 -34.78520899 19.48598474 -29.76171875 16.67578125 C-26.96280048 14.97742773 -24.52989912 13.07253951 -22 11 C-20.66515579 10.05541751 -19.312238 9.13551712 -17.9375 8.25 C-17.28652344 7.82203125 -16.63554687 7.3940625 -15.96484375 6.953125 C-14 6 -14 6 -10 6 C-9.67 5.01 -9.34 4.02 -9 3 C-2.88888889 0 -2.88888889 0 0 0 Z " fill="#20516C" transform="translate(170,57)"/>
<path d="M0 0 C1.04285156 -0.01417969 2.08570313 -0.02835938 3.16015625 -0.04296875 C5.9375 0.1875 5.9375 0.1875 8.9375 2.1875 C9.89996715 7.36205456 8.91452107 12.36851113 6.9375 17.1875 C6.2775 17.1875 5.6175 17.1875 4.9375 17.1875 C4.70289063 18.04601562 4.46828125 18.90453125 4.2265625 19.7890625 C2.79641912 23.55944049 0.78485769 26.4334223 -1.6875 29.5625 C-2.10773438 30.10777344 -2.52796875 30.65304688 -2.9609375 31.21484375 C-3.98750693 32.54471778 -5.02399187 33.86692793 -6.0625 35.1875 C-6.68125 34.5275 -7.3 33.8675 -7.9375 33.1875 C-9.81887427 30.9590451 -9.81887427 30.9590451 -12.0625 31.1875 C-11.7325 26.8975 -11.4025 22.6075 -11.0625 18.1875 C-13.72168166 17.30110611 -15.54314641 17.00760975 -18.29296875 16.87109375 C-19.09541016 16.82919922 -19.89785156 16.78730469 -20.72460938 16.74414062 C-21.55798828 16.70482422 -22.39136719 16.66550781 -23.25 16.625 C-24.09498047 16.58181641 -24.93996094 16.53863281 -25.81054688 16.49414062 C-27.89434433 16.38818482 -29.97840103 16.2873498 -32.0625 16.1875 C-31.0725 15.8575 -30.0825 15.5275 -29.0625 15.1875 C-29.3925 14.1975 -29.7225 13.2075 -30.0625 12.1875 C-29.7325 11.5275 -29.4025 10.8675 -29.0625 10.1875 C-28.0725 10.1875 -27.0825 10.1875 -26.0625 10.1875 C-26.0625 9.1975 -26.0625 8.2075 -26.0625 7.1875 C-23.48017086 6.20561439 -20.89671317 5.22690411 -18.3125 4.25 C-17.21808594 3.83331055 -17.21808594 3.83331055 -16.1015625 3.40820312 C-15.39257812 3.14072266 -14.68359375 2.87324219 -13.953125 2.59765625 C-13.30375977 2.35152588 -12.65439453 2.10539551 -11.98535156 1.85180664 C-7.90683477 0.44276091 -4.32592726 0.02680252 0 0 Z " fill="#054A71" transform="translate(196.0625,48.8125)"/>
<path d="M0 0 C0.79148438 -0.01417969 1.58296875 -0.02835938 2.3984375 -0.04296875 C4.625 0.1875 4.625 0.1875 7.625 2.1875 C8.63876377 6.75400345 7.91676993 10.54785054 6 14.75 C3.625 17.1875 3.625 17.1875 0.375 17.5625 C-0.5325 17.43875 -1.44 17.315 -2.375 17.1875 C-2.705 17.8475 -3.035 18.5075 -3.375 19.1875 C-7.665 19.1875 -11.955 19.1875 -16.375 19.1875 C-16.045 17.5375 -15.715 15.8875 -15.375 14.1875 C-15.045 14.8475 -14.715 15.5075 -14.375 16.1875 C-12.00194422 16.60530879 -12.00194422 16.60530879 -9.375 16.1875 C-5.89933272 12.46357077 -5.88759987 8.1522026 -5.5859375 3.296875 C-5.20464321 -0.51606791 -3.41581937 0.02763608 0 0 Z " fill="#044B74" transform="translate(139.375,158.8125)"/>
<path d="M0 0 C-1.70828921 2.10633718 -2.52148416 2.93801608 -5.26171875 3.29296875 C-6.06222656 3.25816406 -6.86273438 3.22335938 -7.6875 3.1875 C-8.89986328 3.14689453 -8.89986328 3.14689453 -10.13671875 3.10546875 C-10.75160156 3.07066406 -11.36648437 3.03585938 -12 3 C-12 3.99 -12 4.98 -12 6 C-13.11375 6.2784375 -13.11375 6.2784375 -14.25 6.5625 C-18.11028771 8.58037767 -19.63847443 10.98508273 -21 15 C-21.65499834 18.92999006 -22.12414368 22.80364848 -22.5078125 26.76953125 C-23 30 -23 30 -25 32 C-24.34 32.33 -23.68 32.66 -23 33 C-23 36.3 -23 39.6 -23 43 C-23.33 43 -23.66 43 -24 43 C-24 40.03 -24 37.06 -24 34 C-24.73605469 34.40992188 -25.47210938 34.81984375 -26.23046875 35.2421875 C-27.20628906 35.78101563 -28.18210937 36.31984375 -29.1875 36.875 C-30.15042969 37.40867188 -31.11335938 37.94234375 -32.10546875 38.4921875 C-34.69739518 39.8423678 -37.26761098 40.97098329 -40 42 C-40 42.66 -40 43.32 -40 44 C-40.66 43.67 -41.32 43.34 -42 43 C-41.34 41.68 -40.68 40.36 -40 39 C-39.34 39 -38.68 39 -38 39 C-38 38.01 -38 37.02 -38 36 C-38.66 35.67 -39.32 35.34 -40 35 C-39.16855469 34.51789063 -38.33710937 34.03578125 -37.48046875 33.5390625 C-36.39378906 32.90742188 -35.30710937 32.27578125 -34.1875 31.625 C-33.10855469 30.99851563 -32.02960938 30.37203125 -30.91796875 29.7265625 C-28.91168907 28.53944654 -26.93965941 27.29310627 -25 26 C-24.33914204 22.66346534 -24.33914204 22.66346534 -24.0625 18.8125 C-22.90137798 8.50158998 -22.90137798 8.50158998 -19 4 C-12.98303396 -0.0851385 -7.09755921 -0.53342825 0 0 Z " fill="#2C5C74" transform="translate(132,123)"/>
<path d="M0 0 C0.33 0 0.66 0 1 0 C1.02685412 2.31243792 1.04632841 4.6249627 1.0625 6.9375 C1.07410156 8.22527344 1.08570313 9.51304687 1.09765625 10.83984375 C1 14 1 14 0 15 C-2.69654854 15.07319621 -5.36691458 15.09242537 -8.0625 15.0625 C-9.20041992 15.05573242 -9.20041992 15.05573242 -10.36132812 15.04882812 C-12.24091871 15.0370068 -14.12046899 15.01907078 -16 15 C-15.98839844 15.84304687 -15.97679687 16.68609375 -15.96484375 17.5546875 C-15.95130859 19.19824219 -15.95130859 19.19824219 -15.9375 20.875 C-15.92589844 21.96554688 -15.91429687 23.05609375 -15.90234375 24.1796875 C-16 27 -16 27 -17 29 C-18.65 28.67 -20.3 28.34 -22 28 C-22.02684679 25.35409986 -22.04676357 22.70846904 -22.0625 20.0625 C-22.07087891 19.30775391 -22.07925781 18.55300781 -22.08789062 17.77539062 C-22.09652441 15.85005687 -22.05224333 13.92464419 -22 12 C-21 11 -21 11 -18.95874023 10.88647461 C-18.08419189 10.89171143 -17.20964355 10.89694824 -16.30859375 10.90234375 C-15.36435547 10.90556641 -14.42011719 10.90878906 -13.44726562 10.91210938 C-12.45404297 10.92048828 -11.46082031 10.92886719 -10.4375 10.9375 C-9.44041016 10.94201172 -8.44332031 10.94652344 -7.41601562 10.95117188 C-4.94398513 10.96299977 -2.47198528 10.98093585 0 11 C0 7.37 0 3.74 0 0 Z " fill="#DDF1F3" transform="translate(147,142)"/>
<path d="M0 0 C0 3 0 3 -2 6 C-2.66 6 -3.32 6 -4 6 C-4.0825 6.556875 -4.165 7.11375 -4.25 7.6875 C-5.23895541 10.73677919 -6.84757466 12.65189963 -9 15 C-9.66 15 -10.32 15 -11 15 C-11.28875 15.5775 -11.5775 16.155 -11.875 16.75 C-12.24625 17.4925 -12.6175 18.235 -13 19 C-13.33 19.721875 -13.66 20.44375 -14 21.1875 C-15 23 -15 23 -17 24 C-20.61202629 29.28621366 -21.45028522 33.69600687 -21 40 C-18.36 40.66 -15.72 41.32 -13 42 C-13 42.33 -13 42.66 -13 43 C-14.62463842 43.05395478 -16.24978541 43.09277195 -17.875 43.125 C-18.77992187 43.14820313 -19.68484375 43.17140625 -20.6171875 43.1953125 C-23 43 -23 43 -25 41 C-25.65059569 35.07810057 -24.16288562 31.17406532 -21.5 26.0625 C-21.1397876 25.35738281 -20.7795752 24.65226562 -20.40844727 23.92578125 C-17.85372929 19.12839735 -15.0452676 15.37079965 -10.95703125 11.7421875 C-8.18521226 9.27466001 -5.85569168 6.47804006 -3.4453125 3.6640625 C-2.34597202 2.39833536 -1.1854566 1.1854566 0 0 Z " fill="#C6DCE3" transform="translate(83,125)"/>
<path d="M0 0 C0.66 0.33 1.32 0.66 2 1 C0 4 0 4 -1.91015625 4.625 C-3.3475796 4.87544037 -4.78508 5.12543884 -6.22265625 5.375 C-6.80917969 5.58125 -7.39570312 5.7875 -8 6 C-8.33 6.99 -8.66 7.98 -9 9 C-15.84785045 13.69328287 -24.78872448 16 -33 16 C-33 15.34 -33 14.68 -33 14 C-34.98 14 -36.96 14 -39 14 C-39.33 13.34 -39.66 12.68 -40 12 C-39.175 11.99742187 -38.35 11.99484375 -37.5 11.9921875 C-24.38574476 11.55309413 -13.22935762 7.10847448 -1.8203125 0.78515625 C-1.21960938 0.52605469 -0.61890625 0.26695312 0 0 Z " fill="#C5E0E6" transform="translate(80,172)"/>
<path d="M0 0 C0.99 0.66 1.98 1.32 3 2 C3.29296875 4.1640625 3.29296875 4.1640625 3.1875 6.625 C3.14689453 7.85089844 3.14689453 7.85089844 3.10546875 9.1015625 C3.07066406 9.72804688 3.03585938 10.35453125 3 11 C2.01 11.33 1.02 11.66 0 12 C-0.33 9.03 -0.66 6.06 -1 3 C-3.66753628 3.28494137 -6.33382722 3.57777275 -9 3.875 C-10.11568359 3.99294922 -10.11568359 3.99294922 -11.25390625 4.11328125 C-16.31444433 4.68534208 -21.08289777 5.67014735 -26 7 C-26 7.33 -26 7.66 -26 8 C-27.98 8 -29.96 8 -32 8 C-28.55946857 5.00708873 -24.78792901 3.64997732 -20.5 2.3125 C-19.79528564 2.09263428 -19.09057129 1.87276855 -18.36450195 1.64624023 C-12.2906027 -0.12912265 -6.31559723 -0.99499459 0 0 Z " fill="#21536C" transform="translate(202,49)"/>
<path d="M0 0 C5.28 0 10.56 0 16 0 C15.67 2.64 15.34 5.28 15 8 C14.67 8 14.34 8 14 8 C13.67 6.35 13.34 4.7 13 3 C10.03 3 7.06 3 4 3 C3.97421875 3.65226563 3.9484375 4.30453125 3.921875 4.9765625 C3.53871259 10.88074693 2.75534928 14.39666863 -1 19 C-2.32 18.67 -3.64 18.34 -5 18 C-5.33 16.35 -5.66 14.7 -6 13 C-3.525 13.495 -3.525 13.495 -1 14 C-0.67 9.38 -0.34 4.76 0 0 Z " fill="#1C4D68" transform="translate(131,157)"/>
<path d="M0 0 C0.66 0.33 1.32 0.66 2 1 C1.67 1.99 1.34 2.98 1 4 C0.9071875 4.928125 0.9071875 4.928125 0.8125 5.875 C-0.51181839 9.33860193 -3.0382485 10.82401931 -6 13 C-6.66 13 -7.32 13 -8 13 C-8 13.66 -8 14.32 -8 15 C-8.99 15.33 -9.98 15.66 -11 16 C-11.99 15.34 -12.98 14.68 -14 14 C-15.98 15.98 -17.96 17.96 -20 20 C-20.66 19.67 -21.32 19.34 -22 19 C-16.74843452 13.43542731 -11.02655865 8.6991655 -5 4 C-3.33174775 2.66865106 -1.66464192 1.33586033 0 0 Z " fill="#1C506C" transform="translate(108,96)"/>
<path d="M0 0 C0.7425 0.0825 1.485 0.165 2.25 0.25 C0.90750951 7.99513747 -6.97751422 13.53776671 -12.75 18.25 C-13.08 17.26 -13.41 16.27 -13.75 15.25 C-12.375 13.75 -12.375 13.75 -10.75 12.25 C-10.09 12.25 -9.43 12.25 -8.75 12.25 C-9.74 10.93 -10.73 9.61 -11.75 8.25 C-10.63625 7.38375 -10.63625 7.38375 -9.5 6.5 C-6.75511268 4.3748954 -6.75511268 4.3748954 -4.75 2 C-2.75 0.25 -2.75 0.25 0 0 Z " fill="#21596B" transform="translate(179.75,89.75)"/>
<path d="M0 0 C2 2 2 2 2.265625 4.05859375 C2.26046875 4.84363281 2.2553125 5.62867187 2.25 6.4375 C2.25773437 7.61119141 2.25773437 7.61119141 2.265625 8.80859375 C2 11 2 11 0 14 C0 10.37 0 6.74 0 3 C-7.87893949 2.58531897 -17.27781758 3.85046103 -23.4375 9.0625 C-26.39048761 11.29524673 -28.32466431 11.83665175 -32 12 C-32.66 11.34 -33.32 10.68 -34 10 C-32.3767313 9.3291288 -30.75132422 8.66342971 -29.125 8 C-28.22007812 7.62875 -27.31515625 7.2575 -26.3828125 6.875 C-24 6 -24 6 -22 6 C-22 5.34 -22 4.68 -22 4 C-14.80731845 1.2316827 -7.80025279 -1.33629829 0 0 Z " fill="#C5E4EB" transform="translate(182,65)"/>
<path d="M0 0 C-1.375 2.5 -1.375 2.5 -3 5 C-3.66 5 -4.32 5 -5 5 C-5.33 5.99 -5.66 6.98 -6 8 C-10.33333333 11 -10.33333333 11 -13 11 C-13.33 10.34 -13.66 9.68 -14 9 C-15.89533342 8.53476937 -15.89533342 8.53476937 -18.0625 8.375 C-19.361875 8.25125 -20.66125 8.1275 -22 8 C-18.36430434 4.84018074 -14.32893593 3.39134311 -9.875 1.75 C-9.14667969 1.46898437 -8.41835937 1.18796875 -7.66796875 0.8984375 C-2.2494709 -1.12473545 -2.2494709 -1.12473545 0 0 Z " fill="#20566F" transform="translate(96,159)"/>
<path d="M0 0 C0 3.22981983 -0.81530252 5.03825629 -2 8 C-2 8.99 -2 9.98 -2 11 C-4.125 14.25 -4.125 14.25 -7 17 C-10.3125 16.875 -10.3125 16.875 -13 16 C-13 16.66 -13 17.32 -13 18 C-14.65 18.33 -16.3 18.66 -18 19 C-12.44964797 12.21623641 -6.23557973 6.14477032 0 0 Z " fill="#255571" transform="translate(81,119)"/>
<path d="M0 0 C0.33 0 0.66 0 1 0 C1.02685412 2.31243792 1.04632841 4.6249627 1.0625 6.9375 C1.07410156 8.22527344 1.08570313 9.51304687 1.09765625 10.83984375 C1 14 1 14 0 15 C-2.69654854 15.07319621 -5.36691458 15.09242537 -8.0625 15.0625 C-9.20041992 15.05573242 -9.20041992 15.05573242 -10.36132812 15.04882812 C-12.24091871 15.0370068 -14.12046899 15.01907078 -16 15 C-15.67 14.01 -15.34 13.02 -15 12 C-16.98 12 -18.96 12 -21 12 C-21 11.67 -21 11.34 -21 11 C-14.07 11 -7.14 11 0 11 C0 7.37 0 3.74 0 0 Z " fill="#C1E0E8" transform="translate(147,142)"/>
<path d="M0 0 C0.66 0.33 1.32 0.66 2 1 C0.62863779 4.24140159 -1.33969859 6.56125075 -3.625 9.20703125 C-6.18125772 12.54033322 -8.06001459 16.28513432 -10 20 C-12 17 -12 17 -11.8125 14.4375 C-11 12 -11 12 -8 10 C-7.7497843 6.91634129 -7.7497843 6.91634129 -8 4 C-6.35 3.67 -4.7 3.34 -3 3 C-3 2.34 -3 1.68 -3 1 C-2.01 0.67 -1.02 0.34 0 0 Z " fill="#174C69" transform="translate(71,134)"/>
<path d="M0 0 C0.33 1.65 0.66 3.3 1 5 C-2.96 6.98 -6.92 8.96 -11 11 C-11.99 10.34 -12.98 9.68 -14 9 C-5.25 0 -5.25 0 0 0 Z " fill="#104968" transform="translate(152,68)"/>
<path d="M0 0 C0.33 1.32 0.66 2.64 1 4 C0.01 4 -0.98 4 -2 4 C-2.68620031 5.32338632 -3.34786461 6.65949948 -4 8 C-4.3498999 8.68811768 -4.6997998 9.37623535 -5.06030273 10.08520508 C-6.35160312 14.09061827 -6.22868396 17.76923377 -6.16015625 21.94921875 C-6.15495468 22.80304642 -6.14975311 23.65687408 -6.14439392 24.53657532 C-6.12663517 27.25372629 -6.09545527 29.97049421 -6.0625 32.6875 C-6.03488948 35.41517912 -6.01019661 38.14280583 -5.99131775 40.87055969 C-5.97905102 42.56558527 -5.96143802 44.26058214 -5.93800354 45.95549011 C-5.88827707 51.77655414 -5.88827707 51.77655414 -7 54 C-7.66 53.67 -8.32 53.34 -9 53 C-9.0600692 46.73709285 -9.05738926 40.47640424 -9.01220703 34.21337891 C-9.00412344 32.08545558 -9.01011582 29.95742836 -9.03076172 27.82958984 C-9.05805304 24.76003392 -9.03380693 21.69441911 -9 18.625 C-9.0194165 17.68197021 -9.03883301 16.73894043 -9.05883789 15.76733398 C-8.93726043 10.12987269 -7.96986134 7.38785615 -3.9375 3.3359375 C-2.6471266 2.19835656 -1.34151218 1.07680035 0 0 Z " fill="#DAFAFD" transform="translate(175,100)"/>
<path d="M0 0 C-3.34768217 2.83137298 -6.77240194 4.25012544 -10.875 5.75 C-12.06867187 6.19859375 -13.26234375 6.6471875 -14.4921875 7.109375 C-18.14915268 8.0378695 -20.37651257 7.90864211 -24 7 C-24 6.01 -24 5.02 -24 4 C-21.12666819 3.32533928 -18.25168518 2.6600766 -15.375 2 C-14.56675781 1.80921875 -13.75851563 1.6184375 -12.92578125 1.421875 C-8.52795831 0.42074457 -4.54438961 -0.2353082 0 0 Z " fill="#184F70" transform="translate(72,176)"/>
<path d="M0 0 C0.33 0.66 0.66 1.32 1 2 C0.34 2 -0.32 2 -1 2 C-1.144375 2.804375 -1.28875 3.60875 -1.4375 4.4375 C-2 7 -2 7 -3 8 C-5.86267567 8.07325168 -8.700719 8.09238205 -11.5625 8.0625 C-12.36880859 8.05798828 -13.17511719 8.05347656 -14.00585938 8.04882812 C-16.00393756 8.03700518 -18.00197783 8.01906914 -20 8 C-20 7.34 -20 6.68 -20 6 C-20.99 5.67 -21.98 5.34 -23 5 C-21.84242187 4.97421875 -20.68484375 4.9484375 -19.4921875 4.921875 C-17.95308872 4.86556651 -16.41402767 4.8082198 -14.875 4.75 C-13.73417969 4.72873047 -13.73417969 4.72873047 -12.5703125 4.70703125 C-7.1701431 4.47426533 -4.23283778 3.38086085 0 0 Z " fill="#EEFAFC" transform="translate(142,176)"/>
<path d="M0 0 C0.33 0 0.66 0 1 0 C0.25 6.625 0.25 6.625 -2 10 C-2.24055468 12.05709596 -2.24055468 12.05709596 -2.125 14.1875 C-2.08375 15.445625 -2.0425 16.70375 -2 18 C0.64 18.66 3.28 19.32 6 20 C6 20.33 6 20.66 6 21 C4.37536158 21.05395478 2.75021459 21.09277195 1.125 21.125 C0.22007813 21.14820313 -0.68484375 21.17140625 -1.6171875 21.1953125 C-4 21 -4 21 -6 19 C-7.26094067 11.74959116 -3.4194956 6.19783577 0 0 Z " fill="#C9E4ED" transform="translate(64,147)"/>
<path d="M0 0 C0.66 0.33 1.32 0.66 2 1 C0 4 0 4 -1.91015625 4.625 C-3.3475796 4.87544037 -4.78508 5.12543884 -6.22265625 5.375 C-6.80917969 5.58125 -7.39570312 5.7875 -8 6 C-8.33 6.99 -8.66 7.98 -9 9 C-13.79071222 12.35708263 -19.35854899 13.79111764 -25 15 C-25 14.01 -25 13.02 -25 12 C-23.06441401 11.32779649 -21.12645628 10.66241923 -19.1875 10 C-18.10855469 9.62875 -17.02960937 9.2575 -15.91796875 8.875 C-13 8 -13 8 -10 8 C-10 7.01 -10 6.02 -10 5 C-8.38007835 4.13624104 -6.75388139 3.28424146 -5.125 2.4375 C-4.22007813 1.96183594 -3.31515625 1.48617187 -2.3828125 0.99609375 C-1.59648438 0.66738281 -0.81015625 0.33867187 0 0 Z " fill="#EDFEFE" transform="translate(80,172)"/>
<path d="M0 0 C0 0.66 0 1.32 0 2 C-1.33333333 3.33333333 -2.66666667 4.66666667 -4 6 C-4 6.66 -4 7.32 -4 8 C-4.66 8 -5.32 8 -6 8 C-6 7.01 -6 6.02 -6 5 C-6.66 5 -7.32 5 -8 5 C-8.33 4.34 -8.66 3.68 -9 3 C-10.98 3.33 -12.96 3.66 -15 4 C-15 2.68 -15 1.36 -15 0 C-13.06325815 -0.19517554 -11.12555991 -0.38087873 -9.1875 -0.5625 C-8.10855469 -0.66691406 -7.02960938 -0.77132812 -5.91796875 -0.87890625 C-3 -1 -3 -1 0 0 Z " fill="#074761" transform="translate(171,100)"/>
<path d="M0 0 C5.875 1.875 5.875 1.875 7 3 C9.69235776 3.23678716 12.36498156 3.42198025 15.0625 3.5625 C16.20041992 3.62727539 16.20041992 3.62727539 17.36132812 3.69335938 C19.24065438 3.79973633 21.12030244 3.90039934 23 4 C22.67 4.66 22.34 5.32 22 6 C19.27022936 6.08126109 16.5428983 6.14061663 13.8125 6.1875 C13.04357422 6.21263672 12.27464844 6.23777344 11.48242188 6.26367188 C6.87625719 6.32297872 3.66053404 6.14703227 0 3 C0 2.01 0 1.02 0 0 Z " fill="#3D657E" transform="translate(114,175)"/>
<path d="M0 0 C0.433125 0.474375 0.86625 0.94875 1.3125 1.4375 C3.02309613 3.23686957 3.02309613 3.23686957 6 4 C0.555 6.475 0.555 6.475 -5 9 C-5.33 8.01 -5.66 7.02 -6 6 C-7.65 6.66 -9.3 7.32 -11 8 C-7.72291137 4.32966073 -4.28477792 2.30718811 0 0 Z " fill="#2A5F81" transform="translate(138,75)"/>
<path d="M0 0 C0.99 0.33 1.98 0.66 3 1 C-2.28 6.28 -7.56 11.56 -13 17 C-13.33 16.01 -13.66 15.02 -14 14 C-13.34 14 -12.68 14 -12 14 C-11.34 12.35 -10.68 10.7 -10 9 C-9.01 9 -8.02 9 -7 9 C-7 8.34 -7 7.68 -7 7 C-6.34 7 -5.68 7 -5 7 C-5 5.35 -5 3.7 -5 2 C-4.01 1.67 -3.02 1.34 -2 1 C-1.34 1.33 -0.68 1.66 0 2 C0 1.34 0 0.68 0 0 Z " fill="#C5E0EA" transform="translate(78,119)"/>
<path d="M0 0 C0.88257281 2.43245678 1.21943692 3.52647822 0.109375 5.921875 C-0.33921875 6.52515625 -0.7878125 7.1284375 -1.25 7.75 C-1.68828125 8.36359375 -2.1265625 8.9771875 -2.578125 9.609375 C-4 11 -4 11 -7 11 C-7.33 11.99 -7.66 12.98 -8 14 C-10.0625 14.6875 -10.0625 14.6875 -12 15 C-9.94196512 11.39843896 -7.75464117 8.11007874 -5 5 C-4.34 5 -3.68 5 -3 5 C-2.690625 4.360625 -2.38125 3.72125 -2.0625 3.0625 C-1 1 -1 1 0 0 Z " fill="#CEE8EC" transform="translate(191,82)"/>
<path d="M0 0 C1.65 0 3.3 0 5 0 C5 3.3 5 6.6 5 10 C3.35 10 1.7 10 0 10 C0 6.7 0 3.4 0 0 Z " fill="#BFE5ED" transform="translate(125,134)"/>
<path d="M0 0 C0.66 0.33 1.32 0.66 2 1 C2.33 1.99 2.66 2.98 3 4 C2.01 4.33 1.02 4.66 0 5 C1.32 5.33 2.64 5.66 4 6 C4 6.66 4 7.32 4 8 C1.69 8.66 -0.62 9.32 -3 10 C-3 9.34 -3 8.68 -3 8 C-3.66 7.67 -4.32 7.34 -5 7 C-4.67 6.34 -4.34 5.68 -4 5 C-4.66 4.67 -5.32 4.34 -6 4 C-4.02 2.68 -2.04 1.36 0 0 Z " fill="#1C5876" transform="translate(156,63)"/>
<path d="M0 0 C0.99 0 1.98 0 3 0 C3.46192125 4.92715996 1.8275283 8.50732625 0 13 C4.455 13.99 4.455 13.99 9 15 C9 15.33 9 15.66 9 16 C2.9453125 16.1953125 2.9453125 16.1953125 1 16 C-1 14 -1 14 -1.125 10.875 C-1.08375 9.92625 -1.0425 8.9775 -1 8 C-1.66 7.67 -2.32 7.34 -3 7 C-2.01 4.69 -1.02 2.38 0 0 Z " fill="#08475F" transform="translate(41,168)"/>
<path d="M0 0 C0 3.22981983 -0.81530252 5.03825629 -2 8 C-2 8.99 -2 9.98 -2 11 C-2.99 11.495 -2.99 11.495 -4 12 C-4.66 11.34 -5.32 10.68 -6 10 C-7.65 11.32 -9.3 12.64 -11 14 C-11.66 13.67 -12.32 13.34 -13 13 C-8.71 8.71 -4.42 4.42 0 0 Z " fill="#305E73" transform="translate(81,119)"/>
<path d="M0 0 C0.99 0 1.98 0 3 0 C1.64780353 4.71498874 -0.30838152 8.32629588 -3.0625 12.375 C-3.77535156 13.43460938 -4.48820313 14.49421875 -5.22265625 15.5859375 C-5.80917969 16.38257812 -6.39570313 17.17921875 -7 18 C-7.33 18 -7.66 18 -8 18 C-7.75 14.6875 -7.75 14.6875 -7 11 C-5.67732273 9.98594743 -4.34275169 8.98731742 -3 8 C-1.76566194 5.40685281 -0.85848051 2.73803254 0 0 Z " fill="#1F4B69" transform="translate(199,64)"/>
<path d="M0 0 C0.99 0.33 1.98 0.66 3 1 C3.63019694 10.17286652 3.63019694 10.17286652 1 13.625 C0.34 14.07875 -0.32 14.5325 -1 15 C-2.125 11.25 -2.125 11.25 -1 9 C-0.77532169 7.46331135 -0.59203195 5.92031946 -0.4375 4.375 C-0.35371094 3.55773438 -0.26992187 2.74046875 -0.18359375 1.8984375 C-0.12300781 1.27195313 -0.06242188 0.64546875 0 0 Z " fill="#DEF3F6" transform="translate(205,51)"/>
<path d="M0 0 C0.66 0.33 1.32 0.66 2 1 C2 4.48379452 1.60544626 4.82622343 -0.75 7.1875 C-1.26046875 7.71730469 -1.7709375 8.24710938 -2.296875 8.79296875 C-4 10 -4 10 -8 10 C-8 7 -8 7 -6.25 5.17578125 C-5.5075 4.56089844 -4.765 3.94601563 -4 3.3125 C-3.2575 2.68988281 -2.515 2.06726563 -1.75 1.42578125 C-1.1725 0.95527344 -0.595 0.48476562 0 0 Z " fill="#174960" transform="translate(94,109)"/>
<path d="M0 0 C0 0.99 0 1.98 0 3 C-0.66 3 -1.32 3 -2 3 C-2.33 3.66 -2.66 4.32 -3 5 C-3.99 5 -4.98 5 -6 5 C-6 5.66 -6 6.32 -6 7 C-7.98 7.99 -7.98 7.99 -10 9 C-10.33 7.68 -10.66 6.36 -11 5 C-4.85714286 -0.71428571 -4.85714286 -0.71428571 0 0 Z " fill="#124566" transform="translate(182,90)"/>
<path d="M0 0 C0.33 0 0.66 0 1 0 C1 1.65 1 3.3 1 5 C0.38125 5.2475 -0.2375 5.495 -0.875 5.75 C-3.4072196 7.23954094 -3.80718658 8.37581048 -5 11 C-6.625 12.75 -6.625 12.75 -8 14 C-8.99 13.67 -9.98 13.34 -11 13 C-9.54300902 11.20724155 -8.08436345 9.41582771 -6.625 7.625 C-5.40683594 6.12839844 -5.40683594 6.12839844 -4.1640625 4.6015625 C-2 2 -2 2 0 0 Z " fill="#2B5670" transform="translate(62,138)"/>
<path d="M0 0 C0.66 0 1.32 0 2 0 C2.38937141 3.4069998 2.15388085 4.76368298 0.25 7.6875 C-1.80772169 9.80238063 -3.28599761 10.93378478 -6 12 C-6 12.99 -6 13.98 -6 15 C-6.99 14.67 -7.98 14.34 -9 14 C-8.51789063 13.32453125 -8.03578125 12.6490625 -7.5390625 11.953125 C-6.90742188 11.06109375 -6.27578125 10.1690625 -5.625 9.25 C-4.99851563 8.36828125 -4.37203125 7.4865625 -3.7265625 6.578125 C-2.28519059 4.42585021 -1.08501907 2.34539477 0 0 Z " fill="#D2EBF2" transform="translate(201,66)"/>
<path d="M0 0 C0.66 0.33 1.32 0.66 2 1 C1.21625 1.886875 0.4325 2.77375 -0.375 3.6875 C-2.57156991 6.30720519 -3.93790341 8.71715601 -5 12 C-7.31 12.33 -9.62 12.66 -12 13 C-8.19524578 8.43969176 -4.25030379 4.14910608 0 0 Z " fill="#BCD7DE" transform="translate(96,112)"/>
<path d="M0 0 C0.66 0.33 1.32 0.66 2 1 C-7.55550053 9.13279267 -7.55550053 9.13279267 -13 9 C-13.66 8.34 -14.32 7.68 -15 7 C-13.3767313 6.3291288 -11.75132422 5.66342971 -10.125 5 C-9.22007812 4.62875 -8.31515625 4.2575 -7.3828125 3.875 C-5 3 -5 3 -3 3 C-3 2.34 -3 1.68 -3 1 C-2.01 0.67 -1.02 0.34 0 0 Z " fill="#CBDEE1" transform="translate(163,68)"/>
<path d="M0 0 C-4.44404597 3.62107449 -8.21434368 5.33060893 -14 5 C-14 4.01 -14 3.02 -14 2 C-9.15758367 0.66416101 -5.06562383 -0.25328119 0 0 Z " fill="#1E566A" transform="translate(72,176)"/>
<path d="M0 0 C0.66 0.66 1.32 1.32 2 2 C-1.3 4.97 -4.6 7.94 -8 11 C-8.33 10.01 -8.66 9.02 -9 8 C-8.34 8 -7.68 8 -7 8 C-7.33 7.01 -7.66 6.02 -8 5 C-4.04 2.525 -4.04 2.525 0 0 Z " fill="#D7F2F6" transform="translate(96,103)"/>
<path d="M0 0 C0.33 0 0.66 0 1 0 C1.13277344 0.78246094 1.26554687 1.56492188 1.40234375 2.37109375 C1.57894531 3.38300781 1.75554687 4.39492187 1.9375 5.4375 C2.11152344 6.44683594 2.28554687 7.45617187 2.46484375 8.49609375 C2.74751097 10.9287438 2.74751097 10.9287438 4 12 C4.04063832 13.66617115 4.042721 15.33388095 4 17 C3.67 16.34 3.34 15.68 3 15 C2.01 14.67 1.02 14.34 0 14 C0 9.38 0 4.76 0 0 Z " fill="#174766" transform="translate(109,156)"/>
<path d="M0 0 C3.125 -0.1875 3.125 -0.1875 6 0 C4.54744301 3.82946843 2.57104439 5.12050295 -1 7 C-1.625 5.1875 -1.625 5.1875 -2 3 C-1.34 2.01 -0.68 1.02 0 0 Z " fill="#1C4C60" transform="translate(110,95)"/>
<path d="M0 0 C1.65 0 3.3 0 5 0 C5 0.66 5 1.32 5 2 C1.02389214 4.71486934 -3.13901977 4.22440753 -7.75 4.125 C-8.54277344 4.11597656 -9.33554688 4.10695312 -10.15234375 4.09765625 C-12.10169281 4.07417012 -14.05088575 4.03830137 -16 4 C-16 3.67 -16 3.34 -16 3 C-11.05 3 -6.1 3 -1 3 C-0.67 2.01 -0.34 1.02 0 0 Z " fill="#114766" transform="translate(137,175)"/>
<path d="M0 0 C0.33 1.32 0.66 2.64 1 4 C0.34 3.01 -0.32 2.02 -1 1 C-0.67 0.67 -0.34 0.34 0 0 Z M-4 1 C-3.01 1.33 -2.02 1.66 -1 2 C-1.33 2.53625 -1.66 3.0725 -2 3.625 C-3.22699204 6.5391061 -3.14233286 8.86867708 -3 12 C-3.66 12 -4.32 12 -5 12 C-5 10.68 -5 9.36 -5 8 C-6.32 8.33 -7.64 8.66 -9 9 C-8.0409375 8.13375 -8.0409375 8.13375 -7.0625 7.25 C-5.01776132 5.01937599 -4.41794801 3.92563609 -4 1 Z " fill="#0A4665" transform="translate(63,142)"/>
<path d="M0 0 C0.05399736 1.45792884 0.09279177 2.91642712 0.125 4.375 C0.14820313 5.18710938 0.17140625 5.99921875 0.1953125 6.8359375 C0 9 0 9 -2 11 C-2 9.02 -2 7.04 -2 5 C-3.32 5 -4.64 5 -6 5 C-5 2 -5 2 -3 0.8125 C-1 0 -1 0 0 0 Z " fill="#CFF1F6" transform="translate(152,123)"/>
<path d="M0 0 C0.33 0.99 0.66 1.98 1 3 C0.67 3.66 0.34 4.32 0 5 C0.99 5.33 1.98 5.66 3 6 C2.01 6.33 1.02 6.66 0 7 C-0.99 6.34 -1.98 5.68 -3 5 C-4.98 6.98 -6.96 8.96 -9 11 C-9.66 10.67 -10.32 10.34 -11 10 C-3.70159453 2.51708428 -3.70159453 2.51708428 0 0 Z " fill="#33647B" transform="translate(97,105)"/>
<path d="M0 0 C-2.25 2.5 -2.25 2.5 -5 5 C-6.32 5 -7.64 5 -9 5 C-8.625 3.0625 -8.625 3.0625 -8 1 C-5.29120665 -0.35439668 -2.99066732 -0.06501451 0 0 Z " fill="#DDF4F3" transform="translate(113,92)"/>
<path d="M0 0 C1.32 0 2.64 0 4 0 C3.67 0.680625 3.34 1.36125 3 2.0625 C1.4679225 6.56297767 1.50062502 10.50187505 3 15 C2.01 15.33 1.02 15.66 0 16 C0 10.72 0 5.44 0 0 Z " fill="#D7EEF3" transform="translate(36,168)"/>
<path d="M0 0 C0.66 0.99 1.32 1.98 2 3 C1.34 4.32 0.68 5.64 0 7 C-1.32 6.67 -2.64 6.34 -4 6 C-4.33 4.35 -4.66 2.7 -5 1 C-2.525 1.495 -2.525 1.495 0 2 C0 1.34 0 0.68 0 0 Z " fill="#215672" transform="translate(130,169)"/>
<path d="M0 0 C-1.32 0.33 -2.64 0.66 -4 1 C-4 1.66 -4 2.32 -4 3 C-10.625 4.125 -10.625 4.125 -14 3 C-14 2.34 -14 1.68 -14 1 C-9.27616037 0.34843591 -4.78025483 -0.11950637 0 0 Z " fill="#064565" transform="translate(74,168)"/>
<path d="M0 0 C-1.43554025 0.50559908 -2.8735202 1.0042749 -4.3125 1.5 C-5.51326172 1.91765625 -5.51326172 1.91765625 -6.73828125 2.34375 C-9 3 -9 3 -12 3 C-11.67 2.01 -11.34 1.02 -11 0 C-6.48177403 -1.79024048 -4.20003215 -2.47551564 0 0 Z " fill="#25566E" transform="translate(172,66)"/>
<path d="M0 0 C0.33 0.66 0.66 1.32 1 2 C0.34 2 -0.32 2 -1 2 C-1 2.66 -1 3.32 -1 4 C-4.7367843 6.49118953 -6.74451819 6.2065226 -11.1875 6.125 C-12.45980469 6.10695312 -13.73210937 6.08890625 -15.04296875 6.0703125 C-16.50669922 6.03550781 -16.50669922 6.03550781 -18 6 C-18 5.67 -18 5.34 -18 5 C-17.20335938 4.97421875 -16.40671875 4.9484375 -15.5859375 4.921875 C-9.18240118 4.57910663 -4.92103622 4.23755897 0 0 Z " fill="#B5D0D8" transform="translate(142,176)"/>
<path d="M0 0 C0.33 0.99 0.66 1.98 1 3 C-0.65848177 4.01351664 -2.32665961 5.01120795 -4 6 C-5.0209375 6.61875 -5.0209375 6.61875 -6.0625 7.25 C-8 8 -8 8 -12 7 C-8.04 4.69 -4.08 2.38 0 0 Z " fill="#CBE2EA" transform="translate(104,158)"/>
<path d="M0 0 C0.13277344 0.56203125 0.26554687 1.1240625 0.40234375 1.703125 C1.02437111 4.09366153 1.77115041 6.41035775 2.5625 8.75 C2.83191406 9.54921875 3.10132813 10.3484375 3.37890625 11.171875 C3.58386719 11.77515625 3.78882813 12.3784375 4 13 C0.125 11.25 0.125 11.25 -1 9 C-1.23333333 2.46666667 -1.23333333 2.46666667 0 0 Z " fill="#486D7C" transform="translate(38,171)"/>
<path d="M0 0 C0.66 1.32 1.32 2.64 2 4 C2.33 4.33 2.66 4.66 3 5 C3.25 7.9375 3.25 7.9375 3 11 C2.01 11.66 1.02 12.32 0 13 C0 8.71 0 4.42 0 0 Z " fill="#E1F2F9" transform="translate(147,157)"/>
<path d="M0 0 C0.66 0.33 1.32 0.66 2 1 C1.01 2.485 1.01 2.485 0 4 C0.99 4.66 1.98 5.32 3 6 C1.02 6.99 1.02 6.99 -1 8 C-1 7.34 -1 6.68 -1 6 C-2.65 6 -4.3 6 -6 6 C-5.34 5.01 -4.68 4.02 -4 3 C-3.34 3 -2.68 3 -2 3 C-2 2.34 -2 1.68 -2 1 C-1.34 0.67 -0.68 0.34 0 0 Z " fill="#3A697C" transform="translate(117,89)"/>
<path d="M0 0 C0.66 0.33 1.32 0.66 2 1 C-0.43044383 4.64566574 -1.82388959 4.9977335 -6 6 C-8.1953125 5.546875 -8.1953125 5.546875 -10 5 C-8.38007835 4.13624104 -6.75388139 3.28424146 -5.125 2.4375 C-4.22007813 1.96183594 -3.31515625 1.48617187 -2.3828125 0.99609375 C-1.20332031 0.50302734 -1.20332031 0.50302734 0 0 Z " fill="#C4D8E3" transform="translate(80,172)"/>
<path d="M0 0 C2.01822917 0.29296875 4.03645833 0.5859375 6.0546875 0.87890625 C8.08140667 1.1684297 8.08140667 1.1684297 10 0 C10 0.66 10 1.32 10 2 C11.32 2.66 12.64 3.32 14 4 C13.34 4 12.68 4 12 4 C11.67 4.99 11.34 5.98 11 7 C11 5.68 11 4.36 11 3 C10.4225 3.185625 9.845 3.37125 9.25 3.5625 C6.79307475 4.04023546 5.35602466 3.75729364 3 3 C3 2.34 3 1.68 3 1 C2.01 0.67 1.02 0.34 0 0 Z " fill="#356885" transform="translate(132,124)"/>
<path d="M0 0 C1.32 0 2.64 0 4 0 C3.67 1.65 3.34 3.3 3 5 C2.01 5.33 1.02 5.66 0 6 C-0.66 5.67 -1.32 5.34 -2 5 C-1.34 3.35 -0.68 1.7 0 0 Z " fill="#1F4B5C" transform="translate(144,121)"/>
<path d="M0 0 C0.99 0.33 1.98 0.66 3 1 C2.0479279 2.00596297 1.08812654 3.00461563 0.125 4 C-0.40867187 4.556875 -0.94234375 5.11375 -1.4921875 5.6875 C-3 7 -3 7 -5 7 C-5 5.35 -5 3.7 -5 2 C-4.01 1.67 -3.02 1.34 -2 1 C-1.34 1.33 -0.68 1.66 0 2 C0 1.34 0 0.68 0 0 Z " fill="#D5EFF1" transform="translate(78,119)"/>
<path d="M0 0 C0.33 1.32 0.66 2.64 1 4 C0.01 4 -0.98 4 -2 4 C-3.52299523 6.93720508 -4.80100302 9.9168649 -6 13 C-6.6875 11.3125 -6.6875 11.3125 -7 9 C-5.26205705 5.34117274 -2.94897721 2.74559948 0 0 Z " fill="#E0F2F4" transform="translate(175,100)"/>
<path d="M0 0 C0.66 0.66 1.32 1.32 2 2 C-0.31 4.64 -2.62 7.28 -5 10 C-5.66 9.34 -6.32 8.68 -7 8 C-6.34 7.01 -5.68 6.02 -5 5 C-4.34 5 -3.68 5 -3 5 C-3 4.34 -3 3.68 -3 3 C-2.01 3 -1.02 3 0 3 C0 2.01 0 1.02 0 0 Z " fill="#325976" transform="translate(179,92)"/>
<path d="M0 0 C-3.1254959 2.64465038 -6.08788267 3.84414715 -10 5 C-10 4.01 -10 3.02 -10 2 C-6.5980513 -0.09350689 -3.94727588 -0.17942163 0 0 Z " fill="#D6EDF3" transform="translate(90,159)"/>
<path d="M0 0 C0.433125 0.474375 0.86625 0.94875 1.3125 1.4375 C3.02309613 3.23686957 3.02309613 3.23686957 6 4 C2.535 5.485 2.535 5.485 -1 7 C-1.66 5.68 -2.32 4.36 -3 3 C-2.01 2.01 -1.02 1.02 0 0 Z " fill="#245C78" transform="translate(138,75)"/>
<path d="M0 0 C0.99 0 1.98 0 3 0 C2.690625 0.598125 2.38125 1.19625 2.0625 1.8125 C0.89790296 4.08956772 0.89790296 4.08956772 0 7 C-0.99 7.33 -1.98 7.66 -3 8 C-2.25 2.25 -2.25 2.25 0 0 Z " fill="#C4D4DD" transform="translate(68,141)"/>
<path d="M0 0 C1.43739513 -0.02712066 2.87493863 -0.04645067 4.3125 -0.0625 C5.51326172 -0.07990234 5.51326172 -0.07990234 6.73828125 -0.09765625 C9 0 9 0 12 1 C12 1.66 12 2.32 12 3 C13.32 3.33 14.64 3.66 16 4 C10.49191603 3.40984815 5.35121931 2.43336231 0 1 C0 0.67 0 0.34 0 0 Z " fill="#104562" transform="translate(123,124)"/>
<path d="M0 0 C0.66 0.99 1.32 1.98 2 3 C-0.31 4.98 -2.62 6.96 -5 9 C-5.33 8.01 -5.66 7.02 -6 6 C-5.67 5.34 -5.34 4.68 -5 4 C-4.01 4 -3.02 4 -2 4 C-1.34 2.68 -0.68 1.36 0 0 Z " fill="#D8ECF2" transform="translate(150,112)"/>
<path d="M0 0 C0 0.66 0 1.32 0 2 C-0.99 2.33 -1.98 2.66 -3 3 C-4.20882096 5.00016466 -4.20882096 5.00016466 -5 7 C-6.65 7 -8.3 7 -10 7 C-3.18421053 0 -3.18421053 0 0 0 Z " fill="#ABCDDB" transform="translate(138,82)"/>
<path d="M0 0 C0.33 0 0.66 0 1 0 C1 1.98 1 3.96 1 6 C-0.98 6.66 -2.96 7.32 -5 8 C-3.6299034 5.0490227 -2.06764583 2.51713405 0 0 Z " fill="#2B5C76" transform="translate(50,152)"/>
<path d="M0 0 C0.33 0 0.66 0 1 0 C1.02694851 1.95825873 1.04637218 3.91662226 1.0625 5.875 C1.07410156 6.96554688 1.08570313 8.05609375 1.09765625 9.1796875 C1 12 1 12 0 14 C-1.32 13.67 -2.64 13.34 -4 13 C-3.34 13 -2.68 13 -2 13 C-1.34 8.71 -0.68 4.42 0 0 Z " fill="#BAD8E4" transform="translate(130,157)"/>
<path d="M0 0 C-1.65 1.65 -3.3 3.3 -5 5 C-5.66 4.67 -6.32 4.34 -7 4 C-6.625 2.0625 -6.625 2.0625 -6 0 C-3.50907189 -1.24546405 -2.58919267 -0.7767578 0 0 Z " fill="#18526C" transform="translate(50,160)"/>
<path d="M0 0 C0.33 0 0.66 0 1 0 C0.125 6.75 0.125 6.75 -1 9 C-1.99 9 -2.98 9 -4 9 C-2.94124926 5.59687262 -1.99097846 2.98646769 0 0 Z " fill="#D2EAF1" transform="translate(64,147)"/>
<path d="M0 0 C0.99 0 1.98 0 3 0 C1.44499019 3.81684226 -1.03595495 6.19195732 -4 9 C-4.33 8.34 -4.66 7.68 -5 7 C-4.34 7 -3.68 7 -3 7 C-3 6.01 -3 5.02 -3 4 C-2.34 3.67 -1.68 3.34 -1 3 C-0.67 2.01 -0.34 1.02 0 0 Z " fill="#D6EEF6" transform="translate(49,149)"/>
<path d="M0 0 C1.65 0.33 3.3 0.66 5 1 C4.67 1.99 4.34 2.98 4 4 C3.01 4.33 2.02 4.66 1 5 C0.01 4.34 -0.98 3.68 -2 3 C-1.34 2.01 -0.68 1.02 0 0 Z " fill="#124557" transform="translate(140,74)"/>
<path d="M0 0 C0 0.66 0 1.32 0 2 C-0.99 2 -1.98 2 -3 2 C-3.33 2.99 -3.66 3.98 -4 5 C-5.9375 5.8125 -5.9375 5.8125 -8 6 C-8.66 5.34 -9.32 4.68 -10 4 C-8.71086513 3.32845067 -7.41859796 2.66291141 -6.125 2 C-5.40570313 1.62875 -4.68640625 1.2575 -3.9453125 0.875 C-2 0 -2 0 0 0 Z " fill="#40728B" transform="translate(170,57)"/>
<path d="M0 0 C0.33 0 0.66 0 1 0 C1.63019694 8.03501094 1.63019694 8.03501094 -1 12.0625 C-1.66 12.701875 -2.32 13.34125 -3 14 C-2.67 11.69 -2.34 9.38 -2 7 C-1.34 7 -0.68 7 0 7 C0 4.69 0 2.38 0 0 Z " fill="#375E7A" transform="translate(146,161)"/>
<path d="M0 0 C3.63 0 7.26 0 11 0 C7 3 7 3 3 3 C3 2.34 3 1.68 3 1 C2.01 0.67 1.02 0.34 0 0 Z " fill="#CFEDF3" transform="translate(67,164)"/>
<path d="M0 0 C-1.28813342 0.83878455 -2.58063256 1.67086783 -3.875 2.5 C-4.59429687 2.9640625 -5.31359375 3.428125 -6.0546875 3.90625 C-8 5 -8 5 -10 5 C-9.01906046 2.54765115 -8.31296172 1.2190732 -6.125 -0.3125 C-3.62654486 -1.12082372 -2.47071024 -0.71847013 0 0 Z " fill="#D0ECF2" transform="translate(104,152)"/>
<path d="M0 0 C0.66 0.66 1.32 1.32 2 2 C1.625 4.125 1.625 4.125 1 6 C-0.32 6 -1.64 6 -3 6 C-3.33 5.34 -3.66 4.68 -4 4 C-2.68 2.68 -1.36 1.36 0 0 Z " fill="#16435C" transform="translate(75,127)"/>
<path d="M0 0 C-1.44472346 3.80881639 -3.32603071 5.29742886 -7 7 C-7.99 6.67 -8.98 6.34 -10 6 C-8.71283353 4.99421411 -7.42011342 3.99553202 -6.125 3 C-5.40570313 2.443125 -4.68640625 1.88625 -3.9453125 1.3125 C-2 0 -2 0 0 0 Z " fill="#CDE9EF" transform="translate(120,95)"/>
<path d="M0 0 C0.99 0.33 1.98 0.66 3 1 C2.67 2.32 2.34 3.64 2 5 C0.02 5 -1.96 5 -4 5 C-2.68 3.35 -1.36 1.7 0 0 Z " fill="#154B65" transform="translate(119,89)"/>
<path d="M0 0 C0.66 0.33 1.32 0.66 2 1 C0.8125 3.5 0.8125 3.5 -1 6 C-3.6875 6.3125 -3.6875 6.3125 -6 6 C-6 5.34 -6 4.68 -6 4 C-4.68 3.67 -3.36 3.34 -2 3 C-2 2.34 -2 1.68 -2 1 C-1.34 0.67 -0.68 0.34 0 0 Z " fill="#094161" transform="translate(94,158)"/>
<path d="M0 0 C0.66 0.33 1.32 0.66 2 1 C1.34 2.32 0.68 3.64 0 5 C-0.66 5 -1.32 5 -2 5 C-2.33 5.66 -2.66 6.32 -3 7 C-3.66 6.34 -4.32 5.68 -5 5 C-3.35 3.35 -1.7 1.7 0 0 Z " fill="#CDE4EF" transform="translate(74,135)"/>
<path d="M0 0 C1.24546405 2.49092811 0.7767578 3.41080733 0 6 C-1.98 6 -3.96 6 -6 6 C-4 4 -2 2 0 0 Z " fill="#D4EAEF" transform="translate(109,102)"/>
<path d="M0 0 C0.33 1.32 0.66 2.64 1 4 C-1.25 6.75 -1.25 6.75 -4 9 C-4.99 9 -5.98 9 -7 9 C-4.69 6.03 -2.38 3.06 0 0 Z " fill="#446D85" transform="translate(178,85)"/>
<path d="M0 0 C-0.99 1.485 -0.99 1.485 -2 3 C-2.33 2.67 -2.66 2.34 -3 2 C-4.68183948 1.76712992 -6.3712416 1.58735834 -8.0625 1.4375 C-9.44115234 1.31181641 -9.44115234 1.31181641 -10.84765625 1.18359375 C-11.91306641 1.09271484 -11.91306641 1.09271484 -13 1 C-13 0.67 -13 0.34 -13 0 C-8.34462607 -0.83796731 -4.62921525 -1.0161692 0 0 Z " fill="#C0DAE1" transform="translate(205,48)"/>
<path d="M0 0 C0.66 0.33 1.32 0.66 2 1 C1.67 1.99 1.34 2.98 1 4 C-1.31 4.33 -3.62 4.66 -6 5 C-4.06745228 2.9754262 -2.36841312 1.57894208 0 0 Z " fill="#AECDDC" transform="translate(88,167)"/>
<path d="M0 0 C0 1.65 0 3.3 0 5 C-3.75 6.125 -3.75 6.125 -6 5 C-1.125 0 -1.125 0 0 0 Z " fill="#336678" transform="translate(63,138)"/>
<path d="M0 0 C0.66 0 1.32 0 2 0 C1.01 3.3 0.02 6.6 -1 10 C-1.33 10 -1.66 10 -2 10 C-2.1953125 3.9453125 -2.1953125 3.9453125 -2 2 C-1.34 1.34 -0.68 0.68 0 0 Z " fill="#C6E4EE" transform="translate(110,128)"/>
<path d="M0 0 C0.66 0.33 1.32 0.66 2 1 C1.67 1.99 1.34 2.98 1 4 C0.65772583 5.33106622 0.32248257 6.66400079 0 8 C-1.32 6.35 -2.64 4.7 -4 3 C-2.68 2.01 -1.36 1.02 0 0 Z " fill="#3D6675" transform="translate(108,96)"/>
<path d="M0 0 C-1.01454452 2.5363613 -1.6853556 3.79351461 -4 5.3125 C-4.66 5.539375 -5.32 5.76625 -6 6 C-6.66 5.67 -7.32 5.34 -8 5 C-6.68 4.67 -5.36 4.34 -4 4 C-4 3.01 -4 2.02 -4 1 C-2 0 -2 0 0 0 Z " fill="#D7ECF5" transform="translate(142,80)"/>
<path d="M0 0 C0.33 0.66 0.66 1.32 1 2 C0.0625 4.125 0.0625 4.125 -1 6 C-1.66 6 -2.32 6 -3 6 C-3 6.99 -3 7.98 -3 9 C-3.99 8.67 -4.98 8.34 -6 8 C-4.02 5.36 -2.04 2.72 0 0 Z " fill="#BED8E3" transform="translate(198,72)"/>
<path d="M0 0 C0.66 0.33 1.32 0.66 2 1 C2.33 1.99 2.66 2.98 3 4 C1.35 3.67 -0.3 3.34 -2 3 C-2 3.66 -2 4.32 -2 5 C-3.32 4.67 -4.64 4.34 -6 4 C-4.02 2.68 -2.04 1.36 0 0 Z " fill="#396D86" transform="translate(156,63)"/>
<path d="M0 0 C0.99 0.33 1.98 0.66 3 1 C3 1.66 3 2.32 3 3 C0.69 3.66 -1.62 4.32 -4 5 C-2.25 1.125 -2.25 1.125 0 0 Z " fill="#D3EFEB" transform="translate(157,60)"/>
<path d="M0 0 C0.66 1.32 1.32 2.64 2 4 C1.01 4 0.02 4 -1 4 C-1 5.98 -1 7.96 -1 10 C-2.1875 8.375 -2.1875 8.375 -3 6 C-1.625 2.75 -1.625 2.75 0 0 Z " fill="#245C6D" transform="translate(42,164)"/>
<path d="M0 0 C0.66 0.33 1.32 0.66 2 1 C2 1.99 2 2.98 2 4 C0.02 4.99 0.02 4.99 -2 6 C-1.125 1.125 -1.125 1.125 0 0 Z " fill="#0C4459" transform="translate(94,109)"/>
<path d="M0 0 C0.66 1.32 1.32 2.64 2 4 C1.34 4.66 0.68 5.32 0 6 C-0.99 5.67 -1.98 5.34 -3 5 C-1.125 1.125 -1.125 1.125 0 0 Z " fill="#064E70" transform="translate(184,84)"/>
<path d="M0 0 C0.33 1.32 0.66 2.64 1 4 C-0.65 3.67 -2.3 3.34 -4 3 C-4 3.66 -4 4.32 -4 5 C-4.66 4.67 -5.32 4.34 -6 4 C-2.25 0 -2.25 0 0 0 Z " fill="#11425C" transform="translate(132,81)"/>
<path d="M0 0 C0 0.66 0 1.32 0 2 C-0.99 2.33 -1.98 2.66 -3 3 C-4.37195574 4.29355827 -5.71182656 5.62298702 -7 7 C-7 6.01 -7 5.02 -7 4 C-2.65714286 0 -2.65714286 0 0 0 Z " fill="#31677B" transform="translate(150,68)"/>
</svg>
