<?xml version="1.0" encoding="UTF-8"?>
<svg version="1.1" xmlns="http://www.w3.org/2000/svg" width="250" height="250">
<path d="M0 0 C2.125 1.875 2.125 1.875 3.1875 4.375 C3.02778901 13.3188152 -1.65905328 20.90186866 -6.875 27.875 C-8.04482422 29.44314453 -8.04482422 29.44314453 -9.23828125 31.04296875 C-19.80234173 45.04531282 -19.80234173 45.04531282 -23.875 48.875 C-24.535 48.875 -25.195 48.875 -25.875 48.875 C-26.13139755 49.47122665 -26.3877951 50.06745331 -26.65196228 50.68174744 C-27.98454132 53.07143858 -29.34381345 54.24097559 -31.44360352 55.96704102 C-35.19081173 59.62681255 -35.70933635 62.39208889 -35.82054138 67.52903748 C-35.80628616 68.47722855 -35.79203094 69.42541962 -35.77734375 70.40234375 C-35.78963516 71.39126114 -35.80192657 72.38017853 -35.81459045 73.39906311 C-35.84622022 76.53763893 -35.830072 79.67385267 -35.8125 82.8125 C-35.82561478 84.94858946 -35.84185751 87.08466215 -35.86132812 89.22070312 C-35.90209544 94.4391527 -35.90371129 99.65649477 -35.875 104.875 C-38.18743792 104.90185412 -40.4999627 104.92132841 -42.8125 104.9375 C-44.10027344 104.94910156 -45.38804687 104.96070313 -46.71484375 104.97265625 C-49.875 104.875 -49.875 104.875 -50.875 103.875 C-51.03358842 101.73113343 -51.12629298 99.58233162 -51.19140625 97.43359375 C-51.23330078 96.12841797 -51.27519531 94.82324219 -51.31835938 93.47851562 C-51.35817608 92.0898467 -51.39788825 90.70117478 -51.4375 89.3125 C-51.48067989 87.91990817 -51.524294 86.52732972 -51.56835938 85.13476562 C-51.67485876 81.71495199 -51.77686923 78.29506237 -51.875 74.875 C-53.855 76.525 -55.835 78.175 -57.875 79.875 C-57.6584375 80.720625 -57.441875 81.56625 -57.21875 82.4375 C-53.41158537 97.94817073 -53.41158537 97.94817073 -56.875 104.875 C-63.475 104.875 -70.075 104.875 -76.875 104.875 C-76.38 112.795 -76.38 112.795 -75.875 120.875 C-75.215 120.875 -74.555 120.875 -73.875 120.875 C-73.215 116.585 -72.555 112.295 -71.875 107.875 C-66.925 107.545 -61.975 107.215 -56.875 106.875 C-54.35824298 110.65013553 -54.50691222 112.3843291 -54.875 116.875 C-56.23365815 122.46885034 -58.37227995 126.14103703 -62.875 129.875 C-69.14939565 133.52412551 -76.86644441 133.54479828 -83.765625 131.734375 C-88.32284673 129.87772911 -91.83259042 126.93229679 -94.05859375 122.5390625 C-94.96855657 119.56971014 -95.07465 117.16047495 -95 114.0625 C-94.98195313 113.08667969 -94.96390625 112.11085938 -94.9453125 111.10546875 C-94.92210938 110.36941406 -94.89890625 109.63335937 -94.875 108.875 C-99.11019603 110.47496294 -102.72907634 112.36706512 -106.5 114.875 C-142.8234271 138.42260101 -142.8234271 138.42260101 -160.875 135.875 C-163.875 134.3125 -163.875 134.3125 -165.875 131.875 C-166.47377117 126.21452371 -165.08509669 122.18004447 -162.5 117.25 C-162.14711914 116.55994873 -161.79423828 115.86989746 -161.43066406 115.15893555 C-157.68460303 108.09324064 -152.97028326 102.01880243 -147.875 95.875 C-147.15828125 94.93011719 -146.4415625 93.98523438 -145.703125 93.01171875 C-145.09984375 92.30660156 -144.4965625 91.60148437 -143.875 90.875 C-143.215 90.875 -142.555 90.875 -141.875 90.875 C-141.61525391 90.29073242 -141.35550781 89.70646484 -141.08789062 89.10449219 C-139.790344 86.71938836 -138.38158878 85.12309363 -136.46875 83.203125 C-135.80746094 82.53925781 -135.14617187 81.87539062 -134.46484375 81.19140625 C-133.77519531 80.50949219 -133.08554688 79.82757813 -132.375 79.125 C-131.68535156 78.42761719 -130.99570313 77.73023437 -130.28515625 77.01171875 C-129.62386719 76.35300781 -128.96257812 75.69429688 -128.28125 75.015625 C-127.67603516 74.41266602 -127.07082031 73.80970703 -126.44726562 73.18847656 C-124.875 71.875 -124.875 71.875 -122.875 71.875 C-122.57142578 71.05515625 -122.57142578 71.05515625 -122.26171875 70.21875 C-120.32171961 66.93987822 -117.58290186 64.77859633 -114.6875 62.375 C-113.75200317 61.58778564 -113.75200317 61.58778564 -112.79760742 60.78466797 C-110.83144946 59.13813658 -108.85523323 57.50456693 -106.875 55.875 C-106.27429688 55.3790332 -105.67359375 54.88306641 -105.0546875 54.37207031 C-26.36900502 -10.31830631 -26.36900502 -10.31830631 0 0 Z M-91.17773438 51.54248047 C-93.03898673 53.00374562 -94.91667903 54.44210938 -96.796875 55.87890625 C-98.09390543 56.8774023 -99.39078385 57.87609584 -100.6875 58.875 C-101.3050415 59.34413818 -101.92258301 59.81327637 -102.55883789 60.29663086 C-104.03493935 61.44283723 -105.46055063 62.65352648 -106.875 63.875 C-106.875 64.535 -106.875 65.195 -106.875 65.875 C-107.4529834 66.12918701 -108.0309668 66.38337402 -108.62646484 66.64526367 C-112.90300092 68.98412493 -116.08944234 72.75279865 -119.5 76.1875 C-120.30526123 76.99767578 -121.11052246 77.80785156 -121.94018555 78.64257812 C-137.20960475 93.57937611 -137.20960475 93.57937611 -144.3125 112.875 C-144.16426626 115.98417714 -144.16426626 115.98417714 -141.875 117.875 C-127.31916297 120.67987732 -109.42921107 109.06631431 -97.66235352 101.44116211 C-94.81797231 98.94878328 -95.16497586 96.22706992 -94.875 92.5625 C-94.41749187 86.81505416 -93.53137015 83.39909567 -89.875 78.875 C-84.8031767 74.56395019 -79.08509894 74.48877437 -72.69140625 74.6328125 C-69.875 74.875 -69.875 74.875 -66.25 75.9375 C-60.3325581 75.82791774 -56.82371711 70.93921889 -52.875 66.875 C-51.885 65.885 -51.885 65.885 -50.875 64.875 C-50.73002015 62.29435871 -50.68822455 59.82556116 -50.75 57.25 C-50.75902344 56.54359375 -50.76804687 55.8371875 -50.77734375 55.109375 C-50.80092397 53.36443902 -50.83679539 51.61967705 -50.875 49.875 C-49.44607422 49.96201172 -49.44607422 49.96201172 -47.98828125 50.05078125 C-46.73402344 50.09589844 -45.47976562 50.14101562 -44.1875 50.1875 C-42.94613281 50.24550781 -41.70476562 50.30351563 -40.42578125 50.36328125 C-34.8386678 49.59497632 -32.98056994 46.22666645 -29.55859375 42.04296875 C-22.09615803 32.66496724 -22.09615803 32.66496724 -18.5 21.5 C-18.62916667 18.72083333 -18.62916667 18.72083333 -20.875 16.875 C-43.70226342 11.78050344 -74.54940642 38.39107701 -91.17773438 51.54248047 Z M-75.875 84.875 C-77.10767348 85.88336062 -77.10767348 85.88336062 -76.97265625 87.94140625 C-76.96105469 88.76511719 -76.94945313 89.58882813 -76.9375 90.4375 C-76.92847656 91.26378906 -76.91945313 92.09007812 -76.91015625 92.94140625 C-76.89855469 93.57949219 -76.88695313 94.21757812 -76.875 94.875 C-75.885 94.875 -74.895 94.875 -73.875 94.875 C-73.875 91.905 -73.875 88.935 -73.875 85.875 C-74.535 85.545 -75.195 85.215 -75.875 84.875 Z " fill="#114667" transform="translate(202.875,49.125)"/>
<path d="M0 0 C0 0.99 0 1.98 0 3 C-0.61875 3.2475 -1.2375 3.495 -1.875 3.75 C-4.44124405 5.25955532 -4.90795594 6.26746308 -6 9 C-6.27688055 11.19135036 -6.27688055 11.19135036 -6.1875 13.4375 C-6.17332031 14.22640625 -6.15914062 15.0153125 -6.14453125 15.828125 C-6.05163922 18.10550427 -6.05163922 18.10550427 -5.375 20.6875 C-5 23 -5 23 -5.99609375 25.66015625 C-7.18465652 29.61432423 -7.02408617 32.64608188 -6.6875 36.75 C-6.58824219 38.06484375 -6.48898438 39.3796875 -6.38671875 40.734375 C-6.20127939 43.87987988 -6.20127939 43.87987988 -5 46 C-2.0262656 47.09036928 -1.11592499 47.03864166 2 46 C2.02578125 45.24074219 2.0515625 44.48148438 2.078125 43.69921875 C2.13484375 42.70535156 2.1915625 41.71148437 2.25 40.6875 C2.31960937 39.20830078 2.31960937 39.20830078 2.390625 37.69921875 C3 35 3 35 4.78125 33.15625 C8.30822341 31.31824977 11.07031263 31.80351563 15 32 C15.16852247 33.60397277 15.33474886 35.2081869 15.5 36.8125 C15.5928125 37.70582031 15.685625 38.59914062 15.78125 39.51953125 C16.1438947 43.63166309 15.89428094 46.30615216 14 50 C11.39608549 51.76394209 10.19219704 52 7 52 C6.67 52.33 6.34 52.66 6 53 C3.64686445 53.07271741 1.29166332 53.08370868 -1.0625 53.0625 C-2.35285156 53.05347656 -3.64320312 53.04445312 -4.97265625 53.03515625 C-5.97167969 53.02355469 -6.97070312 53.01195312 -8 53 C-7.01 52.34 -6.02 51.68 -5 51 C-5.33 50.67 -5.66 50.34 -6 50 C-6.5775 50.185625 -7.155 50.37125 -7.75 50.5625 C-10.70318037 51.13672952 -12.32852189 50.26153133 -15 49 C-15 48.34 -15 47.68 -15 47 C-15.66 47 -16.32 47 -17 47 C-17 46.34 -17 45.68 -17 45 C-17.66 45 -18.32 45 -19 45 C-18.96519531 43.69675781 -18.96519531 43.69675781 -18.9296875 42.3671875 C-18.91164063 41.21476562 -18.89359375 40.06234375 -18.875 38.875 C-18.85179688 37.73804688 -18.82859375 36.60109375 -18.8046875 35.4296875 C-18.84283996 32.0299698 -18.84283996 32.0299698 -20 29.09375 C-21.26852739 25.16924338 -21.22112023 21.71380658 -21.125 17.625 C-21.11597656 16.88894531 -21.10695313 16.15289062 -21.09765625 15.39453125 C-21.07430144 13.5962112 -21.03843836 11.79806089 -21 10 C-20.01 10.495 -20.01 10.495 -19 11 C-18.56429687 10.45730469 -18.12859375 9.91460937 -17.6796875 9.35546875 C-12.51664994 3.15311843 -8.50706097 -0.60764721 0 0 Z " fill="#054A73" transform="translate(130,126)"/>
<path d="M0 0 C0.99 0.495 0.99 0.495 2 1 C-2.75 4 -2.75 4 -5 4 C-4.01 5.98 -4.01 5.98 -3 8 C-2.42024414 7.83701416 -1.84048828 7.67402832 -1.24316406 7.50610352 C2.22673123 6.72322444 5.712623 6.89687641 9.25 6.9375 C9.99507813 6.94201172 10.74015625 6.94652344 11.5078125 6.95117188 C13.3385764 6.96290754 15.16929873 6.9808415 17 7 C17 7.33 17 7.66 17 8 C16.25878906 8.06316406 15.51757812 8.12632813 14.75390625 8.19140625 C-15.3656985 11.69368587 -42.37082485 33.99474987 -64.63671875 53.1640625 C-67 55 -67 55 -69 55 C-69 55.66 -69 56.32 -69 57 C-70.29296875 58.26953125 -70.29296875 58.26953125 -72.1875 59.8125 C-76.95590259 63.83610721 -81.27798618 68.24599605 -85.60620117 72.73168945 C-87.03482136 74.19058334 -88.51364992 75.5999677 -90 77 C-90.66 77 -91.32 77 -92 77 C-92.66 76.34 -93.32 75.68 -94 75 C-94.66 74.67 -95.32 74.34 -96 74 C-95.071875 73.113125 -94.14375 72.22625 -93.1875 71.3125 C-90.59926409 68.74862395 -88.84920976 66.14365659 -87 63 C-86.34 63 -85.68 63 -85 63 C-84.79761719 62.4534375 -84.59523438 61.906875 -84.38671875 61.34375 C-82.44671961 58.06487822 -79.70790186 55.90359633 -76.8125 53.5 C-75.87700317 52.71278564 -75.87700317 52.71278564 -74.92260742 51.90966797 C-72.95644946 50.26313658 -70.98023323 48.62956693 -69 47 C-68.39929688 46.5040332 -67.79859375 46.00806641 -67.1796875 45.49707031 C-23.93837821 9.94680888 -23.93837821 9.94680888 0 0 Z " fill="#1A415B" transform="translate(165,58)"/>
<path d="M0 0 C0.28571429 8.57142857 0.28571429 8.57142857 -2 12 C-2.99 12 -3.98 12 -5 12 C-5.185625 13.9490625 -5.185625 13.9490625 -5.375 15.9375 C-5.5859375 18.15234375 -5.5859375 18.15234375 -6 20 C-6.99 20.495 -6.99 20.495 -8 21 C-8.495 22.485 -8.495 22.485 -9 24 C-9.66 24 -10.32 24 -11 24 C-11.28875 24.78375 -11.5775 25.5675 -11.875 26.375 C-13 29 -13 29 -15 31 C-16.98 30.34 -18.96 29.68 -21 29 C-20.67 28.01 -20.34 27.02 -20 26 C-19.90691456 24.33541327 -19.87003815 22.66718003 -19.875 21 C-19.87242187 20.13375 -19.86984375 19.2675 -19.8671875 18.375 C-19.90405795 15.84988305 -19.90405795 15.84988305 -21 13 C-23.58366245 13.14120016 -26.16682885 13.28778333 -28.75 13.4375 C-29.84441406 13.49647461 -29.84441406 13.49647461 -30.9609375 13.55664062 C-34.4272973 13.76147098 -37.65333026 14.0852002 -41 15 C-41.66 13.35 -42.32 11.7 -43 10 C-42.071875 9.566875 -41.14375 9.13375 -40.1875 8.6875 C-37.10988255 7.27197763 -37.10988255 7.27197763 -35.5625 5.5 C-32.39819692 2.46226904 -28.32728463 1 -24 1 C-24 1.66 -24 2.32 -24 3 C-23.2575 2.690625 -22.515 2.38125 -21.75 2.0625 C-17.37574425 0.82312754 -13.23117414 0.52494029 -8.70703125 0.24609375 C-1.28571429 -0.42857143 -1.28571429 -0.42857143 0 0 Z " fill="#054972" transform="translate(203,52)"/>
<path d="M0 0 C-1 1 -1 1 -4.16015625 1.09765625 C-6.09181641 1.08025391 -6.09181641 1.08025391 -8.0625 1.0625 C-9.35285156 1.05347656 -10.64320313 1.04445313 -11.97265625 1.03515625 C-12.97167969 1.02355469 -13.97070312 1.01195313 -15 1 C-14.67 1.66 -14.34 2.32 -14 3 C-12.68 3 -11.36 3 -10 3 C-5.33333333 3.66666667 -5.33333333 3.66666667 -3 6 C-2.81211469 8.78768929 -2.74445975 11.47414439 -2.76953125 14.26171875 C-2.77021858 15.4977459 -2.77021858 15.4977459 -2.7709198 16.75874329 C-2.77394472 18.50641311 -2.78183815 20.25408018 -2.79418945 22.00170898 C-2.81230871 24.65944127 -2.81470002 27.31682211 -2.81445312 29.97460938 C-2.81937396 31.67448214 -2.82520473 33.37435257 -2.83203125 35.07421875 C-2.83314407 35.86301926 -2.8342569 36.65181976 -2.83540344 37.46452332 C-2.87418165 42.0463202 -3.00825047 46.50690612 -4 51 C-7 53 -7 53 -14 53 C-14 43.43 -14 33.86 -14 24 C-14.99 23.67 -15.98 23.34 -17 23 C-16.67 22.34 -16.34 21.68 -16 21 C-16.66 20.67 -17.32 20.34 -18 20 C-17.01 18.515 -17.01 18.515 -16 17 C-16.66 16.67 -17.32 16.34 -18 16 C-17.67 15.67 -17.34 15.34 -17 15 C-16.76346477 12.47403741 -16.57826308 9.96892793 -16.4375 7.4375 C-16.39431641 6.72658203 -16.35113281 6.01566406 -16.30664062 5.28320312 C-16.20028223 3.52238088 -16.09961154 1.7612168 -16 0 C-13.7089095 -0.19441368 -11.41709663 -0.38033135 -9.125 -0.5625 C-7.21074219 -0.71912109 -7.21074219 -0.71912109 -5.2578125 -0.87890625 C-2 -1 -2 -1 0 0 Z " fill="#054A70" transform="translate(168,99)"/>
<path d="M0 0 C0.66 0.33 1.32 0.66 2 1 C1.47731534 3.76276177 0.89130413 6.3260876 0 9 C-0.06740865 10.56118428 -0.08514456 12.1250252 -0.0625 13.6875 C-0.05347656 14.49574219 -0.04445313 15.30398437 -0.03515625 16.13671875 C-0.02355469 16.75160156 -0.01195312 17.36648437 0 18 C0.66 18 1.32 18 2 18 C2.45375 18.474375 2.9075 18.94875 3.375 19.4375 C5.22977487 21.22093737 6.50135592 21.5691993 9 22 C9 21.34 9 20.68 9 20 C12.465 19.505 12.465 19.505 16 19 C16 20.65 16 22.3 16 24 C6.58997722 28.59225513 6.58997722 28.59225513 2 28 C1.67 28.99 1.34 29.98 1 31 C0.195625 30.979375 -0.60875 30.95875 -1.4375 30.9375 C-3.93354885 30.70366379 -3.93354885 30.70366379 -5 32 C-6.66429051 32.09823937 -8.33281931 32.12973631 -10 32.125 C-11.36125 32.12886719 -11.36125 32.12886719 -12.75 32.1328125 C-15 32 -15 32 -16 31 C-16.09886353 29.37747508 -16.12971167 27.75052727 -16.125 26.125 C-16.12757812 25.24070313 -16.13015625 24.35640625 -16.1328125 23.4453125 C-16 21 -16 21 -15 18 C-14.34 18 -13.68 18 -13 18 C-12.80664062 17.24074219 -12.61328125 16.48148438 -12.4140625 15.69921875 C-12.02347656 14.20841797 -12.02347656 14.20841797 -11.625 12.6875 C-11.36976562 11.70136719 -11.11453125 10.71523437 -10.8515625 9.69921875 C-9.8840668 6.63252366 -8.99446525 4.56353031 -6.125 2.9375 C-5.42375 2.628125 -4.7225 2.31875 -4 2 C-3.29875 1.608125 -2.5975 1.21625 -1.875 0.8125 C-1.25625 0.544375 -0.6375 0.27625 0 0 Z " fill="#044973" transform="translate(57,150)"/>
<path d="M0 0 C0.66 0.33 1.32 0.66 2 1 C-2.75 4 -2.75 4 -5 4 C-4.34 5.32 -3.68 6.64 -3 8 C-2.42024414 7.83701416 -1.84048828 7.67402832 -1.24316406 7.50610352 C2.22673123 6.72322444 5.712623 6.89687641 9.25 6.9375 C9.99507812 6.94201172 10.74015625 6.94652344 11.5078125 6.95117188 C13.3385764 6.96290754 15.16929873 6.9808415 17 7 C17 7.33 17 7.66 17 8 C16.25878906 8.06316406 15.51757812 8.12632813 14.75390625 8.19140625 C1.10993008 9.77791511 -11.10056219 15.18461059 -22.38671875 22.91015625 C-25 24 -25 24 -28.33203125 23.18359375 C-29.21246094 22.79300781 -30.09289062 22.40242188 -31 22 C-31.66 22.99 -32.32 23.98 -33 25 C-33 24.34 -33 23.68 -33 23 C-34.32 23.33 -35.64 23.66 -37 24 C-32.85795635 19.44041162 -28.22235859 16.35305649 -23 13.125 C-22.16218994 12.60268799 -21.32437988 12.08037598 -20.46118164 11.54223633 C-5.79010772 2.47057315 -5.79010772 2.47057315 0 0 Z " fill="#1A4A61" transform="translate(165,58)"/>
<path d="M0 0 C0.66 0 1.32 0 2 0 C4.77027506 6.27929013 5.32818201 12.21757174 5 19 C4.34 20.32 3.68 21.64 3 23 C-3.6 23 -10.2 23 -17 23 C-16.67 28.28 -16.34 33.56 -16 39 C-15.34 39 -14.68 39 -14 39 C-13.34 34.71 -12.68 30.42 -12 26 C-7.05 25.67 -2.1 25.34 3 25 C5.47717167 28.71575751 5.30345742 30.59986738 5 35 C4.125 37.875 4.125 37.875 3 40 C2.01 40.495 2.01 40.495 1 41 C1.185625 40.34 1.37125 39.68 1.5625 39 C2.13027308 35.10669886 1.59281707 31.88624521 1 28 C-4.32170494 27.70437633 -4.32170494 27.70437633 -9 30 C-9.54370178 32.1283291 -9.54370178 32.1283291 -9.625 34.5 C-9.92105263 38.84210526 -9.92105263 38.84210526 -11 41 C-11.66 41 -12.32 41 -13 41 C-13.33 41.66 -13.66 42.32 -14 43 C-16.4375 42.25 -16.4375 42.25 -19 41 C-20.36975176 37.43864543 -20.31807617 33.5211106 -20.5625 29.75 C-20.64628906 28.48671875 -20.73007813 27.2234375 -20.81640625 25.921875 C-20.87699219 24.95765625 -20.93757813 23.9934375 -21 23 C-20.34 23 -19.68 23 -19 23 C-18.67 22.01 -18.34 21.02 -18 20 C-17.01 19.67 -16.02 19.34 -15 19 C-15 19.66 -15 20.32 -15 21 C-9.39 21 -3.78 21 2 21 C2.21127763 13.71092162 1.51772071 7.12786692 0 0 Z " fill="#1C445F" transform="translate(143,131)"/>
<path d="M0 0 C0.99 0 1.98 0 3 0 C3 3.87180591 2.72592217 5.63445177 1 9 C-1.77843841 11.68263019 -4.17201888 12.62653843 -8 13 C-10.6875 12.5625 -10.6875 12.5625 -13 12 C-13.66 12 -14.32 12 -15 12 C-16.67502521 16.92038657 -17.17519045 20.98424499 -16.97265625 26.1796875 C-17 28 -17 28 -18 29 C-21.5 29.125 -21.5 29.125 -25 29 C-26.56033623 27.43966377 -26.20707559 25.91052864 -26.25 23.75 C-26.19820465 19.67111603 -25.6593317 17.2291885 -23 14 C-20.8125 12.1875 -20.8125 12.1875 -19 11 C-22.83225427 10.91087781 -26.26562152 11.12132271 -30 12 C-29.0390625 9.984375 -29.0390625 9.984375 -27 8 C-24.03131466 7.91704273 -21.31670385 8.0122145 -18.375 8.25 C-11.87004092 8.56666041 -11.87004092 8.56666041 -5.91796875 6.234375 C-3.55644734 4.07009989 -3.55644734 4.07009989 -1.62890625 1.75 C-1.09136719 1.1725 -0.55382812 0.595 0 0 Z M-22 18 C-23.23267348 19.00836062 -23.23267348 19.00836062 -23.09765625 21.06640625 C-23.08605469 21.89011719 -23.07445313 22.71382812 -23.0625 23.5625 C-23.05347656 24.38878906 -23.04445313 25.21507812 -23.03515625 26.06640625 C-23.02355469 26.70449219 -23.01195313 27.34257812 -23 28 C-22.01 28 -21.02 28 -20 28 C-20 25.03 -20 22.06 -20 19 C-20.66 18.67 -21.32 18.34 -22 18 Z " fill="#0D4763" transform="translate(149,116)"/>
<path d="M0 0 C0.66 0.33 1.32 0.66 2 1 C-2.75 4 -2.75 4 -5 4 C-4.34 5.32 -3.68 6.64 -3 8 C-2.42024414 7.83701416 -1.84048828 7.67402832 -1.24316406 7.50610352 C2.22673123 6.72322444 5.712623 6.89687641 9.25 6.9375 C9.99507812 6.94201172 10.74015625 6.94652344 11.5078125 6.95117188 C13.3385764 6.96290754 15.16929873 6.9808415 17 7 C17 7.33 17 7.66 17 8 C16.25878906 8.06316406 15.51757812 8.12632813 14.75390625 8.19140625 C4.64359194 9.36702419 -3.74973957 12.94411658 -13 17 C-13.99 17.33 -14.98 17.66 -16 18 C-16 17.34 -16 16.68 -16 16 C-15.360625 15.7525 -14.72125 15.505 -14.0625 15.25 C-11.50980961 14.03378366 -11.50980961 14.03378366 -11 10 C-13.64 10.66 -16.28 11.32 -19 12 C-15.61802139 8.15841917 -11.84093543 6.02741061 -7.375 3.6875 C-6.694375 3.31560547 -6.01375 2.94371094 -5.3125 2.56054688 C-3.57603374 1.6391216 -1.79052372 0.81139658 0 0 Z " fill="#26506A" transform="translate(165,58)"/>
<path d="M0 0 C0.33 0 0.66 0 1 0 C1 14.85 1 29.7 1 45 C-3.62 45 -8.24 45 -13 45 C-14 44 -14 44 -14.11352539 41.13256836 C-14.10828857 39.88096924 -14.10305176 38.62937012 -14.09765625 37.33984375 C-14.0962413 36.67537735 -14.09482635 36.01091095 -14.09336853 35.3263092 C-14.08775518 33.19666101 -14.07520054 31.06711661 -14.0625 28.9375 C-14.05748671 27.49674631 -14.05292351 26.05599097 -14.04882812 24.61523438 C-14.03778145 21.07678898 -14.02050792 17.53840461 -14 14 C-13.34 14 -12.68 14 -12 14 C-12 23.57 -12 33.14 -12 43 C-8.04 43.33 -4.08 43.66 0 44 C0 29.48 0 14.96 0 0 Z " fill="#1E455B" transform="translate(166,109)"/>
<path d="M0 0 C1.125 3.75 1.125 3.75 0 6 C0.99 6.99 1.98 7.98 3 9 C2.34 10.65 1.68 12.3 1 14 C2.32 13.34 3.64 12.68 5 12 C3.61990379 15.33523252 2.15049348 17.18607951 -1 19 C-1.99 18.67 -2.98 18.34 -4 18 C-4.33 18.66 -4.66 19.32 -5 20 C-6.31774196 20.39044206 -7.65667272 20.70955086 -9 21 C-11.00382009 21.65509503 -13.00458132 22.31974363 -15 23 C-14.64808594 22.53851563 -14.29617187 22.07703125 -13.93359375 21.6015625 C-10.987314 17.70908847 -8.08977047 13.78341594 -5.25 9.8125 C-4.67765625 9.01457031 -4.1053125 8.21664062 -3.515625 7.39453125 C-1.9970481 4.9953363 -0.96535054 2.66417821 0 0 Z " fill="#134868" transform="translate(183,74)"/>
<path d="M0 0 C0.12375 0.639375 0.2475 1.27875 0.375 1.9375 C0.58125 2.618125 0.7875 3.29875 1 4 C1.66 4.33 2.32 4.66 3 5 C2.67 5.66 2.34 6.32 2 7 C2.66 7 3.32 7 4 7 C4 7.66 4 8.32 4 9 C4.66 9 5.32 9 6 9 C6.33 9.66 6.66 10.32 7 11 C8.89533342 11.46523063 8.89533342 11.46523063 11.0625 11.625 C12.361875 11.74875 13.66125 11.8725 15 12 C15.33 11.34 15.66 10.68 16 10 C16 11.32 16 12.64 16 14 C17.72880982 14.05449838 19.45812712 14.09301688 21.1875 14.125 C22.63189453 14.15980469 22.63189453 14.15980469 24.10546875 14.1953125 C27.12812778 13.9913544 29.26769985 13.26874632 32 12 C31 15 31 15 29.23046875 16.140625 C22.53639762 18.71977675 14.6382418 18.73628081 8 16 C4.75320784 13.81313623 1.77052017 11.54104033 0 8 C-0.13415472 5.3276379 -0.04318541 2.67749512 0 0 Z " fill="#144263" transform="translate(109,164)"/>
<path d="M0 0 C-0.6875 1.9375 -0.6875 1.9375 -2 4 C-4.625 4.75 -4.625 4.75 -7 5 C-7 6.32 -7 7.64 -7 9 C-5.35 8.67 -3.7 8.34 -2 8 C-2 8.66 -2 9.32 -2 10 C0.31 10 2.62 10 5 10 C5.33 10.66 5.66 11.32 6 12 C4.12054688 11.98259766 4.12054688 11.98259766 2.203125 11.96484375 C0.55208483 11.95546284 -1.09895696 11.94636296 -2.75 11.9375 C-3.575 11.92912109 -4.4 11.92074219 -5.25 11.91210938 C-6.04921875 11.90888672 -6.8484375 11.90566406 -7.671875 11.90234375 C-8.4050293 11.89710693 -9.13818359 11.89187012 -9.89355469 11.88647461 C-12.0461849 12.0024891 -13.9314135 12.40926729 -16 13 C-16.66 11.35 -17.32 9.7 -18 8 C-17.071875 7.566875 -16.14375 7.13375 -15.1875 6.6875 C-12.09956031 5.25273003 -12.09956031 5.25273003 -10.4375 3.4375 C-7.36357431 0.36357431 -4.22181046 0 0 0 Z " fill="#09476D" transform="translate(178,54)"/>
<path d="M0 0 C1.485 0.99 1.485 0.99 3 2 C3 2.99 3 3.98 3 5 C10.19270839 4.53752467 17.0030827 3.74922933 24 2 C24 2.66 24 3.32 24 4 C25.45833358 5.62514468 25.45833358 5.62514468 27 7 C25.68 7 24.36 7 23 7 C22.67 7.99 22.34 8.98 22 10 C17.25 9.25 17.25 9.25 15 7 C11.91652174 6.83318891 11.91652174 6.83318891 9 7 C9 7.66 9 8.32 9 9 C6.03 8.505 6.03 8.505 3 8 C2.67 7.01 2.34 6.02 2 5 C1.34 5 0.68 5 0 5 C-0.5625 3.0625 -0.5625 3.0625 -1 1 C-0.67 0.67 -0.34 0.34 0 0 Z " fill="#09425E" transform="translate(57,163)"/>
<path d="M0 0 C0.66 0.33 1.32 0.66 2 1 C-0.036994 2.29956591 -2.07907615 3.5896261 -4.125 4.875 C-4.69476563 5.23980469 -5.26453125 5.60460937 -5.8515625 5.98046875 C-9.46472705 8.2386966 -12.90886041 9.8186679 -17 11 C-16.67 10.01 -16.34 9.02 -16 8 C-15.01 7.67 -14.02 7.34 -13 7 C-15.1447024 5.24471981 -15.1447024 5.24471981 -18 4 C-20.00958663 4.63718601 -22.00736409 5.31163487 -24 6 C-28.00533776 6.18975352 -31.99289089 6.11671192 -36 6 C-35.67 5.34 -35.34 4.68 -35 4 C-34.10861328 4.05220703 -34.10861328 4.05220703 -33.19921875 4.10546875 C-27.14988482 4.30303642 -22.19439186 3.44422474 -16.4453125 1.55859375 C-13.79463354 0.95308721 -12.54827408 1.19418027 -10 2 C-4.66341252 2.34627853 -4.66341252 2.34627853 0 0 Z " fill="#2A5369" transform="translate(96,162)"/>
<path d="M0 0 C0.66 0 1.32 0 2 0 C5.00746746 6.81692625 6.40001033 14.79996902 4 22 C-3.59 22 -11.18 22 -19 22 C-18.01 21.01 -17.02 20.02 -16 19 C-15.67 19.66 -15.34 20.32 -15 21 C-9.39 21 -3.78 21 2 21 C2.21127763 13.71092162 1.51772071 7.12786692 0 0 Z " fill="#0E3752" transform="translate(143,131)"/>
<path d="M0 0 C0.99 0.33 1.98 0.66 3 1 C2.45773019 4.79588866 0.79872437 6.47211993 -2 9 C-2.66 8.67 -3.32 8.34 -4 8 C-4.99 7.67 -5.98 7.34 -7 7 C-7.52078125 7.64453125 -8.0415625 8.2890625 -8.578125 8.953125 C-11.70975418 11.59985676 -13.69773096 11.58790924 -17.75 11.75 C-18.92046875 11.80671875 -20.0909375 11.8634375 -21.296875 11.921875 C-22.18890625 11.94765625 -23.0809375 11.9734375 -24 12 C-24.33 15.3 -24.66 18.6 -25 22 C-25.33 22 -25.66 22 -26 22 C-26 18.04 -26 14.08 -26 10 C-24.55367187 9.96132812 -24.55367187 9.96132812 -23.078125 9.921875 C-21.81484375 9.86515625 -20.5515625 9.8084375 -19.25 9.75 C-17.99703125 9.70359375 -16.7440625 9.6571875 -15.453125 9.609375 C-11.5228432 8.91579586 -10.5757959 7.90067106 -8 5 C-7.01 5 -6.02 5 -5 5 C-4.67 4.01 -4.34 3.02 -4 2 C-4 2.66 -4 3.32 -4 4 C-0.95865509 2.33075929 -0.95865509 2.33075929 0 0 Z " fill="#0D3750" transform="translate(179,90)"/>
<path d="M0 0 C0.66 0.33 1.32 0.66 2 1 C1.51391769 1.56732849 1.02783539 2.13465698 0.52702332 2.71917725 C-1.17820033 5.26616709 -1.38898355 6.47325506 -1.43237305 9.49316406 C-1.45216721 10.37377502 -1.47196136 11.25438599 -1.49235535 12.16168213 C-1.49874527 13.10348328 -1.50513519 14.04528442 -1.51171875 15.015625 C-1.53864555 16.47207428 -1.53864555 16.47207428 -1.56611633 17.95794678 C-1.62024273 21.05525385 -1.65412283 24.1524066 -1.6875 27.25 C-1.72067098 29.35158398 -1.75516043 31.4531476 -1.79101562 33.5546875 C-1.87597073 38.70301371 -1.94277108 43.85129395 -2 49 C-3.98 49 -5.96 49 -8 49 C-7.34 48.01 -6.68 47.02 -6 46 C-5.34 46 -4.68 46 -4 46 C-4.01047363 44.77893555 -4.02094727 43.55787109 -4.03173828 42.29980469 C-4.06795151 37.76744521 -4.09090535 33.23509852 -4.10986328 28.70263672 C-4.11991783 26.74135182 -4.13356333 24.78008189 -4.15087891 22.81884766 C-4.17515113 19.99898582 -4.18648859 17.17932228 -4.1953125 14.359375 C-4.21079636 13.04510529 -4.21079636 13.04510529 -4.22659302 11.70428467 C-4.22674408 10.88373596 -4.22689514 10.06318726 -4.22705078 9.21777344 C-4.231492 8.49829529 -4.23593323 7.77881714 -4.24050903 7.03753662 C-3.95714411 4.63693487 -3.26643248 3.05091153 -2 1 C-1.34 0.67 -0.68 0.34 0 0 Z " fill="#083B57" transform="translate(168,104)"/>
<path d="M0 0 C0 3.8340246 -0.13992075 5.72271751 -2 9 C-4.4375 9.9375 -4.4375 9.9375 -7 10 C-7.99 9.34 -8.98 8.68 -10 8 C-8.90653119 6.65787938 -7.7998425 5.32652025 -6.6875 4 C-5.76517578 2.88625 -5.76517578 2.88625 -4.82421875 1.75 C-3 0 -3 0 0 0 Z " fill="#143D57" transform="translate(152,116)"/>
<path d="M0 0 C1.20898633 4.38257546 1.2184264 6.97910216 -1 11 C-1.66 11 -2.32 11 -3 11 C-3.33 11.99 -3.66 12.98 -4 14 C-6 16 -6 16 -8 18 C-8.33 18.99 -8.66 19.98 -9 21 C-12.0625 22.1875 -12.0625 22.1875 -15 23 C-14.64808594 22.53851563 -14.29617187 22.07703125 -13.93359375 21.6015625 C-10.987314 17.70908847 -8.08977047 13.78341594 -5.25 9.8125 C-4.67765625 9.01457031 -4.1053125 8.21664062 -3.515625 7.39453125 C-1.9970481 4.9953363 -0.96535054 2.66417821 0 0 Z " fill="#1F4C5F" transform="translate(183,74)"/>
<path d="M0 0 C-1 1 -1 1 -4.16015625 1.09765625 C-6.09181641 1.08025391 -6.09181641 1.08025391 -8.0625 1.0625 C-9.35285156 1.05347656 -10.64320313 1.04445313 -11.97265625 1.03515625 C-12.97167969 1.02355469 -13.97070312 1.01195313 -15 1 C-14.34 1.66 -13.68 2.32 -13 3 C-12.734375 5.42578125 -12.734375 5.42578125 -12.75 8.3125 C-12.74484375 9.25738281 -12.7396875 10.20226562 -12.734375 11.17578125 C-13.01185955 14.12609489 -13.76946492 16.31919144 -15 19 C-15.33 18.34 -15.66 17.68 -16 17 C-16.66 16.67 -17.32 16.34 -18 16 C-17.67 15.67 -17.34 15.34 -17 15 C-16.76346477 12.47403741 -16.57826308 9.96892793 -16.4375 7.4375 C-16.39431641 6.72658203 -16.35113281 6.01566406 -16.30664062 5.28320312 C-16.20028223 3.52238088 -16.09961154 1.7612168 -16 0 C-13.7089095 -0.19441368 -11.41709663 -0.38033135 -9.125 -0.5625 C-7.21074219 -0.71912109 -7.21074219 -0.71912109 -5.2578125 -0.87890625 C-2 -1 -2 -1 0 0 Z " fill="#1E4962" transform="translate(168,99)"/>
<path d="M0 0 C0 0.66 0 1.32 0 2 C-0.33 2.33 -0.66 2.66 -1 3 C3.02992782 2.44687265 7.02022924 1.8441938 11 1 C9.68441297 2.02323436 8.34631825 3.01755155 7 4 C6.21625 4.598125 5.4325 5.19625 4.625 5.8125 C2 7 2 7 -1.3125 6.1875 C-2.199375 5.795625 -3.08625 5.40375 -4 5 C-4.99 6.485 -4.99 6.485 -6 8 C-6 7.34 -6 6.68 -6 6 C-7.32 6.33 -8.64 6.66 -10 7 C-3.18421053 0 -3.18421053 0 0 0 Z " fill="#1D4D6F" transform="translate(138,75)"/>
<path d="M0 0 C1.90490982 3.80981964 1.33435071 7.90141911 0.125 11.875 C-1 14 -1 14 -3 15 C-2.814375 14.34 -2.62875 13.68 -2.4375 13 C-1.86972692 9.10669886 -2.40718293 5.88624521 -3 2 C-6.96 1.67 -10.92 1.34 -15 1 C-15 0.67 -15 0.34 -15 0 C-13.25093341 -0.19601608 -11.50068154 -0.38147403 -9.75 -0.5625 C-8.77546875 -0.66691406 -7.8009375 -0.77132812 -6.796875 -0.87890625 C-4.21340534 -0.99076038 -2.40387135 -0.92074889 0 0 Z " fill="#0F334F" transform="translate(147,157)"/>
<path d="M0 0 C2.97 0.495 2.97 0.495 6 1 C5.33984375 2.88671875 5.33984375 2.88671875 4 5 C1.50390625 6.08203125 1.50390625 6.08203125 -1.4375 6.8125 C-2.40558594 7.06644531 -3.37367188 7.32039063 -4.37109375 7.58203125 C-7 8 -7 8 -10 7 C-9.01 6.34 -8.02 5.68 -7 5 C-6.34 4.01 -5.68 3.02 -5 2 C-3.68 2 -2.36 2 -1 2 C-0.67 1.34 -0.34 0.68 0 0 Z " fill="#113F63" transform="translate(133,79)"/>
<path d="M0 0 C0.66 0 1.32 0 2 0 C2 2.31 2 4.62 2 7 C3.32 7.33 4.64 7.66 6 8 C5.34 9.65 4.68 11.3 4 13 C0.125 12.125 0.125 12.125 -1 11 C-1.23529412 3.70588235 -1.23529412 3.70588235 0 0 Z " fill="#014D69" transform="translate(42,168)"/>
<path d="M0 0 C0 0.33 0 0.66 0 1 C-0.89203125 1.06058594 -1.7840625 1.12117188 -2.703125 1.18359375 C-4.45882812 1.30927734 -4.45882812 1.30927734 -6.25 1.4375 C-7.41015625 1.51871094 -8.5703125 1.59992187 -9.765625 1.68359375 C-12.30977376 1.93247787 -14.55953248 2.28114942 -17 3 C-17 2.01 -17 1.02 -17 0 C-15.75579353 -0.5345256 -14.50429064 -1.05208611 -13.25 -1.5625 C-12.55390625 -1.85253906 -11.8578125 -2.14257812 -11.140625 -2.44140625 C-7.11169811 -3.49275031 -3.71622818 -1.54842841 0 0 Z " fill="#14445F" transform="translate(196,52)"/>
<path d="M0 0 C1.98 0.66 3.96 1.32 6 2 C2.9703348 4.44814179 -0.07549599 6.09452853 -3.625 7.6875 C-5.06746094 8.34298828 -5.06746094 8.34298828 -6.5390625 9.01171875 C-9 10 -9 10 -11 10 C-10.5 8.1875 -10.5 8.1875 -9 6 C-6.95604731 5.09913104 -4.921376 4.43280567 -2.77734375 3.80859375 C-2.19082031 3.54175781 -1.60429688 3.27492187 -1 3 C-0.67 2.01 -0.34 1.02 0 0 Z " fill="#214C60" transform="translate(73,171)"/>
<path d="M0 0 C-0.33 0.99 -0.66 1.98 -1 3 C-1.56847656 3.03738281 -2.13695313 3.07476562 -2.72265625 3.11328125 C-6.75097369 3.45625986 -10.19128697 3.89752001 -13.875 5.625 C-17 7 -17 7 -20 6 C-17.80087504 4.79198752 -15.59338181 3.60918053 -13.375 2.4375 C-12.75753906 2.09525391 -12.14007813 1.75300781 -11.50390625 1.40039062 C-7.2438032 -0.81934728 -4.63091792 -1.30378151 0 0 Z " fill="#25516A" transform="translate(102,156)"/>
<path d="M0 0 C0.66 0.33 1.32 0.66 2 1 C-1.89047718 5.06731705 -5.01857013 5.42064129 -10.51171875 5.9453125 C-13.42832149 6.00941366 -15.46307226 5.43759239 -18 4 C-18 3.67 -18 3.34 -18 3 C-16.95199219 2.95101562 -15.90398437 2.90203125 -14.82421875 2.8515625 C-13.44528646 2.77651857 -12.0663815 2.70097143 -10.6875 2.625 C-9.99720703 2.5940625 -9.30691406 2.563125 -8.59570312 2.53125 C-4.93009211 2.31875081 -3.12099208 2.08066139 0 0 Z " fill="#113750" transform="translate(139,176)"/>
<path d="M0 0 C0.99 0 1.98 0 3 0 C0.59384348 2.65506927 -1.17959767 3.92164697 -4.78125 4.265625 C-7.53033855 4.25145444 -10.25655321 4.17296687 -13 4 C-13 3.34 -13 2.68 -13 2 C-4.92331577 -1.54732781 -4.92331577 -1.54732781 0 0 Z " fill="#0A3E5C" transform="translate(95,161)"/>
<path d="M0 0 C0 3.2861025 -0.68650955 5.52451629 -1.75 8.625 C-2.07484375 9.60726562 -2.3996875 10.58953125 -2.734375 11.6015625 C-4 14 -4 14 -6.140625 14.8359375 C-6.75421875 14.89007813 -7.3678125 14.94421875 -8 15 C-6.51194289 9.19657726 -3.40902445 4.82409121 0 0 Z " fill="#1F4A60" transform="translate(48,154)"/>
<path d="M0 0 C0 0.33 0 0.66 0 1 C-3.63 1 -7.26 1 -11 1 C-11.33 1.99 -11.66 2.98 -12 4 C-15 6 -15 6 -19 6 C-19 5.01 -19 4.02 -19 3 C-12.68284595 -0.44572039 -7.09629025 -0.31461385 0 0 Z " fill="#20465B" transform="translate(133,123)"/>
<path d="M0 0 C-0.6875 1.9375 -0.6875 1.9375 -2 4 C-4.375 4.625 -4.375 4.625 -7 5 C-7.70125 5.37125 -8.4025 5.7425 -9.125 6.125 C-11 7 -11 7 -14 6 C-9.38373114 2.04319812 -6.15374666 0 0 0 Z " fill="#154361" transform="translate(178,54)"/>
<path d="M0 0 C2.31 0 4.62 0 7 0 C5.63016497 3.16115776 5.0109362 3.9927092 2 6 C-0.1875 5.625 -0.1875 5.625 -2 5 C-1.34 3.35 -0.68 1.7 0 0 Z " fill="#103B51" transform="translate(110,95)"/>
<path d="M0 0 C0 0.66 0 1.32 0 2 C1.32 1.67 2.64 1.34 4 1 C2.28335317 3.07804617 1.14918841 3.95027053 -1.4375 4.8125 C-4.31664378 5.02316906 -5.58978936 4.51754003 -8 3 C-8 2.34 -8 1.68 -8 1 C-4.93251126 -0.86240388 -3.40254489 -1.2151946 0 0 Z " fill="#164662" transform="translate(145,124)"/>
<path d="M0 0 C0.66 0.33 1.32 0.66 2 1 C-0.75 5.875 -0.75 5.875 -3 7 C-5.3329866 7.04022391 -7.66706666 7.04320247 -10 7 C-7.20283196 3.70921407 -3.80471422 1.93694542 0 0 Z " fill="#0A4769" transform="translate(154,67)"/>
<path d="M0 0 C0.33 0.66 0.66 1.32 1 2 C0.71125 2.53625 0.4225 3.0725 0.125 3.625 C-1.48935582 7.03308451 -1.62538129 10.2538129 -2 14 C-2.99 13.34 -3.98 12.68 -5 12 C-4.50769231 4.61538462 -4.50769231 4.61538462 -1.9375 1.5 C-1.298125 1.005 -0.65875 0.51 0 0 Z " fill="#265068" transform="translate(61,152)"/>
<path d="M0 0 C2 2 2 2 2 5 C1.360625 5.103125 0.72125 5.20625 0.0625 5.3125 C-0.618125 5.539375 -1.29875 5.76625 -2 6 C-2.33 6.99 -2.66 7.98 -3 9 C-3.33 8.01 -3.66 7.02 -4 6 C-4.99 6.33 -5.98 6.66 -7 7 C-7 6.34 -7 5.68 -7 5 C-5.46875 3.7109375 -5.46875 3.7109375 -3.5 2.375 C-2.8503125 1.92898437 -2.200625 1.48296875 -1.53125 1.0234375 C-1.0259375 0.68570313 -0.520625 0.34796875 0 0 Z " fill="#123A57" transform="translate(83,119)"/>
<path d="M0 0 C0.66 0.33 1.32 0.66 2 1 C0.28001336 2.801317 -1.45002291 4.59068463 -3.1875 6.375 C-3.91163086 7.13683594 -3.91163086 7.13683594 -4.65039062 7.9140625 C-7.56117467 10.88345293 -10.00455339 12.78748787 -14 14 C-13.34 13.01 -12.68 12.02 -12 11 C-11.34 11 -10.68 11 -10 11 C-9.75507812 10.41734375 -9.51015625 9.8346875 -9.2578125 9.234375 C-7.79564126 6.63697764 -6.15259586 5.16024169 -3.875 3.25 C-3.15054688 2.63640625 -2.42609375 2.0228125 -1.6796875 1.390625 C-0.84824219 0.70226562 -0.84824219 0.70226562 0 0 Z " fill="#304D62" transform="translate(90,110)"/>
<path d="M0 0 C1.95766281 -0.08082094 3.91626728 -0.13910778 5.875 -0.1875 C7.51082031 -0.23970703 7.51082031 -0.23970703 9.1796875 -0.29296875 C10.11039063 -0.19628906 11.04109375 -0.09960938 12 0 C12.66 0.99 13.32 1.98 14 3 C13.01 3.33 12.02 3.66 11 4 C10.67 4.66 10.34 5.32 10 6 C9.01 4.68 8.02 3.36 7 2 C5.02 2.33 3.04 2.66 1 3 C0.67 2.01 0.34 1.02 0 0 Z " fill="#074663" transform="translate(155,101)"/>
<path d="M0 0 C0.33 1.32 0.66 2.64 1 4 C0.01 4.33 -0.98 4.66 -2 5 C-2.33 6.65 -2.66 8.3 -3 10 C-4.32 10.33 -5.64 10.66 -7 11 C-7 9 -7 9 -5.5 7.375 C-5.005 6.92125 -4.51 6.4675 -4 6 C-4.66 5.67 -5.32 5.34 -6 5 C-4.02 3.35 -2.04 1.7 0 0 Z " fill="#0B3A50" transform="translate(96,107)"/>
<path d="M0 0 C0.66 0.33 1.32 0.66 2 1 C2 4.29223784 1.49481868 6.08510357 0 9 C-2.125 10.3125 -2.125 10.3125 -4 11 C-3.48964169 6.6109185 -2.47785723 3.66291938 0 0 Z " fill="#154464" transform="translate(144,167)"/>
<path d="M0 0 C0.66 0.33 1.32 0.66 2 1 C1.69078116 2.45903258 1.37751201 3.91720722 1.0625 5.375 C0.88847656 6.18710938 0.71445313 6.99921875 0.53515625 7.8359375 C0 10 0 10 -1 12 C-1.99 11.67 -2.98 11.34 -4 11 C-2.68 7.37 -1.36 3.74 0 0 Z " fill="#054260" transform="translate(186,69)"/>
<path d="M0 0 C0.66 0.33 1.32 0.66 2 1 C1.39301257 5.12751449 -0.03810791 8.3321148 -2 12 C-2.33 12 -2.66 12 -3 12 C-3 9.36 -3 6.72 -3 4 C-2.34 4 -1.68 4 -1 4 C-0.67 2.68 -0.34 1.36 0 0 Z " fill="#1B435A" transform="translate(202,60)"/>
<path d="M0 0 C0.33 0 0.66 0 1 0 C1.82622671 5.60563042 2.06795656 10.42289352 1 16 C0.01 15.67 -0.98 15.34 -2 15 C-1.34 10.05 -0.68 5.1 0 0 Z " fill="#31556C" transform="translate(108,134)"/>
<path d="M0 0 C-1.09898702 3.29696105 -1.94597387 4.04670589 -4.5625 6.1875 C-5.20316406 6.71730469 -5.84382812 7.24710937 -6.50390625 7.79296875 C-6.99761719 8.19128906 -7.49132812 8.58960937 -8 9 C-8.66 8.67 -9.32 8.34 -10 8 C-8.90653119 6.65787938 -7.7998425 5.32652025 -6.6875 4 C-5.76517578 2.88625 -5.76517578 2.88625 -4.82421875 1.75 C-3 0 -3 0 0 0 Z " fill="#15344B" transform="translate(152,116)"/>
<path d="M0 0 C4.95 0 9.9 0 15 0 C14.67 1.32 14.34 2.64 14 4 C13.34 4 12.68 4 12 4 C12 3.34 12 2.68 12 2 C8.04 1.67 4.08 1.34 0 1 C0 0.67 0 0.34 0 0 Z " fill="#083951" transform="translate(122,124)"/>
<path d="M0 0 C0.66 0.33 1.32 0.66 2 1 C-1.465 3.97 -1.465 3.97 -5 7 C-5.66 6.34 -6.32 5.68 -7 5 C-6.625 2.875 -6.625 2.875 -6 1 C-5.34 1 -4.68 1 -4 1 C-3.67 1.66 -3.34 2.32 -3 3 C-2.01 2.01 -1.02 1.02 0 0 Z " fill="#234F64" transform="translate(83,124)"/>
<path d="M0 0 C0.99 0.33 1.98 0.66 3 1 C3 1.66 3 2.32 3 3 C3.66 3.33 4.32 3.66 5 4 C-0.625 6.125 -0.625 6.125 -4 5 C-3.01 4.34 -2.02 3.68 -1 3 C-0.67 2.01 -0.34 1.02 0 0 Z " fill="#0D3855" transform="translate(127,81)"/>
<path d="M0 0 C1.32 0.33 2.64 0.66 4 1 C2 4 2 4 -0.1640625 4.51171875 C-0.97617187 4.56972656 -1.78828125 4.62773437 -2.625 4.6875 C-3.85089844 4.78611328 -3.85089844 4.78611328 -5.1015625 4.88671875 C-5.72804687 4.92410156 -6.35453125 4.96148437 -7 5 C-6.67 4.01 -6.34 3.02 -6 2 C-4.35 2 -2.7 2 -1 2 C-0.67 1.34 -0.34 0.68 0 0 Z " fill="#0F3F5E" transform="translate(59,178)"/>
<path d="M0 0 C1.65 0.33 3.3 0.66 5 1 C4.67 2.32 4.34 3.64 4 5 C2.35 5.33 0.7 5.66 -1 6 C-0.67 5.34 -0.34 4.68 0 4 C-0.33 3.67 -0.66 3.34 -1 3 C-0.67 2.01 -0.34 1.02 0 0 Z " fill="#103B58" transform="translate(99,104)"/>
<path d="M0 0 C-1.5830577 4.2742558 -4.50568404 6.26531794 -8 9 C-7.33333333 7.66666667 -6.66666667 6.33333333 -6 5 C-5.67 4.278125 -5.34 3.55625 -5 2.8125 C-3.67002064 0.4019124 -2.73140367 0 0 0 Z " fill="#1E4658" transform="translate(175,100)"/>
<path d="M0 0 C0.66 1.32 1.32 2.64 2 4 C1.4225 4.0825 0.845 4.165 0.25 4.25 C-2.6159304 5.20531013 -3.9990764 6.78469173 -6 9 C-6.33 8.34 -6.66 7.68 -7 7 C-5.1875 5 -5.1875 5 -3 3 C-2.01 3 -1.02 3 0 3 C0 2.01 0 1.02 0 0 Z " fill="#0E3D5E" transform="translate(174,92)"/>
<path d="M0 0 C0 3.35279018 -0.35469584 5.08332445 -2 8 C-5.125 9.3125 -5.125 9.3125 -8 10 C-7.04367001 8.70684939 -6.08486149 7.41553147 -5.125 6.125 C-4.59132812 5.40570313 -4.05765625 4.68640625 -3.5078125 3.9453125 C-2 2 -2 2 0 0 Z " fill="#38566C" transform="translate(176,87)"/>
<path d="M0 0 C1.32 0.66 2.64 1.32 4 2 C4 2.99 4 3.98 4 5 C2.35 5.66 0.7 6.32 -1 7 C-1.33 6.01 -1.66 5.02 -2 4 C-1.34 3.34 -0.68 2.68 0 2 C0 1.34 0 0.68 0 0 Z " fill="#054260" transform="translate(185,81)"/>
<path d="M0 0 C-3.96 1.98 -3.96 1.98 -8 4 C-8 3.34 -8 2.68 -8 2 C-8.99 2.33 -9.98 2.66 -11 3 C-11 2.34 -11 1.68 -11 1 C-3.375 -1.125 -3.375 -1.125 0 0 Z " fill="#234963" transform="translate(134,86)"/>
<path d="M0 0 C-1.45264038 0.8638129 -2.9123163 1.71580454 -4.375 2.5625 C-5.59316406 3.27599609 -5.59316406 3.27599609 -6.8359375 4.00390625 C-7.55007812 4.33261719 -8.26421875 4.66132812 -9 5 C-9.66 4.67 -10.32 4.34 -11 4 C-10.67 3.01 -10.34 2.02 -10 1 C-6.19730268 -0.6900877 -3.94727832 -1.19873962 0 0 Z " fill="#305568" transform="translate(149,77)"/>
<path d="M0 0 C0.33 0.66 0.66 1.32 1 2 C1.66 2.33 2.32 2.66 3 3 C-2.2734375 6.22265625 -2.2734375 6.22265625 -4 7 C-4.66 6.67 -5.32 6.34 -6 6 C-5.67 5.34 -5.34 4.68 -5 4 C-3.68 4 -2.36 4 -1 4 C-0.67 2.68 -0.34 1.36 0 0 Z " fill="#255269" transform="translate(85,166)"/>
<path d="M0 0 C0 0.99 0 1.98 0 3 C-2.5 5.1875 -2.5 5.1875 -5 7 C-5 5.02 -5 3.04 -5 1 C-3.35 0.67 -1.7 0.34 0 0 Z " fill="#194965" transform="translate(187,86)"/>
<path d="M0 0 C0.66 0.99 1.32 1.98 2 3 C0.625 5.5 0.625 5.5 -1 8 C-1.66 8 -2.32 8 -3 8 C-3.33 6.68 -3.66 5.36 -4 4 C-3.34 4 -2.68 4 -2 4 C-1.34 2.68 -0.68 1.36 0 0 Z " fill="#094E71" transform="translate(184,81)"/>
<path d="M0 0 C0.66 0 1.32 0 2 0 C2 0.66 2 1.32 2 2 C4.31 2 6.62 2 9 2 C9.33 2.66 9.66 3.32 10 4 C5.71 3.67 1.42 3.34 -3 3 C-2.01 2.01 -1.02 1.02 0 0 Z " fill="#0A3E5A" transform="translate(174,62)"/>
<path d="M0 0 C1.0326802 2.78823655 1.04509293 3.8677274 0.0625 6.75 C-0.288125 7.4925 -0.63875 8.235 -1 9 C-1.66 9 -2.32 9 -3 9 C-1.125 2.25 -1.125 2.25 0 0 Z " fill="#0A4264" transform="translate(49,154)"/>
<path d="M0 0 C0 1.65 0 3.3 0 5 C-1.65 5.33 -3.3 5.66 -5 6 C-2.84615385 0 -2.84615385 0 0 0 Z " fill="#174D73" transform="translate(110,152)"/>
<path d="M0 0 C0.66 0 1.32 0 2 0 C1.67 1.65 1.34 3.3 1 5 C-0.65 5.33 -2.3 5.66 -4 6 C-2.7260411 3.96166576 -1.38938077 1.96147874 0 0 Z " fill="#275163" transform="translate(59,140)"/>
<path d="M0 0 C0.625 1.8125 0.625 1.8125 1 4 C0.01 5.485 0.01 5.485 -1 7 C-1.66 7 -2.32 7 -3 7 C-3.1875 4.625 -3.1875 4.625 -3 2 C-2.01 1.34 -1.02 0.68 0 0 Z " fill="#1A3D56" transform="translate(68,139)"/>
<path d="M0 0 C0.99 0.33 1.98 0.66 3 1 C3.99 0.67 4.98 0.34 6 0 C6 0.99 6 1.98 6 3 C3.36 3.33 0.72 3.66 -2 4 C-2 3.34 -2 2.68 -2 2 C-1.34 2 -0.68 2 0 2 C0 1.34 0 0.68 0 0 Z " fill="#0B3B56" transform="translate(138,75)"/>
<path d="M0 0 C0.66 0.33 1.32 0.66 2 1 C2.125 3.875 2.125 3.875 2 7 C1.34 7.66 0.68 8.32 0 9 C-0.66 6.36 -1.32 3.72 -2 1 C-1.34 0.67 -0.68 0.34 0 0 Z " fill="#184D68" transform="translate(184,65)"/>
<path d="M0 0 C-0.99 1.32 -1.98 2.64 -3 4 C-4.32 3.01 -5.64 2.02 -7 1 C-3.375 -1.125 -3.375 -1.125 0 0 Z " fill="#0F4967" transform="translate(86,165)"/>
<path d="M0 0 C0.33 0.99 0.66 1.98 1 3 C1.66 3.33 2.32 3.66 3 4 C2.01 4.66 1.02 5.32 0 6 C0 5.34 0 4.68 0 4 C-1.65 3.67 -3.3 3.34 -5 3 C-4.34 2.34 -3.68 1.68 -3 1 C-3 1.66 -3 2.32 -3 3 C-2.01 2.01 -1.02 1.02 0 0 Z " fill="#1A4864" transform="translate(104,101)"/>
<path d="M0 0 C0.33 0.99 0.66 1.98 1 3 C1.66 3 2.32 3 3 3 C2.67 4.98 2.34 6.96 2 9 C1.34 9 0.68 9 0 9 C0 6.03 0 3.06 0 0 Z " fill="#0F344C" transform="translate(203,52)"/>
</svg>
